<svg width="70" height="60" viewBox="0 0 70 60" fill="none" xmlns="http://www.w3.org/2000/svg">
<path d="M35.4757 57.4181H54.7753C54.7753 57.4181 53.4603 49.7362 45.731 44.0598L18.7021 44.5234C18.7021 44.5234 12.1081 48.5157 10.4336 57.4181H27.614" fill="white"/>
<path d="M55.0434 58H35.4216C34.8926 58 34.4598 57.5813 34.4598 57.0695C34.4598 56.5577 34.8926 56.139 35.4216 56.139H53.8122C53.1293 53.9522 51.0517 48.8902 45.5403 44.861L18.6662 45.3077C17.6274 45.9963 12.8662 49.4764 11.1638 56.139H27.4383C27.9673 56.139 28.4001 56.5577 28.4001 57.0695C28.4001 57.5813 27.9673 58 27.4383 58H9.96146C9.6729 58 9.40358 57.879 9.22083 57.665C9.03808 57.451 8.96113 57.1718 9.01884 56.902C10.779 47.8387 17.5793 43.763 17.8679 43.5862C18.0121 43.5025 18.1757 43.456 18.3488 43.456L45.8288 43C46.0308 43.0093 46.2424 43.0558 46.4156 43.1768C54.4951 48.9181 55.9283 56.5856 55.986 56.9113C56.0341 57.1811 55.9571 57.4603 55.7744 57.665C55.5916 57.879 55.3223 58 55.0434 58Z" fill="#30323A"/>
<path d="M62.7921 58H2.20788C0.993546 58 0 57.55 0 57C0 56.45 0.993546 56 2.20788 56H62.7921C64.0065 56 65 56.45 65 57C65 57.55 64.0065 58 62.7921 58Z" fill="#FFB100"/>
<path d="M21.3806 53.7924C21.3806 56.6968 18.6371 59.0525 15.2597 59.0525C11.8822 59.0525 9.13867 56.6968 9.13867 53.7924C9.13867 50.888 11.8822 48.5323 15.2597 48.5323C18.6371 48.5323 21.3806 50.888 21.3806 53.7924Z" fill="white"/>
<path d="M15.2624 60.0003C11.3646 60.0003 8.19531 57.2189 8.19531 53.7941C8.19531 50.3694 11.3646 47.588 15.2624 47.588C19.1601 47.588 22.3294 50.3694 22.3294 53.7941C22.3294 57.2189 19.1601 60.0003 15.2624 60.0003ZM15.2624 49.4801C12.4053 49.4801 10.0874 51.4195 10.0874 53.7941C10.0874 56.1782 12.4053 58.1082 15.2624 58.1082C18.1194 58.1082 20.4373 56.1687 20.4373 53.7941C20.4373 51.4101 18.11 49.4801 15.2624 49.4801Z" fill="#30323A"/>
<path d="M22 44.0214L34.2279 56H54C54 56 51.7579 48.3393 43.8258 43L22 44.0214Z" fill="#C9C9C9"/>
<path d="M56.6595 53.7924C56.6595 56.6968 53.9159 59.0525 50.5385 59.0525C47.161 59.0525 44.4175 56.6968 44.4175 53.7924C44.4175 50.888 47.161 48.5323 50.5385 48.5323C53.9159 48.5323 56.6595 50.888 56.6595 53.7924Z" fill="white"/>
<path d="M50.5392 60.0003C46.6415 60.0003 43.4722 57.2189 43.4722 53.7941C43.4722 50.3694 46.6415 47.588 50.5392 47.588C54.437 47.588 57.6063 50.3694 57.6063 53.7941C57.6063 57.2189 54.437 60.0003 50.5392 60.0003ZM50.5392 49.4801C47.6821 49.4801 45.3643 51.4195 45.3643 53.7941C45.3643 56.1782 47.6821 58.1082 50.5392 58.1082C53.3963 58.1082 55.7141 56.1687 55.7141 53.7941C55.7141 51.4101 53.3963 49.4801 50.5392 49.4801Z" fill="#30323A"/>
<path d="M50.6866 14.8742C52.1246 6.5962 50.8947 0.948242 50.8947 0.948242C46.4482 0.948242 40.507 4.846 38.2648 6.43537C36.316 5.91504 34.263 5.63122 32.1344 5.63122C29.9017 5.63122 27.7447 5.94342 25.7012 6.52052C23.5442 4.97844 17.4705 0.948242 12.9578 0.948242C12.9578 0.948242 11.6901 6.8138 13.2511 15.3472C10.9427 18.7057 9.58984 22.717 9.58984 27.0216C9.58984 38.8378 19.6843 48.4119 32.1344 48.4119C44.5845 48.4119 54.6789 38.8378 54.6789 27.0216C54.6789 22.5089 53.2031 18.3273 50.6866 14.8742Z" fill="white"/>
<path d="M32.1371 49.3558C19.1856 49.3558 8.64648 39.337 8.64648 27.0194C8.64648 22.8 9.89528 18.6941 12.251 15.1369C10.7751 6.72646 11.9766 0.99336 12.0334 0.747385C12.128 0.312199 12.5159 0 12.9605 0C17.4827 0 23.2631 3.64232 25.8931 5.48713C29.8665 4.44647 34.1049 4.41809 38.0878 5.41145C40.6894 3.60448 46.432 0 50.9068 0C51.3515 0 51.7394 0.312199 51.834 0.747385C51.8813 0.983899 53.0449 6.49941 51.7015 14.645C54.2748 18.3157 55.6371 22.5918 55.6371 27.0194C55.6277 39.337 45.0886 49.3558 32.1371 49.3558ZM13.7552 1.92996C13.4903 3.77477 13.0078 8.71318 14.1904 15.1653C14.2377 15.4113 14.1809 15.6667 14.039 15.8748C11.759 19.1955 10.5481 23.0459 10.5481 27.0194C10.5481 38.2964 20.2357 47.4637 32.1465 47.4637C44.0574 47.4637 53.745 38.2964 53.745 27.0194C53.745 22.8567 52.43 18.8455 49.9324 15.4302C49.781 15.2221 49.7243 14.9666 49.7621 14.7112C50.8406 8.45775 50.3771 3.72746 50.1122 1.93942C45.9211 2.3746 40.4624 6.03584 38.8162 7.20895C38.5892 7.36978 38.2959 7.42655 38.0216 7.35086C34.086 6.29128 29.876 6.31966 25.9593 7.42655C25.685 7.50223 25.3822 7.45493 25.1552 7.28464C23.4901 6.09261 17.9935 2.3746 13.7552 1.92996Z" fill="#30323A"/>
<path d="M49.3245 30.1606C48.8326 30.1606 48.4163 29.7821 48.3785 29.2807C48.3406 28.7604 48.738 28.3063 49.2583 28.2684L59.3149 27.5684C59.8258 27.54 60.2893 27.9279 60.3272 28.4482C60.365 28.9685 59.9677 29.4226 59.4473 29.4605L49.3908 30.1606C49.3624 30.1606 49.3434 30.1606 49.3245 30.1606Z" fill="#30323A"/>
<path d="M57.8244 36.1965C57.7582 36.1965 57.692 36.187 57.6163 36.1776L48.6666 34.2098C48.1557 34.0962 47.8341 33.5948 47.9476 33.084C48.0611 32.5731 48.5625 32.2514 49.0734 32.365L58.0231 34.3328C58.534 34.4463 58.8556 34.9477 58.7421 35.4586C58.6475 35.8937 58.2596 36.1965 57.8244 36.1965Z" fill="#30323A"/>
<path d="M15.3294 30.1606C15.3104 30.1606 15.2821 30.1606 15.2631 30.1606L5.20655 29.4605C4.68621 29.4226 4.28887 28.9685 4.32671 28.4482C4.36456 27.9279 4.81866 27.54 5.33899 27.5684L15.3956 28.2684C15.9159 28.3063 16.3133 28.7604 16.2754 29.2807C16.2376 29.7821 15.8213 30.1606 15.3294 30.1606Z" fill="#30323A"/>
<path d="M6.81907 36.1965C6.38388 36.1965 5.996 35.8937 5.89193 35.4586C5.7784 34.9477 6.10006 34.4463 6.61093 34.3328L15.5606 32.365C16.0715 32.2514 16.5729 32.5731 16.6864 33.084C16.8 33.5948 16.4783 34.0962 15.9674 34.2098L7.01774 36.1776C6.96098 36.187 6.89475 36.1965 6.81907 36.1965Z" fill="#30323A"/>
<path d="M24.9856 26.8129C24.9856 27.9482 24.068 28.8753 22.9232 28.8753C21.788 28.8753 20.8608 27.9576 20.8608 26.8129C20.8608 25.6776 21.788 24.7505 22.9232 24.7505C24.0585 24.7505 24.9856 25.6682 24.9856 26.8129Z" fill="#30323A"/>
<path d="M43.7356 26.7738C43.7356 27.9186 42.818 28.8362 41.6732 28.8362C40.538 28.8362 39.6108 27.9186 39.6108 26.7738C39.6108 25.6386 40.5285 24.7114 41.6732 24.7114C42.818 24.7114 43.7356 25.6386 43.7356 26.7738Z" fill="#30323A"/>
<path d="M47.2655 12.3098C47.2655 12.3098 43.9448 9.7365 42.1284 8.88505C42.1284 8.88505 45.1274 6.52937 47.5872 5.56439C47.5872 5.56439 47.5872 9.52837 47.2655 12.3098Z" fill="#F47253"/>
<path d="M47.2671 13.2533C47.0589 13.2533 46.8602 13.1871 46.69 13.0546C46.6521 13.0262 43.4355 10.5381 41.7326 9.73396C41.4393 9.59205 41.2312 9.30824 41.1934 8.98658C41.1555 8.66492 41.288 8.34326 41.5529 8.13513C41.6759 8.03106 44.6938 5.68484 47.2576 4.68202C47.5509 4.56849 47.8725 4.60634 48.1374 4.77663C48.3929 4.95638 48.5537 5.24965 48.5537 5.56185C48.5537 5.72268 48.5537 9.61098 48.2226 12.4113C48.1847 12.7519 47.9671 13.0452 47.6455 13.1776C47.5225 13.2344 47.39 13.2533 47.2671 13.2533ZM43.8802 8.77845C44.7695 9.32716 45.725 9.99886 46.4818 10.5381C46.567 9.28932 46.6048 8.01214 46.6332 7.05662C45.6115 7.59588 44.6181 8.25811 43.8802 8.77845Z" fill="#30323A"/>
<path d="M16.8197 12.3088C16.8197 12.3088 20.1404 9.73553 21.9568 8.88408C21.9568 8.88408 18.9578 6.52839 16.498 5.56342C16.498 5.56342 16.498 9.52739 16.8197 12.3088Z" fill="#F47253"/>
<path d="M16.8241 13.2552C16.7011 13.2552 16.5781 13.2268 16.4551 13.1795C16.1429 13.047 15.9253 12.7537 15.878 12.4132C15.5563 9.60337 15.5469 5.72454 15.5469 5.56371C15.5469 5.25151 15.6982 4.95823 15.9631 4.77848C16.2186 4.59873 16.5497 4.56089 16.843 4.68388C19.4068 5.6867 22.4152 8.04238 22.5477 8.13698C22.8031 8.33566 22.945 8.65731 22.9072 8.98843C22.8694 9.31009 22.6707 9.59391 22.3679 9.73582C20.665 10.54 17.439 13.0281 17.4011 13.0565C17.2309 13.1889 17.0227 13.2552 16.8241 13.2552ZM17.4674 7.05848C17.4863 8.014 17.5336 9.29117 17.6187 10.54C18.3661 9.99126 19.3311 9.32901 20.2204 8.7803C19.473 8.25997 18.4797 7.59773 17.4674 7.05848Z" fill="#30323A"/>
<path d="M35.7435 33.4156C35.7435 34.1441 34.3433 34.7306 32.6215 34.7306C30.8997 34.7306 29.4995 34.1441 29.4995 33.4156C29.4995 32.6871 30.8997 32.1006 32.6215 32.1006C34.3433 32.1006 35.7435 32.6871 35.7435 33.4156Z" fill="#30323A"/>
<path d="M36.3459 39.7814C33.7537 39.7814 31.644 37.842 31.644 35.4485C31.644 34.9282 32.0698 34.5024 32.5901 34.5024C33.1104 34.5024 33.5362 34.9282 33.5362 35.4485C33.5362 36.7919 34.7944 37.8893 36.3459 37.8893C37.8975 37.8893 39.1557 36.7919 39.1557 35.4485C39.1557 34.9282 39.5815 34.5024 40.1018 34.5024C40.6221 34.5024 41.0478 34.9282 41.0478 35.4485C41.0478 37.8326 38.9381 39.7814 36.3459 39.7814Z" fill="#30323A"/>
<path d="M28.8088 39.7814C26.2166 39.7814 24.1069 37.842 24.1069 35.4485C24.1069 34.9282 24.5327 34.5024 25.053 34.5024C25.5733 34.5024 25.999 34.9282 25.999 35.4485C25.999 36.7919 27.2573 37.8893 28.8088 37.8893C30.3604 37.8893 31.6186 36.7919 31.6186 35.4485C31.6186 34.9282 32.0443 34.5024 32.5647 34.5024C33.085 34.5024 33.5107 34.9282 33.5107 35.4485C33.5107 37.8326 31.401 39.7814 28.8088 39.7814Z" fill="#30323A"/>
<path d="M32.5823 36.5459C32.062 36.5459 31.6362 36.1202 31.6362 35.5999V33.6321C31.6362 33.1118 32.062 32.686 32.5823 32.686C33.1026 32.686 33.5283 33.1118 33.5283 33.6321V35.5999C33.5283 36.1202 33.1026 36.5459 32.5823 36.5459Z" fill="#373737"/>
<path d="M68.42 11.0882H60.615C60.0947 11.0882 59.6689 10.6625 59.6689 10.1422C59.6689 9.62183 60.0947 9.19611 60.615 9.19611H68.42C68.9403 9.19611 69.366 9.62183 69.366 10.1422C69.366 10.6625 68.9403 11.0882 68.42 11.0882Z" fill="#30323A"/>
<path d="M63.2167 16.763H60.615C60.0947 16.763 59.6689 16.3372 59.6689 15.8169C59.6689 15.2966 60.0947 14.8708 60.615 14.8708H63.2167C63.737 14.8708 64.1627 15.2966 64.1627 15.8169C64.1627 16.3372 63.737 16.763 63.2167 16.763Z" fill="#30323A"/>
</svg>
