<svg width="74" height="60" viewBox="0 0 74 60" fill="none" xmlns="http://www.w3.org/2000/svg">
<path d="M39.613 57.1893H60.5258C60.5258 57.1893 59.0946 48.8282 50.6821 42.6501L21.2641 43.1547C21.2641 43.1547 14.0872 47.4999 12.2646 57.1893H30.3253" fill="white"/>
<path d="M60.962 58H39.7642C39.1902 58 38.7205 57.5534 38.7205 57.0074C38.7205 56.4615 39.1902 56.0149 39.7642 56.0149H59.6156C58.8745 53.6824 56.6201 48.2829 50.6397 43.9851L21.4784 44.4615C20.3512 45.196 15.1848 48.9082 13.3375 56.0149H30.35C30.924 56.0149 31.3937 56.4615 31.3937 57.0074C31.3937 57.5534 30.924 58 30.35 58H12.0433C11.7302 58 11.4379 57.871 11.2396 57.6427C11.0413 57.4144 10.9578 57.1166 11.0204 56.8288C12.9304 47.1613 20.3095 42.8139 20.6226 42.6253C20.7791 42.536 20.9566 42.4864 21.1444 42.4864L50.9632 42C51.1928 42 51.412 42.0596 51.5999 42.1886C60.367 48.3127 61.9222 56.4913 61.9848 56.8387C62.037 57.1266 61.9535 57.4243 61.7552 57.6427C61.5569 57.871 61.2646 58 60.962 58Z" fill="#30323A"/>
<path d="M24.9314 42.7934L38.585 56.0763H58.9727C58.9727 56.0763 56.5117 47.5814 47.8521 41.6608L24.9314 42.7934Z" fill="#C9C9C9"/>
<path d="M60.5258 24.7641C60.5258 37.8823 49.7245 48.5086 36.3901 48.5086C23.066 48.5086 12.2646 37.872 12.2646 24.7641C12.2646 11.646 23.066 1.01965 36.3901 1.01965C49.7142 1.01965 60.5258 11.6563 60.5258 24.7641Z" fill="white"/>
<path d="M36.3934 49.5483C22.5236 49.5483 11.2383 38.438 11.2383 24.7741C11.2383 11.1103 22.5236 0 36.3934 0C50.2632 0 61.5588 11.1103 61.5588 24.7741C61.5588 38.4277 50.2735 49.5483 36.3934 49.5483ZM36.3934 2.04907C23.6562 2.04907 13.2976 12.2429 13.2976 24.7638C13.2976 37.2951 23.6562 47.4786 36.3934 47.4786C49.1306 47.4786 59.4995 37.2848 59.4995 24.7638C59.4995 12.2429 49.1306 2.04907 36.3934 2.04907Z" fill="#30323A"/>
<path d="M28.3207 24.3624C28.3207 25.6289 27.291 26.6585 26.0245 26.6585C24.758 26.6585 23.7283 25.6289 23.7283 24.3624C23.7283 23.0958 24.758 22.0662 26.0245 22.0662C27.291 22.0662 28.3207 23.0958 28.3207 24.3624Z" fill="#30323A"/>
<path d="M49.2342 24.3215C49.2342 25.588 48.2045 26.6176 46.938 26.6176C45.6715 26.6176 44.6418 25.588 44.6418 24.3215C44.6418 23.0549 45.6715 22.0253 46.938 22.0253C48.2045 22.0253 49.2342 23.0549 49.2342 24.3215Z" fill="#30323A"/>
<path d="M59.5184 2.99555C59.5184 2.99555 53.711 1.65697 50.6219 2.00706C50.6219 2.00706 46.8121 2.8308 48.0683 5.94044C48.0683 5.94044 53.9478 19.9441 58.2622 22.7551C58.2622 22.7551 62.2985 26.3899 63.8224 21.2518C63.8224 21.2518 64.6565 12.654 62.5148 6.65092C62.525 6.65092 62.0926 3.96345 59.5184 2.99555Z" fill="#686868"/>
<path d="M61.1138 25.0322C59.456 25.0322 57.9938 23.879 57.6437 23.5803C53.1337 20.5428 47.3675 6.9201 47.1204 6.34348C46.5438 4.92252 46.8218 3.87224 47.1513 3.23384C48.0368 1.55546 50.158 1.05091 50.3948 0.999428C50.8787 0.937647 51.3009 0.917053 51.7746 0.917053C55.0386 0.917053 59.5487 1.94674 59.734 1.99822C59.7752 2.00852 59.8267 2.01881 59.8679 2.03941C62.6789 3.09998 63.3894 5.79775 63.5026 6.38466C65.665 12.5319 64.8721 21.0061 64.8412 21.3562C64.8309 21.418 64.8206 21.4901 64.8 21.5519C63.966 24.435 62.3288 25.0322 61.1138 25.0322ZM50.7964 3.0279C50.3742 3.13087 49.3342 3.52215 48.9738 4.20174C48.7885 4.56213 48.8091 5.00489 49.0356 5.56092C50.6316 9.36044 55.5226 19.7396 58.8382 21.902C58.8794 21.9329 58.9205 21.9637 58.9617 21.9946C59.2706 22.2624 60.2591 22.9728 61.1138 22.9728C61.3918 22.9728 62.2155 22.9625 62.8127 21.0576C62.8951 20.1 63.4717 12.3774 61.5565 6.99218C61.5359 6.93039 61.5153 6.86861 61.5051 6.80683C61.4948 6.72446 61.1241 4.73717 59.2192 3.9855C58.5705 3.84135 53.5662 2.73959 50.7964 3.0279Z" fill="#30323A"/>
<path d="M13.264 2.99635C13.264 2.99635 19.0715 1.65776 22.1605 2.00785C22.1605 2.00785 25.9703 2.8316 24.7038 5.94124C24.7038 5.94124 18.8243 19.9449 14.51 22.7559C14.51 22.7559 10.4736 26.3907 8.94968 21.2526C8.94968 21.2526 8.11564 12.6548 10.2574 6.65172C10.2574 6.65172 10.6898 3.96425 13.264 2.99635Z" fill="#686868"/>
<path d="M11.6692 25.0316C10.4541 25.0316 8.81695 24.4241 7.96231 21.541C7.94172 21.4792 7.93142 21.4174 7.92112 21.3454C7.89023 20.985 7.09738 12.521 9.25971 6.3738C9.38327 5.78688 10.0835 3.08911 12.8945 2.02854C12.9357 2.00795 12.9769 1.99765 13.0283 1.98735C13.2137 1.94617 17.7237 0.906189 20.9878 0.906189C21.4614 0.906189 21.8836 0.926783 22.2646 0.96797C22.6044 1.04005 24.7255 1.53429 25.6111 3.21268C25.9509 3.84078 26.2186 4.90135 25.6522 6.31202C25.4051 6.90923 19.6389 20.5216 15.1289 23.5592C14.7891 23.8784 13.327 25.0316 11.6692 25.0316ZM9.97019 21.0571C10.5674 22.9723 11.4014 22.9723 11.6692 22.9723C12.5341 22.9723 13.5329 22.2412 13.8212 21.9941C13.8624 21.9632 13.9036 21.922 13.9448 21.9014C17.2603 19.7391 22.1513 9.35988 23.7576 5.55005C24.0871 4.7469 23.8709 4.33503 23.7988 4.20117C23.4178 3.48039 22.3058 3.09941 21.9351 3.01704C21.7189 2.99644 21.3585 2.98615 20.9878 2.98615C18.1665 2.98615 14.1301 3.86138 13.5638 3.99523C11.628 4.7675 11.2779 6.79597 11.2779 6.81656C11.2676 6.87834 11.247 6.94012 11.2264 7.00191C9.31119 12.3768 9.88782 20.0995 9.97019 21.0571Z" fill="#30323A"/>
<path d="M40.0993 31.8802C40.0993 32.6937 38.5445 33.3424 36.619 33.3424C34.6935 33.3424 33.1387 32.6834 33.1387 31.8802C33.1387 31.0668 34.6935 30.4181 36.619 30.4181C38.5445 30.4181 40.0993 31.0771 40.0993 31.8802Z" fill="#30323A"/>
<path d="M40.7803 38.9634C37.8972 38.9634 35.5598 36.8114 35.5598 34.1548C35.5598 33.5885 36.0232 33.1251 36.5895 33.1251C37.1558 33.1251 37.6192 33.5885 37.6192 34.1548C37.6192 35.6684 39.0401 36.9041 40.7803 36.9041C42.5205 36.9041 43.9414 35.6684 43.9414 34.1548C43.9414 33.5885 44.4048 33.1251 44.9711 33.1251C45.5374 33.1251 46.0008 33.5885 46.0008 34.1548C46.0008 36.8011 43.6531 38.9634 40.7803 38.9634Z" fill="#30323A"/>
<path d="M32.3679 38.9634C29.4951 38.9634 27.1475 36.8114 27.1475 34.1548C27.1475 33.5885 27.6108 33.1251 28.1771 33.1251C28.7435 33.1251 29.2068 33.5885 29.2068 34.1548C29.2068 35.6684 30.6278 36.9041 32.3679 36.9041C34.1081 36.9041 35.5291 35.6684 35.5291 34.1548C35.5291 33.5885 35.9924 33.1251 36.5588 33.1251C37.1251 33.1251 37.5884 33.5885 37.5884 34.1548C37.5884 36.8011 35.2511 38.9634 32.3679 38.9634Z" fill="#30323A"/>
<path d="M36.5768 35.3488C36.0105 35.3488 35.5471 34.8854 35.5471 34.3191V32.1259C35.5471 31.5595 36.0105 31.0962 36.5768 31.0962C37.1431 31.0962 37.6065 31.5595 37.6065 32.1259V34.3191C37.6065 34.8957 37.1431 35.3488 36.5768 35.3488Z" fill="#373737"/>
<path d="M65.8055 58.0594H5.19446C3.98751 58.0594 3 57.596 3 57.0297C3 56.4634 3.98751 56 5.19446 56H65.8055C67.0125 56 68 56.4634 68 57.0297C68 57.596 67.0125 58.0594 65.8055 58.0594Z" fill="#FFB100"/>
<path d="M24.1678 53.2442C24.1678 56.4054 21.1818 58.9693 17.5058 58.9693C13.8298 58.9693 10.8438 56.4054 10.8438 53.2442C10.8438 50.0831 13.8298 47.5192 17.5058 47.5192C21.1818 47.5089 24.1678 50.0728 24.1678 53.2442Z" fill="white"/>
<path d="M17.5084 60C13.2661 60 9.81665 56.9728 9.81665 53.2453C9.81665 49.5179 13.2661 46.4906 17.5084 46.4906C21.7507 46.4906 25.2001 49.5179 25.2001 53.2453C25.2001 56.9728 21.7507 60 17.5084 60ZM17.5084 48.5397C14.3987 48.5397 11.876 50.6505 11.876 53.235C11.876 55.8298 14.3987 57.9304 17.5084 57.9304C20.618 57.9304 23.1407 55.8195 23.1407 53.235C23.1407 50.6505 20.618 48.5397 17.5084 48.5397Z" fill="#30323A"/>
<path d="M62.5748 53.2442C62.5748 56.4054 59.5887 58.9693 55.9128 58.9693C52.2368 58.9693 49.2507 56.4054 49.2507 53.2442C49.2507 50.0831 52.2368 47.5192 55.9128 47.5192C59.5887 47.5089 62.5748 50.0728 62.5748 53.2442Z" fill="white"/>
<path d="M55.9046 60C51.6623 60 48.2129 56.9728 48.2129 53.2453C48.2129 49.5179 51.6623 46.4906 55.9046 46.4906C60.1469 46.4906 63.5963 49.5179 63.5963 53.2453C63.6066 56.9728 60.1469 60 55.9046 60ZM55.9046 48.5397C52.795 48.5397 50.2723 50.6505 50.2723 53.235C50.2723 55.8298 52.795 57.9304 55.9046 57.9304C59.0143 57.9304 61.537 55.8195 61.537 53.235C61.5473 50.6505 59.0143 48.5397 55.9046 48.5397Z" fill="#30323A"/>
<path d="M66.697 36.3267C66.4087 36.3267 66.1307 36.2031 65.9247 35.9766C65.554 35.5441 65.5952 34.8954 66.0174 34.5248L71.6498 29.5926C72.0822 29.2219 72.7309 29.2631 73.1016 29.6853C73.4723 30.1177 73.4311 30.7664 73.0089 31.1371L67.3766 36.0693C67.1809 36.2443 66.9338 36.3267 66.697 36.3267Z" fill="#30323A"/>
<path d="M71.175 44.5444C71.1133 44.5444 71.0412 44.5341 70.9794 44.5238L68.4464 44.0295C67.8904 43.9163 67.5197 43.3808 67.6329 42.8248C67.7462 42.2688 68.2713 41.8981 68.8377 42.0114L71.3707 42.5056C71.9267 42.6189 72.2974 43.1543 72.1841 43.7103C72.0812 44.2046 71.659 44.5444 71.175 44.5444Z" fill="#30323A"/>
<path d="M6.66539 36.3266C6.42856 36.3266 6.18144 36.2442 5.9858 36.0691L0.353442 31.137C-0.0790245 30.7663 -0.120212 30.1073 0.26077 29.6851C0.631456 29.2526 1.29045 29.2115 1.71262 29.5924L7.34498 34.5246C7.77745 34.8953 7.81863 35.5543 7.43765 35.9765C7.23172 36.2133 6.9537 36.3266 6.66539 36.3266Z" fill="#30323A"/>
<path d="M2.18768 44.5444C1.70373 44.5444 1.27126 44.2046 1.17859 43.7103C1.06533 43.1543 1.43601 42.6086 1.99204 42.5056L4.52506 42.0114C5.08109 41.8981 5.62682 42.2688 5.72978 42.8248C5.84305 43.3808 5.47236 43.9266 4.91634 44.0295L2.38332 44.5238C2.32154 44.5444 2.24946 44.5444 2.18768 44.5444Z" fill="#30323A"/>
</svg>
