<svg width="66" height="60" viewBox="0 0 66 60" fill="none" xmlns="http://www.w3.org/2000/svg">
<path d="M31.1515 57.4181H50.4511C50.4511 57.4181 49.1361 49.7361 41.4068 44.0598L14.3779 44.5233C14.3779 44.5233 7.7839 48.5157 6.10938 57.4181H23.2898" fill="white"/>
<path d="M50.7192 58H31.0974C30.5684 58 30.1356 57.5812 30.1356 57.0694C30.1356 56.5576 30.5684 56.1389 31.0974 56.1389H49.488C48.8051 53.9522 46.7275 48.8902 41.2161 44.861L14.342 45.3076C13.3032 45.9962 8.54203 49.4764 6.83955 56.1389H23.1141C23.6431 56.1389 24.0759 56.5576 24.0759 57.0694C24.0759 57.5812 23.6431 58 23.1141 58H5.63724C5.34868 58 5.07937 57.879 4.89661 57.665C4.71386 57.4509 4.63691 57.1718 4.69463 56.9019C6.45481 47.8387 13.2551 43.763 13.5436 43.5862C13.6879 43.5024 13.8514 43.4559 14.0246 43.4559L41.5046 43C41.7066 43.0093 41.9182 43.0558 42.0914 43.1768C50.1709 48.9181 51.6041 56.5856 51.6618 56.9112C51.7099 57.1811 51.6329 57.4603 51.4502 57.665C51.2674 57.879 50.9981 58 50.7192 58Z" fill="#30323A"/>
<path d="M55.7736 58H3.57796C2.53176 58 1.67578 57.55 1.67578 57C1.67578 56.45 2.53176 56 3.57796 56H55.7736C56.8198 56 57.6758 56.45 57.6758 57C57.6758 57.55 56.8198 58 55.7736 58Z" fill="#FFB100"/>
<path d="M17.0564 53.7924C17.0564 56.6968 14.3129 59.0525 10.9354 59.0525C7.55802 59.0525 4.81445 56.6968 4.81445 53.7924C4.81445 50.888 7.55802 48.5323 10.9354 48.5323C14.3129 48.5323 17.0564 50.888 17.0564 53.7924Z" fill="white"/>
<path d="M10.9381 60.0003C7.04038 60.0003 3.87109 57.2189 3.87109 53.7941C3.87109 50.3694 7.04038 47.588 10.9381 47.588C14.8359 47.588 18.0052 50.3694 18.0052 53.7941C18.0052 57.2189 14.8359 60.0003 10.9381 60.0003ZM10.9381 49.4801C8.08105 49.4801 5.76321 51.4195 5.76321 53.7941C5.76321 56.1782 8.08105 58.1082 10.9381 58.1082C13.7952 58.1082 16.1131 56.1687 16.1131 53.7941C16.1131 51.4101 13.7858 49.4801 10.9381 49.4801Z" fill="#30323A"/>
<path d="M17.6758 44.0214L29.9037 56H49.6758C49.6758 56 47.4337 48.3393 39.5016 43L17.6758 44.0214Z" fill="#C9C9C9"/>
<path d="M52.3357 53.7924C52.3357 56.6968 49.5922 59.0525 46.2147 59.0525C42.8373 59.0525 40.0938 56.6968 40.0938 53.7924C40.0938 50.888 42.8373 48.5323 46.2147 48.5323C49.5922 48.5323 52.3357 50.888 52.3357 53.7924Z" fill="white"/>
<path d="M46.2155 60.0003C42.3177 60.0003 39.1484 57.2189 39.1484 53.7941C39.1484 50.3694 42.3177 47.588 46.2155 47.588C50.1132 47.588 53.2825 50.3694 53.2825 53.7941C53.2825 57.2189 50.1132 60.0003 46.2155 60.0003ZM46.2155 49.4801C43.3584 49.4801 41.0406 51.4195 41.0406 53.7941C41.0406 56.1782 43.3584 58.1082 46.2155 58.1082C49.0726 58.1082 51.3904 56.1687 51.3904 53.7941C51.3904 51.4101 49.0726 49.4801 46.2155 49.4801Z" fill="#30323A"/>
<path d="M46.3623 14.8742C47.8003 6.59619 46.5705 0.948227 46.5705 0.948227C42.124 0.948227 36.1828 4.84598 33.9406 6.43536C31.9917 5.91503 29.9388 5.63121 27.8102 5.63121C25.5775 5.63121 23.4205 5.94341 21.377 6.5205C19.22 4.97843 13.1463 0.948227 8.63359 0.948227C8.63359 0.948227 7.36587 6.81378 8.92687 15.3472C6.61849 18.7057 5.26562 22.717 5.26562 27.0216C5.26562 38.8378 15.3601 48.4119 27.8102 48.4119C40.2603 48.4119 50.3547 38.8378 50.3547 27.0216C50.3547 22.5089 48.8788 18.3273 46.3623 14.8742Z" fill="white"/>
<path d="M27.8129 49.3558C14.8613 49.3558 4.32227 39.337 4.32227 27.0194C4.32227 22.8 5.57106 18.6941 7.92674 15.1369C6.45089 6.72646 7.65239 0.99336 7.70915 0.747385C7.80376 0.312199 8.19164 0 8.63629 0C13.1584 0 18.9388 3.64232 21.5689 5.48713C25.5423 4.44647 29.7807 4.41809 33.7636 5.41145C36.3652 3.60448 42.1078 0 46.5826 0C47.0273 0 47.4152 0.312199 47.5098 0.747385C47.5571 0.983899 48.7207 6.49941 47.3773 14.645C49.9506 18.3157 51.3129 22.5918 51.3129 27.0194C51.3035 39.337 40.7644 49.3558 27.8129 49.3558ZM9.43097 1.92996C9.16608 3.77477 8.68359 8.71318 9.86616 15.1653C9.91346 15.4113 9.8567 15.6667 9.71479 15.8748C7.43479 19.1955 6.22384 23.0459 6.22384 27.0194C6.22384 38.2964 15.9115 47.4637 27.8223 47.4637C39.7332 47.4637 49.4208 38.2964 49.4208 27.0194C49.4208 22.8567 48.1058 18.8455 45.6082 15.4302C45.4568 15.2221 45.4001 14.9666 45.4379 14.7112C46.5164 8.45775 46.0528 3.72746 45.7879 1.93942C41.5969 2.3746 36.1382 6.03584 34.492 7.20895C34.265 7.36978 33.9717 7.42655 33.6973 7.35086C29.7617 6.29128 25.5518 6.31966 21.6351 7.42655C21.3608 7.50223 21.058 7.45493 20.831 7.28464C19.1659 6.09261 13.6693 2.3746 9.43097 1.92996Z" fill="#30323A"/>
<path d="M45.0013 30.1606C44.5093 30.1606 44.0931 29.7821 44.0552 29.2807C44.0174 28.7604 44.4147 28.3063 44.9351 28.2684L54.9916 27.5684C55.5025 27.54 55.9661 27.9279 56.0039 28.4482C56.0418 28.9685 55.6444 29.4226 55.1241 29.4605L45.0675 30.1606C45.0391 30.1606 45.0202 30.1606 45.0013 30.1606Z" fill="#30323A"/>
<path d="M53.5012 36.1965C53.435 36.1965 53.3687 36.1871 53.2931 36.1776L44.3434 34.2098C43.8325 34.0963 43.5108 33.5949 43.6244 33.084C43.7379 32.5731 44.2393 32.2515 44.7502 32.365L53.6999 34.3328C54.2107 34.4463 54.5324 34.9477 54.4189 35.4586C54.3243 35.8938 53.9364 36.1965 53.5012 36.1965Z" fill="#30323A"/>
<path d="M11.0051 30.1606C10.9862 30.1606 10.9578 30.1606 10.9389 30.1606L0.882327 29.4605C0.361996 29.4226 -0.035348 28.9685 0.00249425 28.4482C0.0403365 27.9279 0.494444 27.54 1.01478 27.5684L11.0714 28.2684C11.5917 28.3063 11.989 28.7604 11.9512 29.2807C11.9134 29.7821 11.4971 30.1606 11.0051 30.1606Z" fill="#30323A"/>
<path d="M2.49485 36.1965C2.05966 36.1965 1.67178 35.8938 1.56771 35.4586C1.45419 34.9477 1.77584 34.4463 2.28672 34.3328L11.2364 32.365C11.7473 32.2515 12.2487 32.5731 12.3622 33.084C12.4757 33.5949 12.1541 34.0963 11.6432 34.2098L2.69352 36.1776C2.63676 36.1871 2.57053 36.1965 2.49485 36.1965Z" fill="#30323A"/>
<path d="M20.6619 26.8129C20.6619 27.9482 19.7442 28.8753 18.5995 28.8753C17.4642 28.8753 16.5371 27.9577 16.5371 26.8129C16.5371 25.6777 17.4642 24.7505 18.5995 24.7505C19.7348 24.7505 20.6619 25.6682 20.6619 26.8129Z" fill="#30323A"/>
<path d="M39.4119 26.7739C39.4119 27.9186 38.4942 28.8363 37.3495 28.8363C36.2142 28.8363 35.2871 27.9186 35.2871 26.7739C35.2871 25.6386 36.2048 24.7115 37.3495 24.7115C38.4942 24.7115 39.4119 25.6386 39.4119 26.7739Z" fill="#30323A"/>
<path d="M42.9418 12.3098C42.9418 12.3098 39.6211 9.7365 37.8047 8.88505C37.8047 8.88505 40.8037 6.52937 43.2634 5.56439C43.2634 5.56439 43.2634 9.52837 42.9418 12.3098Z" fill="#F47253"/>
<path d="M42.9433 13.2533C42.7352 13.2533 42.5365 13.1871 42.3662 13.0546C42.3284 13.0262 39.1118 10.5381 37.4089 9.73395C37.1156 9.59204 36.9075 9.30822 36.8696 8.98656C36.8318 8.6649 36.9642 8.34325 37.2291 8.13511C37.3521 8.03105 40.3701 5.68482 42.9339 4.682C43.2271 4.56848 43.5488 4.60632 43.8137 4.77661C44.0691 4.95636 44.23 5.24964 44.23 5.56184C44.23 5.72267 44.23 9.61096 43.8988 12.4113C43.861 12.7519 43.6434 13.0451 43.3217 13.1776C43.1988 13.2344 43.0663 13.2533 42.9433 13.2533ZM39.5564 8.77843C40.4457 9.32714 41.4013 9.99884 42.1581 10.5381C42.2432 9.2893 42.2811 8.01212 42.3095 7.05661C41.2877 7.59586 40.2944 8.2581 39.5564 8.77843Z" fill="#30323A"/>
<path d="M12.4955 12.3088C12.4955 12.3088 15.8161 9.73553 17.6326 8.88408C17.6326 8.88408 14.6336 6.52839 12.1738 5.56342C12.1738 5.56342 12.1738 9.52739 12.4955 12.3088Z" fill="#F47253"/>
<path d="M12.4998 13.2551C12.3768 13.2551 12.2539 13.2268 12.1309 13.1795C11.8187 13.047 11.6011 12.7537 11.5538 12.4131C11.2321 9.60336 11.2227 5.72452 11.2227 5.56369C11.2227 5.25149 11.374 4.95822 11.6389 4.77847C11.8944 4.59872 12.2255 4.56087 12.5188 4.68386C15.0826 5.68668 18.091 8.04236 18.2235 8.13697C18.4789 8.33564 18.6208 8.6573 18.583 8.98842C18.5451 9.31008 18.3465 9.5939 18.0437 9.7358C16.3408 10.54 13.1148 13.0281 13.0769 13.0565C12.9066 13.1889 12.6985 13.2551 12.4998 13.2551ZM13.1432 7.05846C13.1621 8.01398 13.2094 9.29116 13.2945 10.54C14.0419 9.99124 15.0069 9.329 15.8962 8.78029C15.1488 8.25996 14.1554 7.59772 13.1432 7.05846Z" fill="#30323A"/>
<path d="M31.4198 33.4155C31.4198 34.144 30.0196 34.7306 28.2978 34.7306C26.5759 34.7306 25.1758 34.144 25.1758 33.4155C25.1758 32.6871 26.5759 32.1005 28.2978 32.1005C30.0196 32.1005 31.4198 32.6871 31.4198 33.4155Z" fill="#30323A"/>
<path d="M32.0222 39.7813C29.43 39.7813 27.3203 37.8419 27.3203 35.4484C27.3203 34.9281 27.746 34.5023 28.2664 34.5023C28.7867 34.5023 29.2124 34.9281 29.2124 35.4484C29.2124 36.7918 30.4707 37.8892 32.0222 37.8892C33.5737 37.8892 34.832 36.7918 34.832 35.4484C34.832 34.9281 35.2577 34.5023 35.7781 34.5023C36.2984 34.5023 36.7241 34.9281 36.7241 35.4484C36.7241 37.8325 34.6144 39.7813 32.0222 39.7813Z" fill="#30323A"/>
<path d="M24.4851 39.7813C21.8929 39.7813 19.7832 37.8419 19.7832 35.4484C19.7832 34.9281 20.2089 34.5023 20.7293 34.5023C21.2496 34.5023 21.6753 34.9281 21.6753 35.4484C21.6753 36.7918 22.9336 37.8892 24.4851 37.8892C26.0366 37.8892 27.2949 36.7918 27.2949 35.4484C27.2949 34.9281 27.7206 34.5023 28.2409 34.5023C28.7613 34.5023 29.187 34.9281 29.187 35.4484C29.187 37.8325 27.0773 39.7813 24.4851 39.7813Z" fill="#30323A"/>
<path d="M28.2586 36.5459C27.7382 36.5459 27.3125 36.1201 27.3125 35.5998V33.632C27.3125 33.1117 27.7382 32.686 28.2586 32.686C28.7789 32.686 29.2046 33.1117 29.2046 33.632V35.5998C29.2046 36.1201 28.7789 36.5459 28.2586 36.5459Z" fill="#373737"/>
<path d="M64.0948 11.0882H56.2898C55.7695 11.0882 55.3438 10.6625 55.3438 10.1422C55.3438 9.62185 55.7695 9.19612 56.2898 9.19612H64.0948C64.6151 9.19612 65.0408 9.62185 65.0408 10.1422C65.0408 10.6625 64.6151 11.0882 64.0948 11.0882Z" fill="#30323A"/>
<path d="M58.8915 16.7629H56.2898C55.7695 16.7629 55.3438 16.3372 55.3438 15.8169C55.3438 15.2965 55.7695 14.8708 56.2898 14.8708H58.8915C59.4118 14.8708 59.8375 15.2965 59.8375 15.8169C59.8375 16.3372 59.4118 16.7629 58.8915 16.7629Z" fill="#30323A"/>
</svg>
