<svg width="75" height="60" viewBox="0 0 75 60" fill="none" xmlns="http://www.w3.org/2000/svg">
<path d="M40.614 57.1892H61.5268C61.5268 57.1892 60.0956 48.8282 51.6831 42.6501L22.265 43.1547C22.265 43.1547 15.0882 47.4999 13.2656 57.1892H31.3262" fill="white"/>
<path d="M61.962 58H40.7642C40.1902 58 39.7205 57.5534 39.7205 57.0074C39.7205 56.4615 40.1902 56.0149 40.7642 56.0149H60.6156C59.8745 53.6824 57.6201 48.2829 51.6397 43.9851L22.4784 44.4615C21.3512 45.196 16.1848 48.9082 14.3375 56.0149H31.35C31.924 56.0149 32.3937 56.4615 32.3937 57.0074C32.3937 57.5534 31.924 58 31.35 58H13.0433C12.7302 58 12.4379 57.871 12.2396 57.6427C12.0413 57.4144 11.9578 57.1166 12.0204 56.8288C13.9304 47.1613 21.3095 42.8139 21.6226 42.6253C21.7791 42.536 21.9566 42.4864 22.1444 42.4864L51.9632 42C52.1928 42 52.412 42.0596 52.5999 42.1886C61.367 48.3127 62.9222 56.4913 62.9848 56.8387C63.037 57.1266 62.9535 57.4243 62.7552 57.6427C62.5569 57.871 62.2646 58 61.962 58Z" fill="#30323A"/>
<path d="M25.9316 42.7934L39.5852 56.0763H59.9729C59.9729 56.0763 57.512 47.5815 48.8524 41.6608L25.9316 42.7934Z" fill="#C9C9C9"/>
<path d="M61.5268 24.7641C61.5268 37.8823 50.7255 48.5086 37.3911 48.5086C24.067 48.5086 13.2656 37.872 13.2656 24.7641C13.2656 11.646 24.067 1.01965 37.3911 1.01965C50.7152 1.01965 61.5268 11.6563 61.5268 24.7641Z" fill="white"/>
<path d="M37.3934 49.5483C23.5236 49.5483 12.2383 38.438 12.2383 24.7741C12.2383 11.1103 23.5236 0 37.3934 0C51.2632 0 62.5588 11.1103 62.5588 24.7741C62.5588 38.4277 51.2735 49.5483 37.3934 49.5483ZM37.3934 2.04907C24.6562 2.04907 14.2976 12.2429 14.2976 24.7638C14.2976 37.2951 24.6562 47.4786 37.3934 47.4786C50.1306 47.4786 60.4995 37.2848 60.4995 24.7638C60.4995 12.2429 50.1306 2.04907 37.3934 2.04907Z" fill="#30323A"/>
<path d="M29.3209 24.3623C29.3209 25.6288 28.2912 26.6585 27.0247 26.6585C25.7582 26.6585 24.7285 25.6288 24.7285 24.3623C24.7285 23.0958 25.7582 22.0661 27.0247 22.0661C28.2912 22.0661 29.3209 23.0958 29.3209 24.3623Z" fill="#30323A"/>
<path d="M50.235 24.3215C50.235 25.588 49.2053 26.6177 47.9388 26.6177C46.6723 26.6177 45.6426 25.588 45.6426 24.3215C45.6426 23.055 46.6723 22.0253 47.9388 22.0253C49.2053 22.0253 50.235 23.055 50.235 24.3215Z" fill="#30323A"/>
<path d="M60.5186 2.99555C60.5186 2.99555 54.7112 1.65697 51.6222 2.00706C51.6222 2.00706 47.8123 2.8308 49.0686 5.94044C49.0686 5.94044 54.948 19.9441 59.2624 22.7551C59.2624 22.7551 63.2988 26.3899 64.8227 21.2518C64.8227 21.2518 65.6567 12.654 63.515 6.65092C63.5253 6.65092 63.0928 3.96345 60.5186 2.99555Z" fill="#686868"/>
<path d="M62.1143 25.0322C60.4565 25.0322 58.9943 23.879 58.6442 23.5803C54.1342 20.5428 48.368 6.9201 48.1209 6.34348C47.5443 4.92252 47.8223 3.87224 48.1518 3.23384C49.0373 1.55546 51.1584 1.05091 51.3953 0.999428C51.8792 0.937647 52.3014 0.917053 52.775 0.917053C56.0391 0.917053 60.5491 1.94674 60.7345 1.99822C60.7757 2.00852 60.8272 2.01881 60.8683 2.03941C63.6794 3.09998 64.3899 5.79775 64.5031 6.38466C66.6655 12.5319 65.8726 21.0061 65.8417 21.3562C65.8314 21.418 65.8211 21.4901 65.8005 21.5519C64.9665 24.435 63.3293 25.0322 62.1143 25.0322ZM51.7968 3.0279C51.3747 3.13087 50.3347 3.52215 49.9743 4.20174C49.789 4.56213 49.8096 5.00489 50.0361 5.56092C51.6321 9.36044 56.5231 19.7396 59.8387 21.902C59.8799 21.9329 59.921 21.9637 59.9622 21.9946C60.2711 22.2624 61.2596 22.9728 62.1143 22.9728C62.3923 22.9728 63.216 22.9625 63.8132 21.0576C63.8956 20.1 64.4722 12.3774 62.557 6.99218C62.5364 6.93039 62.5158 6.86861 62.5055 6.80683C62.4952 6.72446 62.1246 4.73717 60.2196 3.9855C59.5709 3.84135 54.5667 2.73959 51.7968 3.0279Z" fill="#30323A"/>
<path d="M14.2633 2.99632C14.2633 2.99632 20.0707 1.65773 23.1598 2.00782C23.1598 2.00782 26.9696 2.83157 25.7031 5.94121C25.7031 5.94121 19.8236 19.9449 15.5092 22.7559C15.5092 22.7559 11.4729 26.3907 9.94895 21.2526C9.94895 21.2526 9.11491 12.6547 11.2566 6.65169C11.2566 6.65169 11.6891 3.96422 14.2633 2.99632Z" fill="#686868"/>
<path d="M12.6689 25.0316C11.4539 25.0316 9.8167 24.4241 8.96207 21.541C8.94147 21.4792 8.93117 21.4174 8.92088 21.3454C8.88999 20.985 8.09713 12.521 10.2595 6.3738C10.383 5.78688 11.0832 3.08911 13.8942 2.02854C13.9354 2.00795 13.9766 1.99765 14.0281 1.98735C14.2134 1.94617 18.7234 0.906189 21.9875 0.906189C22.4612 0.906189 22.8834 0.926783 23.2643 0.96797C23.6041 1.04005 25.7253 1.53429 26.6108 3.21268C26.9506 3.84078 27.2183 4.90135 26.652 6.31202C26.4049 6.90923 20.6387 20.5216 16.1287 23.5592C15.7889 23.8784 14.3267 25.0316 12.6689 25.0316ZM10.9699 21.0571C11.5672 22.9723 12.4012 22.9723 12.6689 22.9723C13.5339 22.9723 14.5326 22.2412 14.821 21.9941C14.8621 21.9632 14.9033 21.922 14.9445 21.9014C18.2601 19.7391 23.1511 9.35988 24.7574 5.55005C25.0869 4.7469 24.8706 4.33503 24.7986 4.20117C24.4176 3.48039 23.3055 3.09941 22.9348 3.01704C22.7186 2.99644 22.3582 2.98615 21.9875 2.98615C19.1662 2.98615 15.1299 3.86138 14.5635 3.99523C12.6277 4.7675 12.2776 6.79597 12.2776 6.81656C12.2673 6.87834 12.2468 6.94012 12.2262 7.00191C10.3109 12.3768 10.8876 20.0995 10.9699 21.0571Z" fill="#30323A"/>
<path d="M41.1013 31.8804C41.1013 32.6938 39.5465 33.3425 37.6209 33.3425C35.6954 33.3425 34.1406 32.6835 34.1406 31.8804C34.1406 31.0669 35.6954 30.4182 37.6209 30.4182C39.5465 30.4182 41.1013 31.0772 41.1013 31.8804Z" fill="#30323A"/>
<path d="M41.781 38.9634C38.8979 38.9634 36.5605 36.8114 36.5605 34.1548C36.5605 33.5885 37.0239 33.1251 37.5902 33.1251C38.1566 33.1251 38.6199 33.5885 38.6199 34.1548C38.6199 35.6684 40.0409 36.9041 41.781 36.9041C43.5212 36.9041 44.9422 35.6684 44.9422 34.1548C44.9422 33.5885 45.4055 33.1251 45.9718 33.1251C46.5382 33.1251 47.0015 33.5885 47.0015 34.1548C47.0015 36.8011 44.6538 38.9634 41.781 38.9634Z" fill="#30323A"/>
<path d="M33.3689 38.9634C30.4961 38.9634 28.1484 36.8114 28.1484 34.1548C28.1484 33.5885 28.6118 33.1251 29.1781 33.1251C29.7444 33.1251 30.2078 33.5885 30.2078 34.1548C30.2078 35.6684 31.6288 36.9041 33.3689 36.9041C35.1091 36.9041 36.53 35.6684 36.53 34.1548C36.53 33.5885 36.9934 33.1251 37.5597 33.1251C38.1261 33.1251 38.5894 33.5885 38.5894 34.1548C38.5894 36.8011 36.252 38.9634 33.3689 38.9634Z" fill="#30323A"/>
<path d="M37.5785 35.3489C37.0122 35.3489 36.5488 34.8855 36.5488 34.3192V32.126C36.5488 31.5597 37.0122 31.0963 37.5785 31.0963C38.1448 31.0963 38.6082 31.5597 38.6082 32.126V34.3192C38.6082 34.8958 38.1448 35.3489 37.5785 35.3489Z" fill="#373737"/>
<path d="M29.4695 58.0594H1.02968C0.463357 58.0594 0 57.596 0 57.0297C0 56.4634 0.463357 56 1.02968 56H29.4695C30.0358 56 30.4992 56.4634 30.4992 57.0297C30.4992 57.596 30.0358 58.0594 29.4695 58.0594Z" fill="#FFB100"/>
<path d="M67.596 58H28.418C27.6381 58 27 57.55 27 57C27 56.45 27.6381 56 28.418 56H67.5818C68.3617 56 68.9998 56.45 68.9998 57C69.014 57.55 68.3759 58 67.596 58Z" fill="#FFB100"/>
<path d="M25.1678 53.2442C25.1678 56.4053 22.1818 58.9692 18.5058 58.9692C14.8298 58.9692 11.8438 56.4053 11.8438 53.2442C11.8438 50.0831 14.8298 47.5191 18.5058 47.5191C22.1818 47.5088 25.1678 50.0728 25.1678 53.2442Z" fill="white"/>
<path d="M18.5081 60C14.2658 60 10.8164 56.9727 10.8164 53.2453C10.8164 49.5178 14.2658 46.4906 18.5081 46.4906C22.7504 46.4906 26.1999 49.5178 26.1999 53.2453C26.1999 56.9727 22.7504 60 18.5081 60ZM18.5081 48.5396C15.3985 48.5396 12.8758 50.6505 12.8758 53.235C12.8758 55.8298 15.3985 57.9303 18.5081 57.9303C21.6178 57.9303 24.1405 55.8195 24.1405 53.235C24.1405 50.6505 21.6178 48.5396 18.5081 48.5396Z" fill="#30323A"/>
<path d="M63.5741 53.2442C63.5741 56.4053 60.588 58.9692 56.912 58.9692C53.2361 58.9692 50.25 56.4053 50.25 53.2442C50.25 50.0831 53.2361 47.5191 56.912 47.5191C60.588 47.5088 63.5741 50.0728 63.5741 53.2442Z" fill="white"/>
<path d="M56.9046 60C52.6623 60 49.2129 56.9727 49.2129 53.2453C49.2129 49.5178 52.6623 46.4906 56.9046 46.4906C61.1469 46.4906 64.5963 49.5178 64.5963 53.2453C64.6066 56.9727 61.1469 60 56.9046 60ZM56.9046 48.5396C53.795 48.5396 51.2723 50.6505 51.2723 53.235C51.2723 55.8298 53.795 57.9303 56.9046 57.9303C60.0143 57.9303 62.537 55.8195 62.537 53.235C62.5473 50.6505 60.0143 48.5396 56.9046 48.5396Z" fill="#30323A"/>
<path d="M67.6972 36.3267C67.4089 36.3267 67.1309 36.2032 66.925 35.9767C66.5543 35.5442 66.5955 34.8955 67.0176 34.5248L72.65 29.5926C73.0825 29.2219 73.7312 29.2631 74.1019 29.6853C74.4725 30.1178 74.4314 30.7665 74.0092 31.1371L68.3768 36.0693C68.1812 36.2444 67.9341 36.3267 67.6972 36.3267Z" fill="#30323A"/>
<path d="M72.1758 44.5444C72.114 44.5444 72.0419 44.5341 71.9801 44.5238L69.4471 44.0295C68.8911 43.9163 68.5204 43.3808 68.6337 42.8248C68.7469 42.2688 69.2721 41.8981 69.8384 42.0113L72.3714 42.5056C72.9274 42.6189 73.2981 43.1543 73.1849 43.7103C73.0819 44.2046 72.6597 44.5444 72.1758 44.5444Z" fill="#30323A"/>
<path d="M7.66539 36.3266C7.42856 36.3266 7.18144 36.2442 6.9858 36.0692L1.35344 31.137C0.920975 30.7663 0.879788 30.1073 1.26077 29.6852C1.63146 29.2527 2.29045 29.2115 2.71262 29.5925L8.34498 34.5247C8.77745 34.8954 8.81863 35.5543 8.43765 35.9765C8.23172 36.2133 7.9537 36.3266 7.66539 36.3266Z" fill="#30323A"/>
<path d="M3.18768 44.5444C2.70373 44.5444 2.27126 44.2046 2.17859 43.7103C2.06533 43.1543 2.43601 42.6086 2.99204 42.5056L5.52506 42.0113C6.08109 41.8981 6.62682 42.2688 6.72978 42.8248C6.84305 43.3808 6.47236 43.9266 5.91634 44.0295L3.38332 44.5238C3.32154 44.5444 3.24946 44.5444 3.18768 44.5444Z" fill="#30323A"/>
</svg>
