<svg width="13" height="13" viewBox="0 0 13 13" fill="none" xmlns="http://www.w3.org/2000/svg">
<path d="M6.43875 10.4034L6.375 10.4684L6.30487 10.4034C3.27675 7.6019 1.275 5.7494 1.275 3.8709C1.275 2.5709 2.23125 1.5959 3.50625 1.5959C4.488 1.5959 5.44425 2.2459 5.78212 3.1299H6.96787C7.30575 2.2459 8.262 1.5959 9.24375 1.5959C10.5187 1.5959 11.475 2.5709 11.475 3.8709C11.475 5.7494 9.47325 7.6019 6.43875 10.4034ZM9.24375 0.295898C8.1345 0.295898 7.06987 0.822398 6.375 1.6479C5.68012 0.822398 4.6155 0.295898 3.50625 0.295898C1.54275 0.295898 0 1.8624 0 3.8709C0 6.3214 2.1675 8.3299 5.45062 11.3654L6.375 12.2234L7.29937 11.3654C10.5825 8.3299 12.75 6.3214 12.75 3.8709C12.75 1.8624 11.2072 0.295898 9.24375 0.295898Z" fill="#1F1F1F"/>
</svg>
