<svg width="20" height="20" viewBox="0 0 20 20" fill="none" xmlns="http://www.w3.org/2000/svg">
<path d="M18.1818 14.5455H5.45455V1.81818H18.1818M18.1818 0H5.45455C4.97233 0 4.50987 0.191558 4.1689 0.532533C3.82792 0.873508 3.63636 1.33597 3.63636 1.81818V14.5455C3.63636 15.0277 3.82792 15.4901 4.1689 15.8311C4.50987 16.1721 4.97233 16.3636 5.45455 16.3636H18.1818C18.664 16.3636 19.1265 16.1721 19.4675 15.8311C19.8084 15.4901 20 15.0277 20 14.5455V1.81818C20 1.33597 19.8084 0.873508 19.4675 0.532533C19.1265 0.191558 18.664 0 18.1818 0ZM1.81818 3.63636H0V18.1818C0 18.664 0.191558 19.1265 0.532533 19.4675C0.873508 19.8084 1.33597 20 1.81818 20H16.3636V18.1818H1.81818M13.6 8.44545L11.1 11.6636L9.31818 9.51818L6.81818 12.7273H16.8182L13.6 8.44545Z" fill="#828282"/>
</svg>
