<svg width="35" height="35" viewBox="0 0 35 35" fill="none" xmlns="http://www.w3.org/2000/svg">
<circle cx="17.5" cy="17.5" r="17.5" fill="#D9D9D9"/>
<mask id="mask0_516_9516" style="mask-type:alpha" maskUnits="userSpaceOnUse" x="7" y="6" width="22" height="22">
<path d="M18 6C19.4587 6 20.8576 6.57946 21.8891 7.61091C22.9205 8.64236 23.5 10.0413 23.5 11.5C23.5 12.9587 22.9205 14.3576 21.8891 15.3891C20.8576 16.4205 19.4587 17 18 17C16.5413 17 15.1424 16.4205 14.1109 15.3891C13.0795 14.3576 12.5 12.9587 12.5 11.5C12.5 10.0413 13.0795 8.64236 14.1109 7.61091C15.1424 6.57946 16.5413 6 18 6ZM18 19.75C24.0775 19.75 29 22.2112 29 25.25V28H7V25.25C7 22.2112 11.9225 19.75 18 19.75Z" fill="#828282"/>
</mask>
<g mask="url(#mask0_516_9516)">
<circle cx="18" cy="17" r="15" fill="#4F4F4F"/>
</g>
</svg>
