<svg width="15" height="14" viewBox="0 0 15 14" fill="none" xmlns="http://www.w3.org/2000/svg">
<path d="M3.17587 9.75531C3.26021 9.83905 3.32483 9.94016 3.36514 10.0514C3.40545 10.1627 3.42044 10.2814 3.40906 10.3991C3.35196 10.9436 3.2437 11.4817 3.08569 12.0064C4.21912 11.7468 4.91138 11.4463 5.22581 11.2887C5.40416 11.1994 5.60955 11.1782 5.80269 11.2293C6.35635 11.3753 6.927 11.4488 7.5 11.4479C10.7467 11.4479 13.1875 9.19193 13.1875 6.62577C13.1875 4.06042 10.7467 1.80368 7.5 1.80368C4.25325 1.80368 1.8125 4.06042 1.8125 6.62577C1.8125 7.80558 2.31381 8.90019 3.17587 9.75531ZM2.77531 12.8937C2.58281 12.9314 2.38967 12.966 2.196 12.9974C2.0335 13.0231 1.91 12.8559 1.97419 12.7064C2.04633 12.5381 2.11246 12.3674 2.17244 12.1945L2.17488 12.1864C2.37637 11.6078 2.5405 10.9423 2.60063 10.3227C1.60369 9.33418 1 8.04025 1 6.62577C1 3.51874 3.91037 1 7.5 1C11.0896 1 14 3.51874 14 6.62577C14 9.73281 11.0896 12.2515 7.5 12.2515C6.85622 12.2524 6.2151 12.1697 5.59306 12.0056C5.17056 12.217 4.26137 12.6019 2.77531 12.8937Z" fill="#1F1F1F" stroke="#2C3131" stroke-width="0.5"/>
</svg>
