<svg width="31" height="26" viewBox="0 0 31 26" fill="none" xmlns="http://www.w3.org/2000/svg">
<path d="M24.302 19.038V15.204H20.684V13.332H24.302V9.498H26.282V13.332H29.918V15.204H26.282V19.038H24.302Z" fill="#1F1F1F"/>
<path d="M11 3.76929C12.4587 3.76929 13.8576 4.34875 14.8891 5.3802C15.9205 6.41165 16.5 7.8106 16.5 9.26929C16.5 10.728 15.9205 12.1269 14.8891 13.1584C13.8576 14.1898 12.4587 14.7693 11 14.7693C9.54131 14.7693 8.14236 14.1898 7.11091 13.1584C6.07946 12.1269 5.5 10.728 5.5 9.26929C5.5 7.8106 6.07946 6.41165 7.11091 5.3802C8.14236 4.34875 9.54131 3.76929 11 3.76929ZM11 17.5193C17.0775 17.5193 22 19.9805 22 23.0193V25.7693H0V23.0193C0 19.9805 4.9225 17.5193 11 17.5193Z" fill="#1F1F1F"/>
</svg>
