<svg width="30" height="30" viewBox="0 0 30 30" fill="none" xmlns="http://www.w3.org/2000/svg">
<g clip-path="url(#clip0_153_4088)">
<path d="M28.4125 28.4125L3.4625 3.46252L2.5 2.50002L1.5875 1.58752L0 3.17502L5.4875 8.66252L8.25 14.4875L6.5625 17.55C6.3625 17.9 6.25 18.3125 6.25 18.75C6.25 20.125 7.375 21.25 8.75 21.25H18.075L19.8 22.975C19.175 23.425 18.7625 24.1625 18.7625 25C18.7625 26.375 19.875 27.5 21.25 27.5C22.0875 27.5 22.825 27.0875 23.275 26.45L26.825 30L28.4125 28.4125ZM9.275 18.75C9.1 18.75 8.9625 18.6125 8.9625 18.4375L9 18.2875L10.125 16.25H13.075L15.575 18.75H9.275ZM19.4375 16.25C20.375 16.25 21.2 15.7375 21.625 14.9625L26.1 6.85002C26.2 6.67502 26.25 6.46252 26.25 6.25002C26.25 5.56252 25.6875 5.00002 25 5.00002H8.175L19.4375 16.25ZM8.75 22.5C7.375 22.5 6.2625 23.625 6.2625 25C6.2625 26.375 7.375 27.5 8.75 27.5C10.125 27.5 11.25 26.375 11.25 25C11.25 23.625 10.125 22.5 8.75 22.5Z" fill="#FFB100"/>
</g>
<defs>
<clipPath id="clip0_153_4088">
<rect width="30" height="30" fill="white"/>
</clipPath>
</defs>
</svg>
