<svg width="16" height="18" viewBox="0 0 16 18" fill="none" xmlns="http://www.w3.org/2000/svg">
<path d="M8.88889 4.5H13.3333V6.5H8.88889V4.5ZM8.88889 11.5H13.3333V13.5H8.88889V11.5ZM14.2222 0C14.6937 0 15.1459 0.210714 15.4793 0.585786C15.8127 0.960859 16 1.46957 16 2V16C16 16.5304 15.8127 17.0391 15.4793 17.4142C15.1459 17.7893 14.6937 18 14.2222 18H1.77778C1.30628 18 0.854097 17.7893 0.520699 17.4142C0.187301 17.0391 0 16.5304 0 16V2C0 1.46957 0.187301 0.960859 0.520699 0.585786C0.854097 0.210714 1.30628 0 1.77778 0H14.2222ZM14.2222 16V2H1.77778V16H14.2222ZM7.11111 3V8H2.66667V3H7.11111ZM6.22222 7V4H3.55556V7H6.22222ZM7.11111 10V15H2.66667V10H7.11111ZM6.22222 14V11H3.55556V14H6.22222Z" fill="white"/>
</svg>
