<svg width="37" height="37" viewBox="0 0 37 37" fill="none" xmlns="http://www.w3.org/2000/svg">
<path d="M27.1587 19.399C27.2914 19.399 27.4147 19.4559 27.519 19.5602L28.7328 20.774C28.9414 20.9732 28.9414 21.3051 28.7328 21.5042L27.7845 22.4525L25.8406 20.5085L26.7888 19.5602C26.8931 19.4559 27.0259 19.399 27.1587 19.399ZM25.2906 21.0585L27.2345 23.0025L21.488 28.7585H19.5345V26.8051L25.2906 21.0585ZM17.638 25.9137L15.7414 27.8102H11.9483C10.9052 27.8102 10.0518 26.9568 10.0518 25.9137V12.6378C10.0518 11.5947 10.9052 10.7413 11.9483 10.7413H15.9121C16.3104 9.64128 17.3535 8.84473 18.5862 8.84473C19.819 8.84473 20.8621 9.64128 21.2604 10.7413H25.2242C26.2673 10.7413 27.1207 11.5947 27.1207 12.6378V16.4309L25.2242 18.3275V12.6378H23.3276V14.5344H13.8449V12.6378H11.9483V25.9137H17.638ZM18.5862 10.7413C18.0647 10.7413 17.638 11.168 17.638 11.6896C17.638 12.2111 18.0647 12.6378 18.5862 12.6378C19.1078 12.6378 19.5345 12.2111 19.5345 11.6896C19.5345 11.168 19.1078 10.7413 18.5862 10.7413Z" fill="#8A6F4E"/>
<circle cx="18.5" cy="18.5" r="17.5" stroke="#8A6F4E" stroke-width="2"/>
</svg>
