<?xml version="1.0" encoding="utf-8"?>
<!-- Generator: Adobe Illustrator 27.6.1, SVG Export Plug-In . SVG Version: 6.00 Build 0)  -->
<svg version="1.1" id="Layer_1" xmlns="http://www.w3.org/2000/svg" xmlns:xlink="http://www.w3.org/1999/xlink" x="0px" y="0px"
	 viewBox="0 0 74 64" style="enable-background:new 0 0 74 64;" xml:space="preserve">
<style type="text/css">
	.st0{fill:#FFFFFF;}
	.st1{fill:#30323A;}
	.st2{fill:#C9C9C9;}
	.st3{fill:#F47253;}
	.st4{fill:#373737;}
</style>
<g>
	<g>
		<path class="st0" d="M37.84,60.98h20.4c0,0-1.39-8.12-9.56-14.12l-28.57,0.49c0,0-6.97,4.22-8.74,13.63h18.16"/>
		<path class="st1" d="M58.25,61.98h-20.4c-0.55,0-1-0.45-1-1c0-0.55,0.45-1,1-1h19.12c-0.71-2.35-2.87-7.79-8.6-12.12l-27.94,0.48
			c-1.08,0.74-6.03,4.48-7.8,11.64h16.92c0.55,0,1,0.45,1,1c0,0.55-0.45,1-1,1H11.38c-0.3,0-0.58-0.13-0.77-0.36
			c-0.19-0.23-0.27-0.53-0.21-0.82c1.83-9.74,8.9-14.12,9.2-14.31c0.15-0.09,0.32-0.14,0.5-0.14l28.57-0.49
			c0.21,0.01,0.43,0.06,0.61,0.19c8.4,6.17,9.89,14.41,9.95,14.76c0.05,0.29-0.03,0.59-0.22,0.81
			C58.82,61.85,58.54,61.98,58.25,61.98z"/>
	</g>
	<path class="st1" d="M28.78,61.98H1.34c-0.55,0-1-0.45-1-1c0-0.55,0.45-1,1-1h27.44c0.55,0,1,0.45,1,1
		C29.78,61.53,29.33,61.98,28.78,61.98z"/>
	<path class="st1" d="M64.41,61.98H36.97c-0.55,0-1-0.45-1-1c0-0.55,0.45-1,1-1h27.44c0.55,0,1,0.45,1,1
		C65.41,61.53,64.96,61.98,64.41,61.98z"/>
	<g>
		<path class="st0" d="M22.94,57.15c0,3.07-2.9,5.56-6.47,5.56S10,60.22,10,57.15c0-3.07,2.9-5.56,6.47-5.56
			S22.94,54.08,22.94,57.15z"/>
		<path class="st1" d="M16.47,63.71c-4.12,0-7.47-2.94-7.47-6.56c0-3.62,3.35-6.56,7.47-6.56c4.12,0,7.47,2.94,7.47,6.56
			C23.94,60.77,20.59,63.71,16.47,63.71z M16.47,52.59c-3.02,0-5.47,2.05-5.47,4.56c0,2.52,2.45,4.56,5.47,4.56
			c3.02,0,5.47-2.05,5.47-4.56C21.94,54.63,19.48,52.59,16.47,52.59z"/>
	</g>
	<path class="st2" d="M23.68,47.04l12.98,12.9h20.07c0,0-2.38-8.25-10.8-14L23.68,47.04z"/>
	<g>
		<path class="st0" d="M60.23,57.15c0,3.07-2.9,5.56-6.47,5.56c-3.57,0-6.47-2.49-6.47-5.56c0-3.07,2.9-5.56,6.47-5.56
			C57.33,51.59,60.23,54.08,60.23,57.15z"/>
		<path class="st1" d="M53.76,63.71c-4.12,0-7.47-2.94-7.47-6.56c0-3.62,3.35-6.56,7.47-6.56c4.12,0,7.47,2.94,7.47,6.56
			C61.23,60.77,57.88,63.71,53.76,63.71z M53.76,52.59c-3.02,0-5.47,2.05-5.47,4.56c0,2.52,2.45,4.56,5.47,4.56
			c3.02,0,5.47-2.05,5.47-4.56C59.23,54.63,56.78,52.59,53.76,52.59z"/>
	</g>
	<g>
		<path class="st0" d="M53.92,16.01c1.52-8.75,0.22-14.72,0.22-14.72c-4.7,0-10.98,4.12-13.35,5.8c-2.06-0.55-4.23-0.85-6.48-0.85
			c-2.36,0-4.64,0.33-6.8,0.94c-2.28-1.63-8.7-5.89-13.47-5.89c0,0-1.34,6.2,0.31,15.22c-2.44,3.55-3.87,7.79-3.87,12.34
			c0,12.49,10.67,22.61,23.83,22.61c13.16,0,23.83-10.12,23.83-22.61C58.14,24.08,56.58,19.66,53.92,16.01z"/>
		<path class="st1" d="M34.31,52.46c-13.69,0-24.83-10.59-24.83-23.61c0-4.46,1.32-8.8,3.81-12.56c-1.56-8.89-0.29-14.95-0.23-15.21
			c0.1-0.46,0.51-0.79,0.98-0.79c4.78,0,10.89,3.85,13.67,5.8c4.2-1.1,8.68-1.13,12.89-0.08c2.75-1.91,8.82-5.72,13.55-5.72
			c0.47,0,0.88,0.33,0.98,0.79c0.05,0.25,1.28,6.08-0.14,14.69c2.72,3.88,4.16,8.4,4.16,13.08C59.14,41.87,48,52.46,34.31,52.46z
			 M14.88,2.33c-0.28,1.95-0.79,7.17,0.46,13.99c0.05,0.26-0.01,0.53-0.16,0.75c-2.41,3.51-3.69,7.58-3.69,11.78
			c0,11.92,10.24,21.61,22.83,21.61c12.59,0,22.83-9.69,22.83-21.61c0-4.4-1.39-8.64-4.03-12.25c-0.16-0.22-0.22-0.49-0.18-0.76
			c1.14-6.61,0.65-11.61,0.37-13.5c-4.43,0.46-10.2,4.33-11.94,5.57c-0.24,0.17-0.55,0.23-0.84,0.15
			c-4.16-1.12-8.61-1.09-12.75,0.08c-0.29,0.08-0.61,0.03-0.85-0.15C25.17,6.73,19.36,2.8,14.88,2.33z"/>
	</g>
	<path class="st1" d="M52.48,32.17c-0.52,0-0.96-0.4-1-0.93c-0.04-0.55,0.38-1.03,0.93-1.07l10.63-0.74
		c0.54-0.03,1.03,0.38,1.07,0.93c0.04,0.55-0.38,1.03-0.93,1.07l-10.63,0.74C52.52,32.17,52.5,32.17,52.48,32.17z"/>
	<path class="st1" d="M61.46,38.55c-0.07,0-0.14-0.01-0.22-0.02l-9.46-2.08c-0.54-0.12-0.88-0.65-0.76-1.19
		c0.12-0.54,0.65-0.88,1.19-0.76l9.46,2.08c0.54,0.12,0.88,0.65,0.76,1.19C62.33,38.23,61.92,38.55,61.46,38.55z"/>
	<path class="st1" d="M16.54,32.17c-0.02,0-0.05,0-0.07,0L5.84,31.43c-0.55-0.04-0.97-0.52-0.93-1.07c0.04-0.55,0.52-0.96,1.07-0.93
		l10.63,0.74c0.55,0.04,0.97,0.52,0.93,1.07C17.5,31.77,17.06,32.17,16.54,32.17z"/>
	<path class="st1" d="M7.55,38.55c-0.46,0-0.87-0.32-0.98-0.78c-0.12-0.54,0.22-1.07,0.76-1.19l9.46-2.08
		c0.54-0.12,1.07,0.22,1.19,0.76c0.12,0.54-0.22,1.07-0.76,1.19l-9.46,2.08C7.7,38.54,7.63,38.55,7.55,38.55z"/>
	<path class="st1" d="M26.75,28.63c0,1.2-0.97,2.18-2.18,2.18c-1.2,0-2.18-0.97-2.18-2.18c0-1.2,0.98-2.18,2.18-2.18
		C25.77,26.45,26.75,27.42,26.75,28.63z"/>
	<path class="st1" d="M46.57,28.59c0,1.21-0.97,2.18-2.18,2.18c-1.2,0-2.18-0.97-2.18-2.18c0-1.2,0.97-2.18,2.18-2.18
		C45.6,26.41,46.57,27.39,46.57,28.59z"/>
	<g>
		<path class="st3" d="M50.3,13.3c0,0-3.51-2.72-5.43-3.62c0,0,3.17-2.49,5.77-3.51C50.64,6.17,50.64,10.36,50.3,13.3z"/>
		<path class="st1" d="M50.3,14.3c-0.22,0-0.43-0.07-0.61-0.21c-0.04-0.03-3.44-2.66-5.24-3.51c-0.31-0.15-0.53-0.45-0.57-0.79
			c-0.04-0.34,0.1-0.68,0.38-0.9c0.13-0.11,3.32-2.59,6.03-3.65c0.31-0.12,0.65-0.08,0.93,0.1c0.27,0.19,0.44,0.5,0.44,0.83
			c0,0.17,0,4.28-0.35,7.24c-0.04,0.36-0.27,0.67-0.61,0.81C50.57,14.28,50.43,14.3,50.3,14.3z M46.72,9.57
			c0.94,0.58,1.95,1.29,2.75,1.86c0.09-1.32,0.13-2.67,0.16-3.68C48.55,8.32,47.5,9.02,46.72,9.57z"/>
	</g>
	<g>
		<path class="st3" d="M18.12,13.3c0,0,3.51-2.72,5.43-3.62c0,0-3.17-2.49-5.77-3.51C17.78,6.17,17.78,10.36,18.12,13.3z"/>
		<path class="st1" d="M18.12,14.3c-0.13,0-0.26-0.03-0.39-0.08c-0.33-0.14-0.56-0.45-0.61-0.81c-0.34-2.97-0.35-7.07-0.35-7.24
			c0-0.33,0.16-0.64,0.44-0.83c0.27-0.19,0.62-0.23,0.93-0.1c2.71,1.06,5.89,3.55,6.03,3.65c0.27,0.21,0.42,0.55,0.38,0.9
			c-0.04,0.34-0.25,0.64-0.57,0.79c-1.8,0.85-5.21,3.48-5.25,3.51C18.55,14.23,18.33,14.3,18.12,14.3z M18.8,7.75
			c0.02,1.01,0.07,2.36,0.16,3.68c0.79-0.58,1.81-1.28,2.75-1.86C20.92,9.02,19.87,8.32,18.8,7.75z"/>
	</g>
	<g>
		<path class="st1" d="M38.12,35.61c0,0.77-1.48,1.39-3.3,1.39c-1.82,0-3.3-0.62-3.3-1.39c0-0.77,1.48-1.39,3.3-1.39
			C36.64,34.22,38.12,34.84,38.12,35.61z"/>
		<path class="st1" d="M38.76,42.34c-2.74,0-4.97-2.05-4.97-4.58c0-0.55,0.45-1,1-1s1,0.45,1,1c0,1.42,1.33,2.58,2.97,2.58
			c1.64,0,2.97-1.16,2.97-2.58c0-0.55,0.45-1,1-1c0.55,0,1,0.45,1,1C43.73,40.28,41.5,42.34,38.76,42.34z"/>
		<path class="st1" d="M30.79,42.34c-2.74,0-4.97-2.05-4.97-4.58c0-0.55,0.45-1,1-1c0.55,0,1,0.45,1,1c0,1.42,1.33,2.58,2.97,2.58
			c1.64,0,2.97-1.16,2.97-2.58c0-0.55,0.45-1,1-1c0.55,0,1,0.45,1,1C35.76,40.28,33.53,42.34,30.79,42.34z"/>
		<g>
			<line class="st0" x1="34.78" y1="37.92" x2="34.78" y2="35.84"/>
			<path class="st4" d="M34.78,38.92c-0.55,0-1-0.45-1-1v-2.08c0-0.55,0.45-1,1-1s1,0.45,1,1v2.08
				C35.78,38.47,35.33,38.92,34.78,38.92z"/>
		</g>
	</g>
	<path class="st1" d="M72.66,12.01h-8.25c-0.55,0-1-0.45-1-1c0-0.55,0.45-1,1-1h8.25c0.55,0,1,0.45,1,1
		C73.66,11.56,73.21,12.01,72.66,12.01z"/>
	<path class="st1" d="M67.16,18.01h-2.75c-0.55,0-1-0.45-1-1c0-0.55,0.45-1,1-1h2.75c0.55,0,1,0.45,1,1
		C68.16,17.56,67.71,18.01,67.16,18.01z"/>
</g>
</svg>
