<svg width="37" height="37" viewBox="0 0 37 37" fill="none" xmlns="http://www.w3.org/2000/svg">
<circle cx="18.5" cy="18.5" r="17.5" stroke="#8A6F4E" stroke-width="2"/>
<path d="M15.65 29C15.08 29 14.7 28.62 14.7 28.05V25.2H10.9C9.855 25.2 9 24.345 9 23.3V11.9C9 10.855 9.855 10 10.9 10H26.1C27.145 10 28 10.855 28 11.9V23.3C28 24.345 27.145 25.2 26.1 25.2H20.305L16.79 28.715C16.6 28.905 16.41 29 16.125 29H15.65ZM16.6 23.3V26.245L19.545 23.3H26.1V11.9H10.9V23.3H16.6ZM22.585 13.8L21.255 16.65H23.25V20.45H19.45V16.46L20.685 13.8H22.585ZM16.885 13.8L15.555 16.65H17.55V20.45H13.75V16.46L14.985 13.8H16.885Z" fill="#8A6F4E"/>
</svg>
