<svg width="37" height="37" viewBox="0 0 37 37" fill="none" xmlns="http://www.w3.org/2000/svg">
<circle cx="18.5" cy="18.5" r="17.5" stroke="#8A6F4E" stroke-width="2"/>
<path d="M18.5 29C18.2709 29 18.0513 28.909 17.8893 28.747C17.7274 28.5851 17.6364 28.3654 17.6364 28.1364V25.5455H14.1818C13.7237 25.5455 13.2844 25.3635 12.9605 25.0395C12.6365 24.7156 12.4545 24.2763 12.4545 23.8182V15.1818C12.4545 14.2232 13.2318 13.4545 14.1818 13.4545H26.2727C26.7308 13.4545 27.1702 13.6365 27.4941 13.9605C27.818 14.2844 28 14.7237 28 15.1818V23.8182C28 24.2763 27.818 24.7156 27.4941 25.0395C27.1702 25.3635 26.7308 25.5455 26.2727 25.5455H22.7318L19.5364 28.7495C19.3636 28.9136 19.1477 29 18.9318 29H18.5ZM19.3636 23.8182V26.4782L22.0236 23.8182H26.2727V15.1818H14.1818V23.8182H19.3636ZM10.7273 22.0909H9V11.7273C9 11.2692 9.18198 10.8298 9.50591 10.5059C9.82983 10.182 10.2692 10 10.7273 10H24.5455V11.7273H10.7273V22.0909Z" fill="#8A6F4E"/>
</svg>
