<svg width="37" height="37" viewBox="0 0 37 37" fill="none" xmlns="http://www.w3.org/2000/svg">
<circle cx="18.5" cy="18.5" r="17.5" stroke="#8A6F4E" stroke-width="2"/>
<path d="M15.65 29C15.398 29 15.1564 28.8999 14.9782 28.7218C14.8001 28.5436 14.7 28.302 14.7 28.05V25.2H10.9C10.3961 25.2 9.91282 24.9998 9.5565 24.6435C9.20018 24.2872 9 23.8039 9 23.3V11.9C9 10.8455 9.855 10 10.9 10H26.1C26.6039 10 27.0872 10.2002 27.4435 10.5565C27.7998 10.9128 28 11.3961 28 11.9V23.3C28 23.8039 27.7998 24.2872 27.4435 24.6435C27.0872 24.9998 26.6039 25.2 26.1 25.2H20.305L16.79 28.7245C16.6 28.905 16.3625 29 16.125 29H15.65ZM16.6 23.3V26.226L19.526 23.3H26.1V11.9H10.9V23.3H16.6ZM12.8 14.75H24.2V16.65H12.8V14.75ZM12.8 18.55H21.35V20.45H12.8V18.55Z" fill="#8A6F4E"/>
</svg>
