<svg width="16" height="16" viewBox="0 0 16 16" fill="none" xmlns="http://www.w3.org/2000/svg">
<path d="M15.0545 12.0727V11.3455L15.8545 10.7636C15.9273 10.6909 16 10.6182 15.9273 10.5455L15.2 9.30909C15.2 9.23636 15.0545 9.23636 14.9818 9.23636L14.1091 9.6C13.8909 9.45454 13.6727 9.30909 13.4545 9.23636L13.3091 8.29091C13.3091 8.21818 13.2364 8.14545 13.1636 8.14545H11.7091C11.5636 8.14545 11.4909 8.21818 11.4909 8.29091L11.3455 9.23636C11.1273 9.38182 10.9818 9.45454 10.7636 9.6L9.89091 9.23636C9.81818 9.23636 9.74545 9.23636 9.67273 9.30909L8.94545 10.5455C8.94545 10.6182 8.94545 10.6909 9.01818 10.7636L9.81818 11.3455V12.0727L9.01818 12.6545C8.94545 12.7273 8.87273 12.8 8.94545 12.8727L9.67273 14.1091C9.74545 14.1818 9.81818 14.1818 9.89091 14.1818L10.7636 13.8182C10.9091 13.9636 11.1273 14.1091 11.3455 14.1818L11.4909 15.1273C11.5636 15.2 11.6364 15.2727 11.7091 15.2727H13.1636C13.2364 15.2727 13.3091 15.2 13.3091 15.1273L13.4545 14.1818C13.6727 14.0364 13.8182 13.9636 14.0364 13.8182L14.9091 14.1091C14.9818 14.1091 15.0545 14.1091 15.1273 14.0364L15.8545 12.8C15.9273 12.7273 15.9273 12.6545 15.8545 12.6545L15.0545 12.0727ZM12.3636 12.7273C11.7818 12.7273 11.2727 12.2182 11.2727 11.6364C11.2727 11.0545 11.7818 10.5455 12.3636 10.5455C12.9455 10.5455 13.4545 11.0545 13.4545 11.6364C13.4545 12.2182 12.9455 12.7273 12.3636 12.7273ZM8.21818 14.5455H1.45455C0.654545 14.5455 0 13.8909 0 13.0909V1.45455C0 0.654545 0.654545 0 1.45455 0H14.5455C15.3455 0 16 0.654545 16 1.45455V8.07273C15.5636 7.63636 15.0545 7.27273 14.5455 7.05454V2.90909H1.45455V13.0909H7.49091C7.63636 13.6 7.85455 14.1091 8.21818 14.5455Z" fill="white"/>
</svg>
