<svg width="120" height="120" viewBox="0 0 120 120" fill="none" xmlns="http://www.w3.org/2000/svg">
<circle cx="60" cy="60" r="60" fill="#DED4C7"/>
<mask id="mask0_513_6509" style="mask-type:alpha" maskUnits="userSpaceOnUse" x="0" y="0" width="120" height="120">
<circle cx="60" cy="60" r="60" fill="#D9D9D9"/>
</mask>
<g mask="url(#mask0_513_6509)">
<path d="M59.9999 21.4287C66.8197 21.4287 73.3602 24.1617 78.1826 29.0263C83.005 33.891 85.7141 40.4889 85.7141 47.3686C85.7141 54.2482 83.005 60.8461 78.1826 65.7108C73.3602 70.5755 66.8197 73.3084 59.9999 73.3084C53.18 73.3084 46.6395 70.5755 41.8171 65.7108C36.9948 60.8461 34.2856 54.2482 34.2856 47.3686C34.2856 40.4889 36.9948 33.891 41.8171 29.0263C46.6395 24.1617 53.18 21.4287 59.9999 21.4287ZM59.9999 77.143C88.4142 77.143 111.428 95.3948 111.428 109.727V120H8.57129V109.727C8.57129 95.3948 31.5856 77.143 59.9999 77.143Z" fill="#8A6F4E"/>
</g>
</svg>
