<svg width="16" height="12" viewBox="0 0 16 12" fill="none" xmlns="http://www.w3.org/2000/svg">
<path d="M13.6 8C14.04 8 14.4 8.36 14.4 8.8C14.4 9.24 14.04 9.6 13.6 9.6C13.16 9.6 12.8 9.24 12.8 8.8C12.8 8.36 13.16 8 13.6 8ZM13.6 6.4C12.272 6.4 11.2 7.472 11.2 8.8C11.2 10.128 12.272 11.2 13.6 11.2C14.928 11.2 16 10.128 16 8.8C16 7.472 14.928 6.4 13.6 6.4ZM6.4 0.8H2.4V2.4H6.4V0.8ZM12 0H9.6V1.6H12V3.72L9.2 7.2H6.4V3.2H3.2C1.432 3.2 0 4.632 0 6.4V8.8H1.6C1.6 10.128 2.672 11.2 4 11.2C5.328 11.2 6.4 10.128 6.4 8.8H10L13.6 4.28V1.6C13.6 0.72 12.888 0 12 0ZM4 9.6C3.56 9.6 3.2 9.24 3.2 8.8H4.8C4.8 9.24 4.44 9.6 4 9.6Z" fill="white"/>
</svg>
