<?xml version="1.0" encoding="utf-8"?>
<!-- Generator: Adobe Illustrator 27.6.1, SVG Export Plug-In . SVG Version: 6.00 Build 0)  -->
<svg version="1.1" id="Layer_1" xmlns="http://www.w3.org/2000/svg" xmlns:xlink="http://www.w3.org/1999/xlink" x="0px" y="0px"
	 viewBox="0 0 72 59" style="enable-background:new 0 0 72 59;" xml:space="preserve">
<style type="text/css">
	.st0{fill:#FFFFFF;}
	.st1{fill:#30323A;}
	.st2{fill:#C9C9C9;}
	.st3{fill:#686868;}
	.st4{fill:#373737;}
</style>
<g>
	<g>
		<path class="st0" d="M38.85,55.91h20.31c0,0-1.39-8.12-9.56-14.12l-28.57,0.49c0,0-6.97,4.22-8.74,13.63h17.54"/>
		<path class="st1" d="M59.16,56.91H38.85c-0.55,0-1-0.45-1-1c0-0.55,0.45-1,1-1h19.02c-0.71-2.35-2.87-7.79-8.6-12.12l-27.94,0.48
			c-1.08,0.74-6.03,4.48-7.8,11.64h16.3c0.55,0,1,0.45,1,1c0,0.55-0.45,1-1,1H12.29c-0.3,0-0.58-0.13-0.77-0.36
			c-0.19-0.23-0.27-0.53-0.21-0.82c1.83-9.74,8.9-14.12,9.2-14.31c0.15-0.09,0.32-0.14,0.5-0.14l28.57-0.49
			c0.22,0,0.43,0.06,0.61,0.19c8.4,6.17,9.89,14.41,9.95,14.76c0.05,0.29-0.03,0.59-0.22,0.81C59.73,56.78,59.45,56.91,59.16,56.91z
			"/>
	</g>
	<path class="st2" d="M24.59,41.93l13.26,12.9h19.8c0,0-2.39-8.25-10.8-14L24.59,41.93z"/>
	<g>
		<path class="st0" d="M59.16,24.42c0,12.74-10.49,23.06-23.44,23.06c-12.94,0-23.43-10.33-23.43-23.06
			c0-12.74,10.49-23.06,23.43-23.06C48.66,1.36,59.16,11.69,59.16,24.42z"/>
		<path class="st1" d="M35.72,48.49c-13.47,0-24.43-10.79-24.43-24.06c0-13.27,10.96-24.06,24.43-24.06
			c13.47,0,24.44,10.79,24.44,24.06C60.16,37.69,49.2,48.49,35.72,48.49z M35.72,2.36c-12.37,0-22.43,9.9-22.43,22.06
			c0,12.17,10.06,22.06,22.43,22.06c12.37,0,22.44-9.9,22.44-22.06C58.16,12.26,48.09,2.36,35.72,2.36z"/>
	</g>
	<path class="st1" d="M27.88,24.03c0,1.23-1,2.23-2.23,2.23c-1.23,0-2.23-1-2.23-2.23c0-1.23,1-2.23,2.23-2.23
		C26.88,21.8,27.88,22.8,27.88,24.03z"/>
	<path class="st1" d="M48.19,23.99c0,1.23-1,2.23-2.23,2.23c-1.23,0-2.23-1-2.23-2.23c0-1.23,1-2.23,2.23-2.23
		C47.19,21.76,48.19,22.76,48.19,23.99z"/>
	<g>
		<path class="st3" d="M58.18,3.28c0,0-5.64-1.3-8.64-0.96c0,0-3.7,0.8-2.48,3.82c0,0,5.71,13.6,9.9,16.33c0,0,3.92,3.53,5.4-1.46
			c0,0,0.81-8.35-1.27-14.18C61.1,6.83,60.68,4.22,58.18,3.28z"/>
		<path class="st1" d="M59.73,24.68L59.73,24.68c-1.61,0-3.03-1.12-3.37-1.41c-4.38-2.95-9.98-16.18-10.22-16.74
			c-0.56-1.38-0.29-2.4,0.03-3.02c0.86-1.63,2.92-2.12,3.15-2.17c0.47-0.06,0.88-0.08,1.34-0.08c3.17,0,7.55,1,7.73,1.05
			c0.04,0.01,0.09,0.02,0.13,0.04c2.73,1.03,3.42,3.65,3.53,4.22c2.1,5.97,1.33,14.2,1.3,14.54c-0.01,0.06-0.02,0.13-0.04,0.19
			C62.5,24.1,60.91,24.68,59.73,24.68z M49.71,3.31c-0.41,0.1-1.42,0.48-1.77,1.14C47.76,4.8,47.78,5.23,48,5.77
			c1.55,3.69,6.3,13.77,9.52,15.87c0.04,0.03,0.08,0.06,0.12,0.09c0.3,0.26,1.26,0.95,2.09,0.95c0,0,0,0,0,0
			c0.27,0,1.07-0.01,1.65-1.86c0.08-0.93,0.64-8.43-1.22-13.66c-0.02-0.06-0.04-0.12-0.05-0.18c-0.01-0.08-0.37-2.01-2.22-2.74
			C57.26,4.1,52.4,3.03,49.71,3.31z"/>
	</g>
	<g>
		<path class="st3" d="M13.26,3.28c0,0,5.64-1.3,8.64-0.96c0,0,3.7,0.8,2.47,3.82c0,0-5.71,13.6-9.9,16.33c0,0-3.92,3.53-5.4-1.46
			c0,0-0.81-8.35,1.27-14.18C10.34,6.83,10.76,4.22,13.26,3.28z"/>
		<path class="st1" d="M11.71,24.68c-1.18,0-2.77-0.59-3.6-3.39c-0.02-0.06-0.03-0.12-0.04-0.19c-0.03-0.35-0.8-8.57,1.3-14.54
			c0.12-0.57,0.8-3.19,3.53-4.22c0.04-0.02,0.08-0.03,0.13-0.04c0.18-0.04,4.56-1.05,7.73-1.05c0.46,0,0.87,0.02,1.24,0.06
			c0.33,0.07,2.39,0.55,3.25,2.18c0.33,0.61,0.59,1.64,0.04,3.01c-0.24,0.58-5.84,13.8-10.22,16.75
			C14.74,23.56,13.32,24.68,11.71,24.68z M10.06,20.82c0.58,1.86,1.39,1.86,1.65,1.86c0.84,0,1.81-0.71,2.09-0.95
			c0.04-0.03,0.08-0.07,0.12-0.09c3.22-2.1,7.97-12.18,9.53-15.88c0.32-0.78,0.11-1.18,0.04-1.31c-0.37-0.7-1.45-1.07-1.81-1.15
			c-0.21-0.02-0.56-0.03-0.92-0.03c-2.74,0-6.66,0.85-7.21,0.98c-1.88,0.75-2.22,2.72-2.22,2.74c-0.01,0.06-0.03,0.12-0.05,0.18
			C9.42,12.39,9.98,19.89,10.06,20.82z"/>
	</g>
	<g>
		<path class="st1" d="M39.32,31.33c0,0.79-1.51,1.42-3.38,1.42c-1.87,0-3.38-0.64-3.38-1.42c0-0.79,1.51-1.42,3.38-1.42
			C37.81,29.91,39.32,30.55,39.32,31.33z"/>
		<path class="st1" d="M39.98,38.21c-2.8,0-5.07-2.09-5.07-4.67c0-0.55,0.45-1,1-1s1,0.45,1,1c0,1.47,1.38,2.67,3.07,2.67
			c1.69,0,3.07-1.2,3.07-2.67c0-0.55,0.45-1,1-1c0.55,0,1,0.45,1,1C45.05,36.11,42.77,38.21,39.98,38.21z"/>
		<path class="st1" d="M31.81,38.21c-2.79,0-5.07-2.09-5.07-4.67c0-0.55,0.45-1,1-1c0.55,0,1,0.45,1,1c0,1.47,1.38,2.67,3.07,2.67
			c1.69,0,3.07-1.2,3.07-2.67c0-0.55,0.45-1,1-1c0.55,0,1,0.45,1,1C36.88,36.11,34.61,38.21,31.81,38.21z"/>
		<g>
			<line class="st0" x1="35.9" y1="33.7" x2="35.9" y2="31.57"/>
			<path class="st4" d="M35.9,34.7c-0.55,0-1-0.45-1-1v-2.13c0-0.55,0.45-1,1-1s1,0.45,1,1v2.13C36.9,34.26,36.45,34.7,35.9,34.7z"
				/>
		</g>
	</g>
	<path class="st1" d="M29.39,56.91H1.77c-0.55,0-1-0.45-1-1c0-0.55,0.45-1,1-1h27.62c0.55,0,1,0.45,1,1
		C30.39,56.46,29.94,56.91,29.39,56.91z"/>
	<path class="st1" d="M66.98,56.91H39.35c-0.55,0-1-0.45-1-1c0-0.55,0.45-1,1-1h27.62c0.55,0,1,0.45,1,1
		C67.98,56.46,67.53,56.91,66.98,56.91z"/>
	<g>
		<path class="st0" d="M23.85,52.08c0,3.07-2.9,5.56-6.47,5.56c-3.57,0-6.47-2.49-6.47-5.56c0-3.07,2.9-5.56,6.47-5.56
			C20.95,46.51,23.85,49,23.85,52.08z"/>
		<path class="st1" d="M17.38,58.64c-4.12,0-7.47-2.94-7.47-6.56c0-3.62,3.35-6.56,7.47-6.56c4.12,0,7.47,2.94,7.47,6.56
			C24.85,55.7,21.5,58.64,17.38,58.64z M17.38,47.51c-3.02,0-5.47,2.05-5.47,4.56c0,2.52,2.45,4.56,5.47,4.56
			c3.02,0,5.47-2.05,5.47-4.56C22.85,49.56,20.4,47.51,17.38,47.51z"/>
	</g>
	<g>
		<path class="st0" d="M61.15,52.08c0,3.07-2.9,5.56-6.47,5.56c-3.57,0-6.47-2.49-6.47-5.56c0-3.07,2.9-5.56,6.47-5.56
			C58.25,46.51,61.15,49,61.15,52.08z"/>
		<path class="st1" d="M54.67,58.64c-4.12,0-7.47-2.94-7.47-6.56c0-3.62,3.35-6.56,7.47-6.56c4.12,0,7.47,2.94,7.47,6.56
			C62.15,55.7,58.79,58.64,54.67,58.64z M54.67,47.51c-3.02,0-5.47,2.05-5.47,4.56c0,2.52,2.45,4.56,5.47,4.56
			c3.02,0,5.47-2.05,5.47-4.56C60.15,49.56,57.69,47.51,54.67,47.51z"/>
	</g>
	<path class="st1" d="M65.15,35.65c-0.28,0-0.55-0.12-0.75-0.34c-0.36-0.42-0.32-1.05,0.09-1.41l5.47-4.79
		c0.42-0.36,1.05-0.32,1.41,0.09c0.36,0.42,0.32,1.05-0.09,1.41l-5.47,4.79C65.62,35.57,65.38,35.65,65.15,35.65z"/>
	<path class="st1" d="M69.5,43.63c-0.06,0-0.13-0.01-0.19-0.02l-2.46-0.48c-0.54-0.11-0.9-0.63-0.79-1.17
		c0.11-0.54,0.62-0.9,1.17-0.79l2.46,0.48c0.54,0.11,0.9,0.63,0.79,1.17C70.38,43.3,69.97,43.63,69.5,43.63z"/>
	<path class="st1" d="M6.85,35.65c-0.23,0-0.47-0.08-0.66-0.25l-5.47-4.79c-0.42-0.36-0.46-1-0.09-1.41c0.36-0.42,1-0.46,1.41-0.09
		l5.47,4.79c0.42,0.36,0.46,1,0.09,1.41C7.4,35.54,7.13,35.65,6.85,35.65z"/>
	<path class="st1" d="M2.5,43.63c-0.47,0-0.89-0.33-0.98-0.81c-0.11-0.54,0.25-1.07,0.79-1.17l2.46-0.48
		c0.54-0.11,1.07,0.25,1.17,0.79c0.11,0.54-0.25,1.07-0.79,1.17l-2.46,0.48C2.63,43.63,2.56,43.63,2.5,43.63z"/>
</g>
</svg>
