<?xml version="1.0" encoding="utf-8"?>
<!-- Generator: Adobe Illustrator 27.6.1, SVG Export Plug-In . SVG Version: 6.00 Build 0)  -->
<svg version="1.1" id="Layer_1" xmlns="http://www.w3.org/2000/svg" xmlns:xlink="http://www.w3.org/1999/xlink" x="0px" y="0px"
	 viewBox="0 0 694 402" style="enable-background:new 0 0 694 402;" xml:space="preserve">
<style type="text/css">
	.st0{fill:#F09E4B;}
	.st1{fill:#FFCA00;}
	.st2{fill:#DE9300;}
	.st3{clip-path:url(#SVGID_00000163064346662488487430000017943987263616195245_);fill:#FFB500;}
	.st4{fill:#FFFFFF;}
	.st5{fill:#C67125;}
	.st6{fill:#554F4C;}
	.st7{clip-path:url(#SVGID_00000090986821862204434350000015293890412010039425_);}
	.st8{fill:#938E8B;}
	.st9{fill:#00E099;}
	.st10{fill:#00AB77;}
	.st11{clip-path:url(#SVGID_00000066473627688744666240000012360146133212276926_);fill:#00C98A;}
	.st12{fill:#FFAAA5;}
	.st13{fill:#FF6969;}
	.st14{fill:#CC4A4A;}
	.st15{clip-path:url(#SVGID_00000136380449189040476280000010732539913202144910_);fill:#F36161;}
	.st16{fill:#919191;}
	.st17{clip-path:url(#SVGID_00000043435775521675848800000014755608126980805271_);}
	.st18{fill:#F7AC45;}
	.st19{clip-path:url(#SVGID_00000090296067575361043050000002722987930594267552_);fill:#F36161;}
</style>
<g>
	<g>
		<g>
			<path class="st0" d="M440.84,192.68c-0.46-4.92,0.35-9.92-0.41-14.8c-0.76-4.88-3.73-9.97-8.57-10.95
				c-1.5-0.3-3.14-0.21-4.43-1.03c-3.34-2.1-3.4-9.26-7.22-8.29c-0.73,0.18-1.32,0.69-1.87,1.2c-8.42,7.75-13.35,19.16-13.22,30.6
				c-2.14-1.52-5.34-0.24-6.76,1.96c-1.42,2.21-1.55,4.97-1.63,7.6c-0.28,9.8-0.43,19.71-2.92,29.19
				c-1.54,5.83-4.08,11.54-7.74,16.29c0.03-1.6,0.1-3.21,0.17-4.81c1.67-35.29,6.53-71.51-3.62-105.35
				c-4.8-15.99-12.79-30.81-19.09-46.28c-3.93-9.65-7.21-19.8-8.54-30.08c3.39,3.45,6.98,6.7,10.75,9.73
				c4.1,3.29,8.46,6.36,13.39,8.2c1.23,0.46,2.54,0.84,3.85,0.71c2.57-0.27,4.57-2.54,5.3-5.01s0.47-5.12,0.14-7.68
				c-1.63-12.75-5.06-26.39-15.09-34.43c-4.68-3.75-10.42-5.94-16.17-7.67c-3.37-1.01-6.78-1.89-10.21-2.63
				C333.05,3.3,309.52-4.12,289.27,2.31c-5.34,1.7-10.5,4.29-14.49,8.23c-1.56,1.54-2.9,3.26-4.1,5.09
				c-7.3,1.84-14.31,5.04-21.19,8.22c-5.3,2.45-10.79,5.04-14.5,9.55c-2.98,3.62-4.55,8.18-6.06,12.62
				c-2.17,6.4-4.36,12.93-4.39,19.69c0,1.33,0.12,2.77,0.99,3.77c1.79,2.06,5.14,0.9,7.5-0.47c8.05-4.66,15.6-10.16,22.56-16.33
				c-2.69,8.88-5.02,17.88-7.24,26.89c-5.83,23.59-11.08,47.32-15.73,71.17c-3.71,19-7.06,38.25-6.37,57.6
				c1.36,38.38,18.38,74.28,26.63,111.78c0.55,2.49,1.06,5.07,0.52,7.56c-0.86,3.99-4.18,6.89-6.6,10.17
				c-5.1,6.93-6.19,16.9-1.8,24.3c3.33,5.61,9.91,9.15,16.32,9c-0.03,1.48-0.05,2.95-0.1,4.43c-0.13,4.28-0.21,8.99,2.51,12.29
				c3.49,4.24,10.39,4.15,14.98,1.14c4.59-3.01,7.3-8.14,9.38-13.21c2.09-5.08,3.72-10.33,4.92-15.69
				c12.59-0.88,25.28-0.3,37.74,1.69c-0.3,3.89-0.6,7.78-0.9,11.67c-0.39,5-0.63,10.52,2.46,14.47c4.11,5.24,12.6,5.07,18.06,1.26
				c5.46-3.81,8.49-10.18,10.8-16.43c0.35-0.94,0.68-1.88,1-2.83c3.85,1.27,7.73,2.4,11.76,2.76c5.97,0.54,12.45-0.85,16.56-5.21
				c3.68-3.9,4.92-9.94,3.05-14.97c-1.86-5.03-6.73-8.81-12.07-9.37c7.72-9.74,12.68-21.52,14.65-33.78
				c7.71-3.95,14.43-9.85,19.23-17.06c1.31-1.96,2.49-4.04,4.17-5.69c3.91-3.84,10.5-5.51,11.98-10.79c0.53-1.9,0.24-3.93,0.48-5.9
				c0.8-6.67,7.31-11.33,8.98-17.83c1.37-5.32-0.71-11.05,0.57-16.39c0.86-3.6,3.17-6.68,4.34-10.2
				C449.44,214.86,441.89,203.87,440.84,192.68z"/>
		</g>
		<g>
			<path class="st1" d="M340.47,100.31c-0.04-0.09-0.08-0.18-0.12-0.26c-3.49-7.58-10.07-15.7-13.81-19.99
				c-10.72-14.54-33.52-19.76-55.22-11.43c-21.37,8.2-34.75,26.89-33.46,44.63c0.08,6.14,0.95,19.09,3.15,24.82
				c0,0-0.26,0.06,0.01,0c0.23,0.75,0.48,1.5,0.77,2.24c8.42,21.94,37.51,31.17,64.97,20.63c27.46-10.54,42.89-36.87,34.47-58.8
				C341.01,101.54,340.75,100.93,340.47,100.31z"/>
			
				<ellipse transform="matrix(0.9336 -0.3584 0.3584 0.9336 -18.2099 108.9255)" class="st2" cx="284.75" cy="103.59" rx="46.08" ry="34.17"/>
			<g>
				<defs>
					
						<ellipse id="SVGID_1_" transform="matrix(0.9336 -0.3584 0.3584 0.9336 -18.0824 108.8474)" cx="284.6" cy="103.21" rx="46.08" ry="35.02"/>
				</defs>
				<clipPath id="SVGID_00000060710849765264282920000014665632825725150889_">
					<use xlink:href="#SVGID_1_"  style="overflow:visible;"/>
				</clipPath>
				
					<ellipse transform="matrix(0.9336 -0.3584 0.3584 0.9336 -22.2415 111.3961)" style="clip-path:url(#SVGID_00000060710849765264282920000014665632825725150889_);fill:#FFB500;" cx="289.4" cy="115.7" rx="42.97" ry="29.82"/>
			</g>
			<path class="st4" d="M295.14,146.56c0,0-8.63-3.62-9.89,0.99s4.42,5.43,4.42,5.43s-2.24,6.84,2.62,7.82
				c5.07,1.02,7.14-6.75,7.14-6.75l9.39-3.72c0,0,7.03,4.45,9.34-0.55c2.3-5-5.3-6.52-5.3-6.52s2.44-6.23-2.16-7.69
				c-4.6-1.46-6.38,7.82-6.38,7.82L295.14,146.56z"/>
		</g>
		<path class="st0" d="M255.3,67.74c0,0,8.5,12.44,17.2,9.53c8.7-2.9,11.22-10.75,11.22-10.75s6.61,11.17,23.39,10.75
			c16.79-0.41,30.26-6.22,30.26-6.22s9.33-18.65-11.81-21.14s-54.09-4.56-60.52,0.62C258.62,55.72,255.3,67.74,255.3,67.74z"/>
		<g>
			<g>
				<path d="M259.3,76c4.45,3.42,10.76,4.42,16.02,2.39c5.01-1.93,8.87-6.16,10.33-11.33c-1.22,0.16-2.44,0.32-3.66,0.48
					c3.16,5.6,9.18,8.65,15.21,10.18c7.24,1.83,14.86,2.01,22.23,0.91c4.21-0.63,8.32-1.76,12.28-3.32c1-0.4,1.71-1.34,1.4-2.46
					c-0.26-0.96-1.45-1.8-2.46-1.4c-8.27,3.27-17.18,4.51-26.02,3.55c-7-0.76-15.46-2.87-19.18-9.47c-0.85-1.51-3.19-1.16-3.66,0.48
					c-1.1,3.88-4.04,7.28-7.88,8.67c-4.3,1.56-9,0.64-12.6-2.12c-0.86-0.66-2.24-0.13-2.74,0.72C257.98,74.29,258.44,75.34,259.3,76
					L259.3,76z"/>
			</g>
		</g>
		<g>
			<path d="M275.74,47.05c-0.25,1.42,0.28,2.9,1.14,4.06s2.03,2.06,3.22,2.88c1.66,1.15,3.56,2.24,5.56,2
				c1.21-0.14,2.32-0.76,3.34-1.43c1.68-1.09,2.5-1.55,3.95-2.94c1.13-1.07,3-3.14,3.11-4.7c0.1-1.48-0.76-2.91-1.96-3.8
				c-1.19-0.89-2.66-1.31-4.12-1.58c-2.55-0.47-5.17-0.52-7.74-0.15c-1.73,0.25-3.5,0.72-4.84,1.84c-1.34,1.12-2.15,3.02-1.57,4.67"
				/>
			<g>
				<path d="M273.74,47.05c-0.62,4.71,4.14,8.51,7.99,10.19c2.41,1.05,4.79,0.96,7.12-0.26c1.68-0.88,3.35-2.04,4.79-3.28
					c1.43-1.24,2.88-2.75,3.74-4.46c1.01-2,0.83-4.24-0.49-6.07c-1.4-1.93-3.58-2.96-5.87-3.45c-2.49-0.53-5.08-0.71-7.62-0.47
					c-2.63,0.25-5.36,0.78-7.41,2.57c-1.85,1.61-2.82,4.23-2.08,6.62c0.75,2.45,4.61,1.41,3.86-1.06c-0.87-2.86,3.28-3.85,5.25-4.08
					c1.87-0.22,3.8-0.21,5.67,0.05c1.47,0.21,3.17,0.51,4.35,1.48c0.43,0.35,0.77,0.8,0.94,1.33c0.19,0.55,0.1,0.73-0.11,1.19
					c-0.55,1.15-1.54,2.12-2.46,2.99c-0.96,0.9-2.02,1.61-3.13,2.32c-1.24,0.8-2.52,1.66-4.05,1.25c-1.57-0.42-3.09-1.5-4.32-2.53
					c-1.36-1.14-2.41-2.48-2.16-4.33c0.14-1.07-1.02-2-2-2C274.54,45.05,273.88,45.98,273.74,47.05L273.74,47.05z"/>
			</g>
		</g>
		<g>
			<g>
				<path d="M282.15,56.92c0,3.94,0,7.87,0,11.81c0,1.05,0.92,2.05,2,2c1.08-0.05,2-0.88,2-2c0-3.94,0-7.87,0-11.81
					c0-1.05-0.92-2.05-2-2C283.06,54.97,282.15,55.8,282.15,56.92L282.15,56.92z"/>
			</g>
		</g>
		<g>
			<g>
				<path d="M267.93,36.18c0.67-0.68,1.38-1.33,2.12-1.93c0.04-0.03,0.4-0.32,0.2-0.16c-0.18,0.14,0.1-0.07,0.13-0.1
					c0.18-0.13,0.36-0.27,0.55-0.4c0.41-0.29,0.84-0.57,1.27-0.83c0.81-0.5,1.66-0.95,2.52-1.36c0.2-0.09,0.41-0.18,0.62-0.28
					c0.22-0.1-0.29,0.11,0.07-0.03c0.1-0.04,0.21-0.08,0.31-0.12c0.47-0.18,0.95-0.35,1.43-0.5c0.99-0.32,1.74-1.4,1.4-2.46
					c-0.32-1-1.39-1.74-2.46-1.4c-4.14,1.32-7.93,3.62-10.98,6.72c-0.74,0.75-0.8,2.09,0,2.83
					C265.9,36.91,267.15,36.98,267.93,36.18L267.93,36.18z"/>
			</g>
		</g>
		<g>
			<g>
				<path d="M310.24,29.48c5.13,1.12,10.17,2.63,15.08,4.5c1.01,0.38,2.19-0.43,2.46-1.4c0.31-1.13-0.38-2.07-1.4-2.46
					c-4.91-1.87-9.95-3.38-15.08-4.5c-1.05-0.23-2.16,0.32-2.46,1.4C308.57,28.02,309.18,29.25,310.24,29.48L310.24,29.48z"/>
			</g>
		</g>
		<g>
			<g>
				<path d="M300.23,58.92c2.57,0,2.58-4,0-4C297.66,54.92,297.65,58.92,300.23,58.92L300.23,58.92z"/>
			</g>
		</g>
		<g>
			<g>
				<path d="M297.72,66.71c2.57,0,2.58-4,0-4C295.14,62.71,295.14,66.71,297.72,66.71L297.72,66.71z"/>
			</g>
		</g>
		<g>
			<g>
				<path d="M309.53,67.46c2.57,0,2.58-4,0-4C306.95,63.46,306.95,67.46,309.53,67.46L309.53,67.46z"/>
			</g>
		</g>
		<g>
			<g>
				<path d="M268.07,59.42c2.57,0,2.58-4,0-4C265.49,55.42,265.49,59.42,268.07,59.42L268.07,59.42z"/>
			</g>
		</g>
		<g>
			<g>
				<path d="M274.85,64.95c2.57,0,2.58-4,0-4C272.28,60.95,272.27,64.95,274.85,64.95L274.85,64.95z"/>
			</g>
		</g>
		<g>
			<g>
				<path d="M266.06,69.47c2.57,0,2.58-4,0-4C263.48,65.47,263.48,69.47,266.06,69.47L266.06,69.47z"/>
			</g>
		</g>
		<g>
			<g>
				<path class="st5" d="M238.06,198.54c-1.08,8.99-0.52,18.1,1.58,26.9c0.6,2.5,4.45,1.44,3.86-1.06
					c-2.02-8.47-2.48-17.2-1.44-25.84c0.13-1.07-1.01-2-2-2C238.87,196.54,238.19,197.46,238.06,198.54L238.06,198.54z"/>
			</g>
		</g>
		<g>
			<g>
				<path class="st5" d="M244.46,224.21c0.05,7.83,0.83,15.65,2.28,23.34c0.2,1.06,1.48,1.67,2.46,1.4c1.11-0.31,1.6-1.4,1.4-2.46
					c-1.39-7.35-2.09-14.8-2.14-22.28C248.45,221.64,244.45,221.63,244.46,224.21L244.46,224.21z"/>
			</g>
		</g>
		<g>
			<g>
				<path class="st5" d="M250.81,268.73c7.98,27.66,9.38,56.59,9.3,85.22c-0.02,8.13-0.16,16.25-0.31,24.37
					c-0.05,2.57,3.95,2.58,4,0c0.51-28.96,0.97-58.13-3.78-86.8c-1.33-8.05-3.09-16.02-5.36-23.86
					C253.96,265.19,250.1,266.24,250.81,268.73L250.81,268.73z"/>
			</g>
		</g>
		<g>
			<g>
				<path class="st5" d="M268.22,376.42c-1.2,3.16-1.39,6.63-0.71,9.93c0.21,1.03,1.48,1.71,2.46,1.4c1.09-0.35,1.62-1.36,1.4-2.46
					c-0.04-0.21-0.08-0.42-0.12-0.63c-0.02-0.11-0.11-0.6-0.02-0.11c-0.07-0.36-0.08-0.75-0.1-1.12c-0.04-0.7-0.03-1.4,0.03-2.09
					c0.01-0.16,0.03-0.32,0.05-0.48c0.03-0.23,0.02-0.21-0.01,0.05c0.01-0.08,0.02-0.16,0.04-0.24c0.05-0.34,0.12-0.69,0.2-1.03
					c0.17-0.73,0.39-1.45,0.66-2.15c0.37-0.98-0.41-2.24-1.4-2.46C269.54,374.76,268.62,375.37,268.22,376.42L268.22,376.42z"/>
			</g>
		</g>
		<g>
			<g>
				<path class="st5" d="M275.79,377.46c-0.84,2.89-1.39,5.84-1.72,8.84c-0.12,1.04,1,2.04,2,2c1.18-0.05,1.88-0.88,2-2
					c0.04-0.37,0.08-0.74,0.13-1.11c-0.01,0.07-0.02,0.14-0.03,0.21c0.01-0.11,0.03-0.21,0.05-0.32c0.02-0.16,0.05-0.32,0.07-0.47
					c0.11-0.68,0.23-1.37,0.37-2.05c0.27-1.36,0.61-2.71,0.99-4.04c0.29-1-0.35-2.22-1.4-2.46
					C277.18,375.82,276.1,376.39,275.79,377.46L275.79,377.46z"/>
			</g>
		</g>
		<g>
			<g>
				<path class="st5" d="M275.77,286.93c4.35,13.85,11.5,26.68,20.97,37.68c1.68,1.95,4.5-0.89,2.83-2.83
					c-9-10.47-15.81-22.75-19.94-35.92C278.86,283.42,275,284.46,275.77,286.93L275.77,286.93z"/>
			</g>
		</g>
		<g>
			<g>
				<path class="st5" d="M295.09,306.71c6.59,9.95,14.16,19.22,22.61,27.65c1.82,1.82,4.65-1.01,2.83-2.83
					c-8.21-8.19-15.58-17.17-21.99-26.84C297.13,302.56,293.67,304.56,295.09,306.71L295.09,306.71z"/>
			</g>
		</g>
		<g>
			<g>
				<path class="st5" d="M293.23,336.81c0.27,11.74-1.65,23.39-5.64,34.44c-0.88,2.42,2.99,3.47,3.86,1.06
					c4.11-11.35,6.07-23.44,5.79-35.5C297.17,334.24,293.17,334.23,293.23,336.81L293.23,336.81z"/>
			</g>
		</g>
		<g>
			<g>
				<path class="st5" d="M334.96,372.8c-0.99,3.28-1.51,6.71-1.56,10.13c-0.01,1.05,0.93,2.05,2,2c1.1-0.05,1.98-0.88,2-2
					c0.01-0.8,0.05-1.59,0.11-2.39c0.03-0.4,0.07-0.79,0.12-1.19c0.01-0.09,0.1-0.73,0.03-0.29c0.03-0.18,0.05-0.36,0.08-0.55
					c0.25-1.58,0.61-3.13,1.07-4.66c0.3-1-0.36-2.22-1.4-2.46C336.35,371.15,335.29,371.72,334.96,372.8L334.96,372.8z"/>
			</g>
		</g>
		<g>
			<g>
				<path class="st5" d="M345.23,375.19c-1.77,2.89-2.71,6.28-2.68,9.66c0.01,1.05,0.91,2.05,2,2c1.08-0.05,2.01-0.88,2-2
					c0-0.38,0.01-0.76,0.03-1.14c0.01-0.18,0.02-0.35,0.04-0.53c0.01-0.1,0.02-0.2,0.03-0.3c0.03-0.23,0.02-0.2-0.01,0.08
					c0.04-0.05,0.06-0.38,0.07-0.45c0.03-0.2,0.07-0.4,0.11-0.6c0.07-0.35,0.16-0.69,0.25-1.03s0.2-0.68,0.32-1.01
					c0.07-0.19,0.14-0.38,0.21-0.57c0.04-0.11,0.17-0.55,0.03-0.08c0.21-0.69,0.68-1.4,1.06-2.01c0.55-0.89,0.22-2.24-0.72-2.74
					C346.99,373.95,345.81,374.23,345.23,375.19L345.23,375.19z"/>
			</g>
		</g>
		<g>
			<g>
				<path class="st5" d="M369.57,293.22c-1.44,20.36-4,40.63-7.71,60.71c-1.05,5.68-2.19,11.35-3.41,16.99
					c-0.54,2.51,3.31,3.58,3.86,1.06c4.39-20.21,7.64-40.67,9.75-61.25c0.6-5.83,1.1-11.67,1.51-17.51
					C373.75,290.65,369.75,290.66,369.57,293.22L369.57,293.22z"/>
			</g>
		</g>
		<g>
			<g>
				<path class="st5" d="M330.46,310.94c-0.09,20.04-0.91,40.08-2.47,60.06c-0.2,2.57,3.8,2.55,4,0
					c1.56-19.98,2.38-40.01,2.47-60.06C334.47,308.37,330.47,308.36,330.46,310.94L330.46,310.94z"/>
			</g>
		</g>
		<g>
			<g>
				<path class="st5" d="M369.03,266.21c-0.6,6.67,1.11,13.49,4.73,19.11c1.39,2.16,4.85,0.15,3.45-2.02
					c-3.29-5.09-4.73-11.06-4.19-17.09c0.1-1.08-0.99-2-2-2C369.86,264.21,369.12,265.13,369.03,266.21L369.03,266.21z"/>
			</g>
		</g>
		<g>
			<g>
				<path class="st5" d="M372.93,245.66c0.46,7.93,2.53,15.63,6.12,22.72c1.16,2.3,4.61,0.27,3.45-2.02
					c-3.26-6.43-5.16-13.5-5.57-20.7C376.78,243.1,372.78,243.08,372.93,245.66L372.93,245.66z"/>
			</g>
		</g>
		<g>
			<g>
				<path class="st5" d="M384.61,257.31c6.39,14.22,8.69,30.09,6.84,45.55c-0.13,1.07,1.01,2,2,2c1.19,0,1.87-0.92,2-2
					c1.94-16.2-0.7-32.71-7.38-47.57c-0.44-0.99-1.87-1.22-2.74-0.72C384.31,255.17,384.17,256.33,384.61,257.31L384.61,257.31z"/>
			</g>
		</g>
		<g>
			<g>
				<path class="st5" d="M373.62,357.9c0.71,0.63,1.36,1.31,1.96,2.05c-0.17-0.22-0.06-0.08,0.04,0.06
					c0.07,0.09,0.13,0.18,0.19,0.27c0.13,0.18,0.25,0.37,0.37,0.56c0.27,0.42,0.52,0.86,0.75,1.3c0.1,0.2,0.2,0.4,0.29,0.6
					c0.05,0.1,0.09,0.2,0.14,0.3c0.1,0.22-0.11-0.3,0.02,0.06c0.17,0.44,0.33,0.89,0.46,1.34c0.13,0.45,0.24,0.91,0.33,1.38
					c0.04,0.22,0.07,0.44,0.11,0.66c-0.08-0.44-0.01-0.05,0,0.05c0.02,0.14,0.03,0.28,0.04,0.42c0.09,1.04,0.85,2.05,2,2
					c1.01-0.05,2.1-0.88,2-2c-0.4-4.54-2.44-8.86-5.88-11.88c-0.79-0.69-2.07-0.83-2.83,0C372.92,355.83,372.78,357.16,373.62,357.9
					L373.62,357.9z"/>
			</g>
		</g>
		<g>
			<g>
				<path class="st5" d="M383.63,354.32c0.13,0.16,0.26,0.32,0.38,0.48c0.14,0.17,0.13,0.16-0.03-0.04
					c0.06,0.08,0.12,0.16,0.19,0.25c0.25,0.33,0.48,0.66,0.72,1c0.46,0.68,0.9,1.37,1.31,2.08c0.41,0.71,0.79,1.44,1.14,2.18
					c0.18,0.37,0.36,0.74,0.51,1.12c-0.2-0.5,0.06,0.14,0.09,0.23c0.08,0.19,0.15,0.38,0.22,0.57c0.37,0.98,1.37,1.75,2.46,1.4
					c0.95-0.31,1.79-1.41,1.4-2.46c-1.33-3.52-3.18-6.73-5.56-9.64c-0.66-0.81-2.15-0.74-2.83,0
					C382.84,352.36,382.93,353.45,383.63,354.32L383.63,354.32z"/>
			</g>
		</g>
		<g>
			<g>
				<path class="st5" d="M247.9,350.19c-1.93,3.35-2.87,7.27-2.59,11.12c0.08,1.04,0.87,2.05,2,2c1.02-0.05,2.08-0.88,2-2
					c-0.06-0.88-0.07-1.75,0-2.63c0.01-0.18,0.03-0.35,0.05-0.52c0.01-0.12,0.03-0.23,0.04-0.35c-0.03,0.24-0.03,0.24,0,0.01
					c0.07-0.4,0.14-0.81,0.23-1.21c0.18-0.8,0.42-1.58,0.71-2.35c0.04-0.11,0.08-0.22,0.13-0.33c-0.09,0.21-0.09,0.2,0-0.01
					c0.07-0.16,0.14-0.32,0.22-0.48c0.2-0.42,0.42-0.84,0.66-1.24c0.52-0.91,0.24-2.23-0.72-2.74
					C249.68,348.97,248.46,349.22,247.9,350.19L247.9,350.19z"/>
			</g>
		</g>
		<g>
			<g>
				<path class="st5" d="M254.81,357.08c-1.47,2.8-2.27,5.91-2.29,9.08c-0.01,1.05,0.93,2.05,2,2c1.09-0.05,1.99-0.88,2-2
					c0-0.34,0.01-0.68,0.03-1.01c0.02-0.3-0.01-0.72,0.09-1.01c-0.04,0.29-0.05,0.33-0.01,0.1c0.01-0.1,0.03-0.19,0.04-0.29
					c0.02-0.14,0.05-0.29,0.08-0.43c0.06-0.33,0.14-0.66,0.22-0.99c0.16-0.66,0.37-1.3,0.6-1.93c0.05-0.14,0.1-0.27,0.16-0.4
					c0.08-0.2,0.07-0.18-0.03,0.08c0.04-0.09,0.08-0.18,0.12-0.26c0.14-0.31,0.29-0.61,0.45-0.91c0.49-0.93,0.27-2.22-0.72-2.74
					C256.62,355.87,255.33,356.09,254.81,357.08L254.81,357.08z"/>
			</g>
		</g>
		<g>
			<g>
				<path class="st5" d="M354.67,133.67c5.17,16.13,5.28,33.59,0.32,49.78c-0.76,2.47,3.1,3.52,3.86,1.06
					c5.16-16.83,5.05-35.14-0.32-51.91C357.74,130.16,353.88,131.21,354.67,133.67L354.67,133.67z"/>
			</g>
		</g>
		<g>
			<g>
				<path class="st5" d="M347.17,160.06c1,17.5-3.53,35.03-12.9,49.85c-1.38,2.18,2.08,4.19,3.45,2.02
					c9.72-15.36,14.49-33.72,13.45-51.86C351.02,157.5,347.02,157.48,347.17,160.06L347.17,160.06z"/>
			</g>
		</g>
		<g>
			<g>
				<path class="st5" d="M254.06,32.87c-1.06,10.88-2.54,24.12-12.73,30.52c-2.17,1.37-0.17,4.83,2.02,3.45
					c11.56-7.26,13.5-21.54,14.71-33.97c0.1-1.08-0.99-2-2-2C254.89,30.87,254.16,31.79,254.06,32.87L254.06,32.87z"/>
			</g>
		</g>
		<g>
			<g>
				<path class="st5" d="M347.07,31.07c0.31,4.14,0.63,8.32,1.54,12.38c0.86,3.83,2.38,7.49,4.32,10.9
					c1.92,3.37,4.23,6.49,6.62,9.54c2.21,2.82,4.42,5.73,7,8.22c2.83,2.73,6.18,4.78,10.18,5.01c2.57,0.15,2.56-3.85,0-4
					c-3.83-0.22-6.81-3.09-9.23-5.8c-2.88-3.23-5.6-6.69-8.08-10.23c-2.55-3.63-4.82-7.52-6.17-11.77
					c-1.46-4.62-1.83-9.45-2.19-14.25C350.88,28.51,346.88,28.49,347.07,31.07L347.07,31.07z"/>
			</g>
		</g>
		<g>
			<g>
				<path class="st5" d="M424.86,187.49c-3.36,13.17-6.73,26.33-10.09,39.5c-0.64,2.5,3.22,3.56,3.86,1.06
					c3.36-13.17,6.73-26.33,10.09-39.5C429.35,186.06,425.5,185,424.86,187.49L424.86,187.49z"/>
			</g>
		</g>
		<g>
			<g>
				<path class="st5" d="M428.59,209.67c-1.83,8.84-5.06,17.28-9.64,25.07c-1.31,2.22,2.15,4.24,3.45,2.02
					c4.74-8.06,8.15-16.87,10.04-26.02C432.96,208.22,429.11,207.14,428.59,209.67L428.59,209.67z"/>
			</g>
		</g>
		<g>
			<g>
				<path class="st5" d="M423.8,254.99c-4.69,6.11-12.31,9.19-19.23,11.99c-1,0.41-1.71,1.33-1.4,2.46c0.26,0.95,1.45,1.8,2.46,1.4
					c8.03-3.25,16.2-6.76,21.62-13.83c0.66-0.86,0.13-2.24-0.72-2.74C425.51,253.67,424.46,254.13,423.8,254.99L423.8,254.99z"/>
			</g>
		</g>
		<g>
			<g>
				<path class="st5" d="M413.3,274.26c-1.36,1.03-2.82,1.91-4.37,2.61c-0.17,0.08-0.34,0.16-0.52,0.23
					c0.47-0.19-0.19,0.07-0.27,0.1c-0.4,0.16-0.81,0.3-1.22,0.43c-0.82,0.26-1.66,0.48-2.51,0.65c-1.03,0.21-1.71,1.48-1.4,2.46
					c0.35,1.09,1.36,1.62,2.46,1.4c3.55-0.72,6.96-2.25,9.85-4.43c0.43-0.33,0.77-0.65,0.92-1.2c0.13-0.48,0.07-1.12-0.2-1.54
					C415.51,274.15,414.19,273.58,413.3,274.26L413.3,274.26z"/>
			</g>
		</g>
	</g>
	<g>
		<g>
			<path class="st6" d="M399.22,329.98c-9.85-1.87-18.84-7.88-24.34-16.26c-5.5-8.38-7.43-19.02-5.23-28.8
				c0.29-1.31,0.66-2.62,0.61-3.96c-0.05-1.15-0.4-2.26-0.72-3.36c-4.01-14.16-1.04-29.37,3.65-43.32
				c4.67-13.9,12.42-28.54,26.31-33.23c0.73,23.37,1.46,46.75,2.2,70.12"/>
		</g>
		<g>
			<path class="st6" d="M533.16,309.02c-1.61-9.48-6.74-17.95-9.87-27.04c-11.61-33.68,5.09-70.69,1.03-106.09
				c-1.29-11.31-4.71-22.35-5.14-33.72c-0.45-11.92,2.39-23.72,2.96-35.64c0.38-8.02-0.49-16.51-3.72-23.74
				c3.13-13.84,4.3-24.47,0.4-37.94c-0.52-1.79-1.29-3.75-3-4.52c-1.01-0.45-2.18-0.39-3.25-0.13c-4.31,1.02-7.36,4.76-9.93,8.36
				c-2.5,3.5-4.85,7.1-7.08,10.78c-0.79-0.23-1.59-0.43-2.39-0.58c-6.46-1.29-7.46-1.78-19.67-2.09
				c-7.22-0.18-14.52,0.78-21.35,3.04c-2.6-6.5-6.07-12.64-10.33-18.2c-1.33-1.74-2.94-3.54-5.11-3.85
				c-2.97-0.43-5.52,2.11-7.07,4.68c-5.15,8.49-5.27,18.99-5.24,28.92c0.02,4.53,0.05,9.14,0.72,13.61
				c-2.42,5.19-4.29,10.71-5.88,16.17c-6.33,21.65-9.87,44.11-10.52,66.66c-0.07,2.51-0.11,5.04-0.73,7.47
				c-0.77,3.03-2.41,5.75-3.93,8.49c-13.04,23.5-18.21,51.27-14.51,77.88c0.89,6.4,2.28,12.78,2.13,19.24
				c-0.13,5.6-1.42,11.11-2.56,16.6c-3.73,18.04-5.54,38.04,4.02,53.8c2.46,4.05,5.67,7.82,6.75,12.43
				c0.75,3.18,0.45,6.65,1.91,9.57c2.55,5.08,9.41,6.38,14.94,5.07c4.19-0.99,8.02-3.06,12-4.72c0.85,5.96,2.04,11.9,4.6,17.32
				c2.9,6.13,8.99,11.95,15.61,10.48c4.37-0.97,7.56-4.99,8.84-9.28c1.28-4.29,1.01-8.88,0.73-13.35c-0.17-2.71-0.34-5.41-0.51-8.12
				c11.19-0.13,22.35-1.2,33.49-2.53c-0.15,2.4-0.32,4.79-0.52,7.18c-0.53,6.24-0.68,13.76,4.5,17.27c4.1,2.78,9.92,1.46,13.78-1.65
				c7.59-6.13,8.96-17.02,9.2-26.78c0.04-1.52,0.06-3.03,0.08-4.55c1.24-1.73,2.22-3.68,3.17-5.59
				C528.7,339.85,535.79,324.52,533.16,309.02z"/>
		</g>
		<g>
			<defs>
				<path id="SVGID_00000154410810666992153110000012738617285233663137_" d="M533.16,309.02c-1.61-9.48-6.74-17.95-9.87-27.04
					c-11.61-33.68,5.09-70.69,1.03-106.09c-1.29-11.31-4.71-22.35-5.14-33.72c-0.45-11.92,2.39-23.72,2.96-35.64
					c0.38-8.02-0.49-16.51-3.72-23.74c3.13-13.84,4.3-24.47,0.4-37.94c-0.52-1.79-1.29-3.75-3-4.52c-1.01-0.45-2.18-0.39-3.25-0.13
					c-4.31,1.02-7.36,4.76-9.93,8.36c-2.5,3.5-4.85,7.1-7.08,10.78c-0.79-0.23-1.59-0.43-2.39-0.58c-6.46-1.29-7.46-1.78-19.67-2.09
					c-7.22-0.18-14.52,0.78-21.35,3.04c-2.6-6.5-6.07-12.64-10.33-18.2c-1.33-1.74-2.94-3.54-5.11-3.85
					c-2.97-0.43-5.52,2.11-7.07,4.68c-5.15,8.49-5.27,18.99-5.24,28.92c0.02,4.53,0.05,9.14,0.72,13.61
					c-2.42,5.19-4.29,10.71-5.88,16.17c-6.33,21.65-9.87,44.11-10.52,66.66c-0.07,2.51-0.11,5.04-0.73,7.47
					c-0.77,3.03-2.41,5.75-3.93,8.49c-13.04,23.5-18.21,51.27-14.51,77.88c0.89,6.4,2.28,12.78,2.13,19.24
					c-0.13,5.6-1.42,11.11-2.56,16.6c-3.73,18.04-5.54,38.04,4.02,53.8c2.46,4.05,5.67,7.82,6.75,12.43
					c0.75,3.18,0.45,6.65,1.91,9.57c2.55,5.08,9.41,6.38,14.94,5.07c4.19-0.99,8.02-3.06,12-4.72c0.85,5.96,2.04,11.9,4.6,17.32
					c2.9,6.13,8.99,11.95,15.61,10.48c4.37-0.97,7.56-4.99,8.84-9.28c1.28-4.29,1.01-8.88,0.73-13.35
					c-0.17-2.71-0.34-5.41-0.51-8.12c11.19-0.13,22.35-1.2,33.49-2.53c-0.15,2.4-0.32,4.79-0.52,7.18
					c-0.53,6.24-0.68,13.76,4.5,17.27c4.1,2.78,9.92,1.46,13.78-1.65c7.59-6.13,8.96-17.02,9.2-26.78c0.04-1.52,0.06-3.03,0.08-4.55
					c1.24-1.73,2.22-3.68,3.17-5.59C528.7,339.85,535.79,324.52,533.16,309.02z"/>
			</defs>
			<clipPath id="SVGID_00000046311026669725264080000016418328403996484245_">
				<use xlink:href="#SVGID_00000154410810666992153110000012738617285233663137_"  style="overflow:visible;"/>
			</clipPath>
			<g style="clip-path:url(#SVGID_00000046311026669725264080000016418328403996484245_);">
				<path class="st4" d="M443.85,345.97c-6.57-21.01-7.06-43.35-8.94-65.28c-0.57-6.65-1.29-13.36-3.55-19.63
					c-2.43-6.76-6.56-12.76-9.68-19.23c-3.29-6.84-5.45-14.22-6.35-21.75c-0.51-4.28-0.54-8.94,1.87-12.52
					c0.91-1.36,2.14-2.49,2.94-3.91c2.31-4.1,0.61-9.52,2.69-13.74c2.17-4.43,8.01-6.07,12.78-4.82c4.77,1.25,8.64,4.7,11.99,8.31
					c3.36,3.61,6.47,7.55,10.58,10.28c8.37,5.55,20.42,4.78,28.01-1.81c3.86-3.35,6.52-7.89,10.27-11.36s9.41-5.81,13.96-3.47
					c5.95,3.06,6.01,11.55,4.27,18.01c-0.4,1.49-1.06,3.39,0.04,4.47c9.51,9.26,4.32,17.01,2.09,23.68
					c-1.65,4.94-3.82,12.96-5.36,17.72c-4.59,14.19-10.68,29.21-11.03,39.42c-0.64,18.73,3.33,52.91-3.05,70.53
					c-0.34,0.95-0.7,1.99-0.36,2.93c0.31,0.86,1.12,1.43,1.9,1.91c8.66,5.36,20.31,8.47,23.71,18.08c2.14,6.07-0.06,13.03-4.2,17.96
					c-4.14,4.93-9.94,8.15-15.8,10.81c-14.01,6.36-29.61,10.19-44.82,7.9s-29.89-11.48-36.08-25.57c-1.18-2.69-2.06-5.65-1.61-8.56
					c1.13-7.32,9.58-10.76,16.85-12.17c7.07-1.37,9.16-4.88,10.16-6.44C448.11,366.15,448.69,361.42,443.85,345.97z"/>
			</g>
			<g style="clip-path:url(#SVGID_00000046311026669725264080000016418328403996484245_);">
				<path class="st4" d="M428.17,108.55c0.76-5.94,6.16-10.95,12.14-11.27c0.87-0.05,1.78,0.01,2.53,0.44
					c2.89,1.65,0.81,6.05,1.21,9.36c0.44,3.55,4.23,5.89,7.8,6.01c3.57,0.13,6.97-1.38,10.27-2.76c0.7-0.29,1.47-0.59,2.2-0.4
					c0.6,0.15,1.08,0.6,1.54,1.01c7.05,6.31,17.79,8.13,26.53,4.5c2.85-1.19,5.87-3.76,5.13-6.76c5.14,2.74,12.47-0.88,13.41-6.63
					c0.23-1.4,0.42-3.22,1.8-3.56c1.23-0.31,2.26,0.91,2.89,2.01c5.05,8.86,3.95,23.49-0.07,32.86c-3.26,7.6-2.66,11.31-3.47,14.76
					c-2.29,9.75-6.69,17.37-13.47,24.74c-7.55,8.19-12.4,14.86-23.51,15.67c-2.08,0.15-4.21,0.04-6.15-0.73
					c-5.79-2.29-12.24-8.01-14.88-13.65c-6.35-13.55-19.44-23.18-25.08-37.04c-3.52-8.64-3.81-19.43-0.79-28.26"/>
			</g>
			<g style="clip-path:url(#SVGID_00000046311026669725264080000016418328403996484245_);">
				<path class="st4" d="M461.23,83.96c-1.15-0.19-1.7-0.23-2.71-0.81c-1.01-0.58-1.85-1.61-1.87-2.78
					c-0.03-1.13,0.7-2.17,1.63-2.81c0.93-0.64,2.04-0.96,3.12-1.27c1.33-0.38,2.71-0.76,4.07-0.49c2.28,0.45,3.78,2.58,4.92,4.6
					c0.54,0.96,1.06,1.98,1.15,3.08c0.08,1.1-1.09,1.98-2.08,2.46c-1.05,0.51-1.59,0.42-2.67-0.01
					C464.94,85.19,463.07,84.69,461.23,83.96"/>
			</g>
			<g style="clip-path:url(#SVGID_00000046311026669725264080000016418328403996484245_);">
				<path class="st4" d="M494.15,84.83c-0.92,0.87-1.87,1.76-3.06,2.21c-1.18,0.45-2.67,0.35-3.53-0.58
					c-0.44-0.47-0.67-1.1-0.81-1.73c-0.58-2.65,0.43-5.6,2.53-7.32c2.1-1.73,5.18-2.17,7.67-1.09c0.94,0.41,1.83,1.04,2.34,1.93
					c0.52,0.89,0.61,2.06,0.07,2.94c-1.11,1.79-2.44,2.11-4.72,3.51"/>
			</g>
			<g style="clip-path:url(#SVGID_00000046311026669725264080000016418328403996484245_);">
				<path class="st4" d="M396.13,362.32c-4.38-20.41-3.27-41.97,3.16-61.83c0.55-1.69,1.23-3.49,2.72-4.44
					c3.26-2.09,7.28,1.23,9.43,4.43c5.02,7.47,8.31,16.1,9.53,25.01c1.38,10.16,0.16,20.79,3.64,30.43
					c1.24,3.43,3.07,6.69,3.68,10.29c1.21,7.05-2.95,14.63-9.49,17.52c-6.55,2.89-14.86,0.92-19.53-4.5
					c-5.13-5.96-5.56-14.61-4.67-22.42"/>
			</g>
		</g>
		<g>
			<g>
				<path class="st8" d="M435.77,128.4c2.55,8.17,8.42,15.19,16.1,19.02c0.97,0.48,2.17,0.26,2.74-0.72
					c0.52-0.89,0.25-2.25-0.72-2.74c-6.76-3.37-12-9.4-14.26-16.63C438.87,124.89,435,125.93,435.77,128.4L435.77,128.4z"/>
			</g>
		</g>
		<g>
			<g>
				<path class="st8" d="M511.85,123.77c-1.97,6.62-4.17,14.22-9.89,18.64c-0.85,0.66-1.31,1.72-0.72,2.74
					c0.49,0.84,1.88,1.38,2.74,0.72c6.69-5.17,9.4-13.22,11.73-21.03C516.45,122.36,512.59,121.3,511.85,123.77L511.85,123.77z"/>
			</g>
		</g>
		<g>
			<path class="st9" d="M519.17,174.53c0-0.07-0.01-0.15-0.01-0.22c-0.42-6.53-2.93-14.32-4.44-18.51
				c-3.72-13.65-18.79-23.87-36.83-23.87c-17.77,0-32.65,9.91-36.65,23.26c-1.65,4.51-4.63,14.19-4.63,19c0,0-0.2,0.02,0.02,0.05
				c-0.04,0.62-0.07,1.23-0.07,1.86c0,18.42,18.5,33.35,41.33,33.35c22.83,0,41.33-14.93,41.33-33.35
				C519.22,175.58,519.2,175.06,519.17,174.53z"/>
			<ellipse class="st10" cx="477.89" cy="161.28" rx="35.76" ry="26.78"/>
			<g>
				<defs>
					<ellipse id="SVGID_00000121275475058446415070000011950385961267165097_" cx="477.89" cy="160.96" rx="35.76" ry="27.45"/>
				</defs>
				<clipPath id="SVGID_00000036218682030919637950000017330405436657872283_">
					<use xlink:href="#SVGID_00000121275475058446415070000011950385961267165097_"  style="overflow:visible;"/>
				</clipPath>
				
					<ellipse style="clip-path:url(#SVGID_00000036218682030919637950000017330405436657872283_);fill:#00C98A;" cx="477.89" cy="171.45" rx="33.35" ry="23.38"/>
			</g>
			<path class="st4" d="M473.46,195.64c0,0-5.25-5.07-7.44-2.05c-2.19,3.02,1.69,5.22,1.69,5.22s-3.53,4.38-0.28,6.46
				c3.39,2.17,7.05-2.93,7.05-2.93l7.84-0.08c0,0,3.86,5.23,6.92,2.22s-2.03-6.26-2.03-6.26s3.5-3.87,0.57-6.24
				c-2.93-2.36-6.79,3.93-6.79,3.93L473.46,195.64z"/>
		</g>
		<path class="st4" d="M453.39,127.47c1.76,5.8,7.2,10.01,13,9.84c5.8-0.18,14.23-2.46,14.23-2.46s5.27,4.57,12.65,2.64
			c7.38-1.93,11.77-6.85,11.77-10.54c0-3.69-39.53-10.72-48.66-7.38C447.24,122.9,453.39,127.47,453.39,127.47z"/>
		<g>
			<path d="M476.93,114.07c-1.87,0.04-3.95,0.17-5.23,1.53c-0.84,0.9-1.15,2.2-1.05,3.42c0.14,1.78,1.09,3.44,2.46,4.59
				c1.37,1.14,3.12,1.77,4.9,1.91c1.56,0.12,3.22-0.16,4.45-1.14c0.67-0.54,2.11-1.86,2.65-2.53c1.6-1.99,1.3-3.93,0.37-5.68
				c-0.93-1.75-6.21-2.24-8.15-1.85"/>
			<g>
				<path d="M476.93,112.07c-1.83,0.04-3.81,0.17-5.42,1.15c-1.87,1.13-2.87,3.19-2.88,5.35c-0.03,4.25,3.41,7.73,7.4,8.66
					c2.06,0.48,4.27,0.45,6.22-0.42c1.47-0.65,2.74-1.92,3.84-3.07c1.35-1.42,2.27-3.25,2.12-5.25c-0.13-1.79-0.85-3.66-2.36-4.7
					c-1.35-0.93-3.11-1.23-4.7-1.43c-1.45-0.19-2.92-0.23-4.36,0.04c-1.06,0.2-1.67,1.48-1.4,2.46c0.31,1.12,1.39,1.6,2.46,1.4
					c0.54-0.1-0.39,0.01,0.12-0.02c0.21-0.01,0.43-0.03,0.64-0.03c0.49-0.01,0.99,0,1.48,0.04c0.27,0.02,0.53,0.05,0.8,0.08
					c0.35,0.04-0.48-0.09,0.09,0.01c0.12,0.02,0.24,0.04,0.35,0.06c0.51,0.09,1.02,0.21,1.51,0.37c0.13,0.04,0.25,0.09,0.38,0.13
					c0.28,0.09-0.3-0.15-0.05-0.03c0.18,0.09,0.37,0.22,0.56,0.3c0.16,0.07,0.13,0.23-0.1-0.09c0.04,0.06,0.12,0.11,0.17,0.16
					c0.22,0.25-0.1-0.12-0.11-0.15c0.06,0.17,0.18,0.33,0.26,0.5c0.16,0.36,0.26,0.91,0.29,1.34c0.02,0.4-0.19,0.93-0.52,1.46
					c-0.17,0.27-0.1,0.16-0.38,0.46c-0.2,0.21-0.41,0.42-0.62,0.62c-0.43,0.42-0.87,0.82-1.33,1.22c0.02-0.02-0.39,0.31-0.19,0.16
					c0.2-0.15-0.19,0.12-0.24,0.15c-0.29,0.18-0.45,0.25-0.69,0.32c-0.71,0.23-1.06,0.25-1.8,0.23c-2.36-0.06-4.92-1.44-5.63-3.69
					c-0.36-1.16-0.37-2.4,0.58-3.13c-0.22,0.17,0.14-0.07,0.2-0.1c0.09-0.05,0.18-0.1,0.28-0.15c-0.12,0.05-0.12,0.05,0.01,0
					c0.34-0.12,0.69-0.21,1.04-0.27c0.45-0.08,1.27-0.12,1.98-0.13c1.08-0.02,2-0.9,2-2C478.93,113,478.01,112.05,476.93,112.07
					L476.93,112.07z"/>
			</g>
		</g>
		<g>
			<g>
				<path d="M452.97,132.19c1.31,3.92,6.03,6.47,9.82,7.23c3.03,0.61,5.88,0.22,8.83-0.57c2.92-0.78,5.84-1.69,8.01-3.91
					c-0.94,0-1.89,0-2.83,0c3.47,3.99,8.84,6.03,14.08,5.37c4.8-0.6,9.82-2.68,12.68-6.74c1.48-2.11-1.98-4.11-3.45-2.02
					c-2.04,2.9-6.18,4.37-9.56,4.81c-4.16,0.53-8.18-1.09-10.92-4.24c-0.7-0.81-2.11-0.73-2.83,0c-1.63,1.66-3.87,2.25-6.06,2.84
					c-2.29,0.61-4.52,1.09-6.9,0.62c-1.81-0.36-3.55-1.09-5.03-2.21c-0.51-0.39-0.98-0.85-1.41-1.33c-0.12-0.14-0.18-0.2-0.39-0.54
					c-0.06-0.09-0.11-0.19-0.17-0.29c-0.25-0.44,0.12,0.36-0.02-0.06C456.01,128.69,452.15,129.74,452.97,132.19L452.97,132.19z"/>
			</g>
		</g>
		<g>
			<g>
				<path d="M476.14,127.1c0,1.62,0,3.24,0,4.86c0,0.51,0.22,1.05,0.59,1.41c0.35,0.35,0.92,0.61,1.41,0.59c1.08-0.05,2-0.88,2-2
					c0-1.62,0-3.24,0-4.86c0-0.51-0.22-1.05-0.59-1.41c-0.35-0.35-0.92-0.61-1.41-0.59C477.06,125.15,476.14,125.98,476.14,127.1
					L476.14,127.1z"/>
			</g>
		</g>
		<g>
			<g>
				<path d="M464.74,126.6c2.57,0,2.58-4,0-4C462.17,122.6,462.16,126.6,464.74,126.6L464.74,126.6z"/>
			</g>
		</g>
		<g>
			<g>
				<path d="M463.27,132.78c2.57,0,2.58-4,0-4C460.7,128.78,460.69,132.78,463.27,132.78L463.27,132.78z"/>
			</g>
		</g>
		<g>
			<g>
				<path d="M470.19,132.63c2.57,0,2.58-4,0-4C467.62,128.63,467.61,132.63,470.19,132.63L470.19,132.63z"/>
			</g>
		</g>
		<g>
			<g>
				<path d="M485.35,132.78c2.57,0,2.58-4,0-4C482.78,128.78,482.77,132.78,485.35,132.78L485.35,132.78z"/>
			</g>
		</g>
		<g>
			<g>
				<path d="M490.5,126.75c2.57,0,2.58-4,0-4C487.93,122.75,487.93,126.75,490.5,126.75L490.5,126.75z"/>
			</g>
		</g>
		<g>
			<g>
				<path d="M493.89,133.22c2.57,0,2.58-4,0-4C491.32,129.22,491.31,133.22,493.89,133.22L493.89,133.22z"/>
			</g>
		</g>
		<g>
			<path d="M455.44,90.13c-1.31,1.22-1.53,3.38-0.65,4.94s2.7,2.48,4.49,2.47c0.57-0.01,1.15-0.1,1.66-0.36
				c0.97-0.5,1.57-1.55,1.72-2.63c0.2-1.39-0.28-2.87-1.26-3.87s-2.45-1.52-3.84-1.35c-0.78,0.1-1.64,0.5-1.83,1.27"/>
			<g>
				<path d="M454.02,88.72c-1.87,1.81-2.19,4.64-1.16,6.96c1.01,2.28,3.41,3.6,5.8,3.84c1.47,0.15,2.94-0.24,4.09-1.17
					c0.91-0.73,1.55-1.88,1.79-3.02c0.56-2.72-0.58-5.52-2.93-7.01c-2.42-1.54-6.85-1.53-7.81,1.76c-0.29,1,0.36,2.22,1.4,2.46
					c1.07,0.24,2.14-0.32,2.46-1.4c0.11-0.38-0.18,0.35-0.05,0.13c0.13-0.23-0.34,0.39-0.08,0.11c0.14-0.15,0.14,0.01-0.15,0.11
					c0.05-0.02,0.14-0.08,0.2-0.12c0.33-0.21-0.35,0.11-0.11,0.04c0.07-0.02,0.15-0.05,0.22-0.07c0.08-0.02,0.21-0.02,0.28-0.06
					c-0.1,0.01-0.19,0.03-0.29,0.04c0.08-0.01,0.17-0.01,0.26-0.02c0.17-0.01,0.34,0.01,0.51,0.01c0.43,0.01-0.36-0.08-0.09-0.01
					c0.1,0.02,0.21,0.04,0.31,0.07c0.17,0.04,0.33,0.1,0.49,0.15c0.41,0.13-0.31-0.16-0.07-0.03c0.11,0.06,0.23,0.11,0.34,0.18
					c0.09,0.05,0.18,0.12,0.27,0.17c0.26,0.16-0.14-0.03-0.1-0.08c0,0,0.34,0.3,0.38,0.34c0.07,0.08,0.14,0.16,0.21,0.24
					c0.19,0.2-0.26-0.41-0.04-0.05c0.11,0.18,0.22,0.36,0.32,0.55c0.18,0.32-0.07-0.1-0.04-0.13c-0.01,0.01,0.1,0.26,0.11,0.3
					c0.06,0.18,0.1,0.37,0.14,0.56c0.08,0.33-0.02-0.1-0.01-0.15c-0.01,0.08,0.02,0.17,0.02,0.25c0.01,0.24,0,0.47-0.02,0.7
					c-0.02,0.28,0.12-0.5,0.01-0.1c-0.02,0.08-0.04,0.16-0.06,0.24c-0.02,0.08-0.05,0.16-0.07,0.23c-0.1,0.4,0.17-0.32,0.04-0.08
					c-0.08,0.16-0.17,0.32-0.26,0.48c-0.17,0.29,0.06-0.1,0.1-0.11c-0.07,0.02-0.18,0.21-0.24,0.26c-0.04,0.04-0.31,0.32-0.07,0.08
					c0.2-0.2,0.04-0.04-0.04,0.01c-0.02,0.01-0.03,0.02-0.05,0.03c-0.18,0.09-0.14,0.08,0.11-0.03c-0.05,0.04-0.22,0.08-0.27,0.09
					c-0.09,0.03-0.19,0.04-0.28,0.07c-0.44,0.12,0.32,0,0.03,0c-0.24,0-0.48,0.02-0.72,0.01c-0.08,0-0.17-0.02-0.24-0.02
					c0.47,0,0.32,0.05,0.17,0.02c-0.2-0.04-0.4-0.08-0.6-0.14c-0.16-0.05-0.31-0.12-0.46-0.16c0.44,0.12,0.27,0.12,0.14,0.05
					c-0.11-0.06-0.22-0.11-0.32-0.17c-0.09-0.05-0.41-0.33-0.51-0.33c0.04,0,0.37,0.32,0.12,0.09c-0.06-0.05-0.12-0.11-0.18-0.16
					c-0.08-0.08-0.31-0.41-0.41-0.44c0.04,0.01,0.28,0.4,0.1,0.11c-0.07-0.1-0.13-0.2-0.19-0.31c-0.04-0.07-0.07-0.14-0.11-0.2
					c-0.19-0.36,0.15,0.44,0.03,0.06c-0.06-0.18-0.11-0.36-0.15-0.55c-0.01-0.06-0.09-0.44-0.02-0.07c0.07,0.36,0.01-0.05,0-0.13
					c-0.01-0.19,0.05-0.44,0.02-0.63c0.01,0.03-0.09,0.52-0.02,0.19c0.03-0.11,0.05-0.22,0.08-0.33c0.02-0.07,0.04-0.15,0.07-0.22
					c0.07-0.2,0.22-0.33-0.03,0.06c0.1-0.15,0.18-0.33,0.28-0.49c0.2-0.34-0.25,0.28-0.07,0.09c0.09-0.1,0.18-0.2,0.27-0.29
					c0.75-0.73,0.79-2.11,0-2.83C456.04,87.97,454.83,87.94,454.02,88.72L454.02,88.72z"/>
			</g>
		</g>
		<g>
			<path d="M502.68,91.95c-1.01-1.48-3.1-2.03-4.78-1.41c-1.68,0.63-2.87,2.28-3.13,4.05c-0.08,0.57-0.08,1.15,0.1,1.7
				c0.34,1.03,1.29,1.79,2.33,2.11c1.34,0.42,2.88,0.17,4.02-0.65s1.88-2.18,1.93-3.59c0.03-0.79-0.24-1.69-0.97-2"/>
			<g>
				<path d="M504.41,90.94c-1.49-2.11-4.07-3.08-6.6-2.46c-2.38,0.58-4.23,2.67-4.85,4.99c-0.38,1.42-0.34,2.96,0.37,4.28
					c0.64,1.18,1.77,1.99,2.99,2.46c2.38,0.93,5.38,0.19,7.07-1.72c1.02-1.15,1.61-2.54,1.74-4.07c0.12-1.5-0.5-3.3-1.95-3.98
					c-0.94-0.45-2.2-0.29-2.74,0.72c-0.47,0.89-0.29,2.26,0.72,2.74c0.07,0.03,0.34,0.23,0.08,0.01c-0.04-0.03-0.08-0.06-0.12-0.09
					c0.14,0.15,0.11,0.09-0.1-0.16c0.01,0.04,0.1,0.17,0.11,0.19c0.11,0.16-0.04,0.18-0.07-0.17c0,0.05,0.04,0.16,0.06,0.22
					c0.13,0.38-0.02-0.39-0.01-0.13c0.01,0.2,0,0.39,0,0.59c0,0.28,0.11-0.51,0.02-0.09c-0.02,0.08-0.03,0.17-0.05,0.25
					c-0.04,0.19-0.11,0.37-0.17,0.55c-0.08,0.27,0.23-0.44,0.03-0.07c-0.04,0.07-0.08,0.15-0.12,0.23c-0.1,0.19-0.24,0.35-0.35,0.54
					c0.21-0.37,0.17-0.21,0.07-0.11c-0.08,0.08-0.14,0.16-0.22,0.23c-0.06,0.06-0.12,0.12-0.19,0.17c-0.3,0.27,0.06-0.02,0.05-0.03
					c0.01,0.03-0.39,0.25-0.45,0.28c-0.04,0.02-0.08,0.04-0.12,0.06c-0.16,0.07-0.16,0.08,0,0.01c0.16-0.06,0.16-0.06,0,0
					c-0.06,0.02-0.12,0.04-0.19,0.06c-0.19,0.06-0.38,0.1-0.57,0.15c-0.18,0.04-0.24-0.05,0.14-0.01c-0.08-0.01-0.18,0.02-0.26,0.02
					c-0.2,0.01-0.39-0.01-0.59-0.01c-0.29,0,0.51,0.11,0.07,0.01c-0.13-0.03-0.26-0.05-0.39-0.09c-0.08-0.02-0.16-0.05-0.24-0.07
					c-0.32-0.09,0.11,0.03,0.14,0.07c-0.07-0.09-0.38-0.19-0.48-0.26c-0.05-0.03-0.2-0.17-0.25-0.17c0.04,0,0.36,0.32,0.12,0.08
					c-0.06-0.06-0.12-0.11-0.17-0.17c-0.31-0.32,0.03-0.08,0.01,0.04c-0.01,0.04-0.32-0.69-0.19-0.28c0.12,0.36-0.05-0.35-0.09-0.4
					c0.14,0.19,0.02,0.35,0.03,0.11c0-0.12,0-0.24,0-0.36c0-0.1,0.02-0.19,0.02-0.29c0.01-0.23-0.09,0.47,0.01,0.02
					c0.04-0.18,0.08-0.36,0.14-0.53c0.02-0.08,0.05-0.15,0.08-0.23c0.13-0.4-0.16,0.33-0.04,0.08c0.08-0.16,0.16-0.33,0.26-0.49
					c0.1-0.16,0.49-0.61,0.1-0.2c0.11-0.12,0.21-0.25,0.32-0.37c0.08-0.08,0.42-0.32,0.45-0.41c-0.01,0.04-0.4,0.28-0.11,0.09
					c0.07-0.04,0.13-0.09,0.2-0.13c0.15-0.09,0.41-0.16,0.54-0.28c-0.23,0.22-0.33,0.13-0.09,0.05c0.11-0.04,0.22-0.07,0.34-0.09
					c0.09-0.02,0.21-0.02,0.29-0.06c-0.13,0.06-0.47,0.05-0.12,0.03c0.22-0.01,0.43,0,0.64,0.01c0.17,0.01,0.25,0.11-0.18-0.03
					c0.11,0.03,0.23,0.04,0.34,0.07c0.19,0.05,0.71,0.31,0.18,0.03c0.17,0.09,0.35,0.17,0.51,0.27c0.06,0.04,0.33,0.27,0.08,0.04
					c-0.25-0.23,0.01,0.01,0.06,0.06c0.07,0.06,0.14,0.13,0.2,0.2c0.33,0.35-0.21-0.31,0.01,0c0.6,0.85,1.78,1.34,2.74,0.72
					C504.54,93.13,505.05,91.85,504.41,90.94L504.41,90.94z"/>
			</g>
		</g>
		<g>
			<g>
				<path d="M403.9,239.38c1.2,9.56,4.17,18.76,8.92,27.15c1.27,2.24,4.72,0.23,3.45-2.02c-4.37-7.74-7.27-16.3-8.37-25.13
					c-0.13-1.07-0.82-2-2-2C404.93,237.38,403.77,238.3,403.9,239.38L403.9,239.38z"/>
			</g>
		</g>
		<g>
			<g>
				<path d="M416.02,283.91c0.48,25.16,2.99,50.27,7.51,75.03c1.28,7.02,2.73,14.01,4.33,20.97c0.58,2.51,4.43,1.45,3.86-1.06
					c-5.58-24.26-9.22-48.94-10.81-73.78c-0.45-7.04-0.74-14.09-0.88-21.15C419.97,281.33,415.97,281.33,416.02,283.91
					L416.02,283.91z"/>
			</g>
		</g>
		<g>
			<g>
				<path d="M439.18,387.99c0.25,2.36,0.51,4.72,0.76,7.09c0.06,0.55,0.18,1.01,0.59,1.41c0.35,0.35,0.92,0.61,1.41,0.59
					c0.99-0.04,2.12-0.89,2-2c-0.25-2.36-0.51-4.72-0.76-7.09c-0.06-0.55-0.18-1.01-0.59-1.41c-0.35-0.35-0.92-0.61-1.41-0.59
					C440.19,386.04,439.06,386.88,439.18,387.99L439.18,387.99z"/>
			</g>
		</g>
		<g>
			<g>
				<path d="M447.82,387.17c0,2.78,0,5.55,0,8.33c0,1.05,0.92,2.05,2,2c1.08-0.05,2-0.88,2-2c0-2.78,0-5.55,0-8.33
					c0-1.05-0.92-2.05-2-2C448.74,385.22,447.82,386.05,447.82,387.17L447.82,387.17z"/>
			</g>
		</g>
		<g>
			<g>
				<path d="M446.19,292.24c1.76,21.86,4.22,43.65,7.37,65.35c0.9,6.2,1.86,12.38,2.87,18.56c0.17,1.07,1.5,1.66,2.46,1.4
					c1.13-0.31,1.57-1.39,1.4-2.46c-3.52-21.45-6.35-43-8.47-64.63c-0.6-6.07-1.14-12.14-1.63-18.21
					C449.98,289.69,445.98,289.66,446.19,292.24L446.19,292.24z"/>
			</g>
		</g>
		<g>
			<g>
				<path d="M487.51,287c2.51,22.35,2.33,45,1.77,67.45c-0.15,6.09-0.36,12.18-0.59,18.27c-0.1,2.57,3.9,2.57,4,0
					c0.88-22.48,1.4-45.04,0.26-67.52c-0.31-6.08-0.76-12.15-1.44-18.2c-0.12-1.07-0.83-2-2-2C488.52,285,487.39,285.92,487.51,287
					L487.51,287z"/>
			</g>
		</g>
		<g>
			<g>
				<path d="M514.66,289.71c2.49,20.43,2.96,41.1,1.37,61.62c-0.45,5.86-1.08,11.71-1.86,17.54c-0.14,1.07,1.02,2,2,2
					c1.2,0,1.86-0.92,2-2c2.74-20.4,3.46-41.06,2.13-61.6c-0.38-5.87-0.93-11.72-1.64-17.56c-0.13-1.07-0.83-2-2-2
					C515.68,287.71,514.53,288.63,514.66,289.71L514.66,289.71z"/>
			</g>
		</g>
		<g>
			<g>
				<path d="M495.69,379.26c-0.4,3.32-0.53,6.66-0.39,9.99c0.04,1.04,0.89,2.05,2,2c1.05-0.05,2.05-0.88,2-2
					c-0.14-3.34-0.01-6.68,0.39-9.99c0.13-1.04-1.01-2.04-2-2C496.5,377.31,495.83,378.14,495.69,379.26L495.69,379.26z"/>
			</g>
		</g>
		<g>
			<g>
				<path d="M503.9,380.91c-0.26,3.19-0.51,6.39-0.77,9.58c-0.08,1.05,0.98,2.05,2,2c1.16-0.05,1.91-0.88,2-2
					c0.26-3.19,0.51-6.39,0.77-9.58c0.08-1.05-0.98-2.05-2-2C504.74,378.97,503.99,379.79,503.9,380.91L503.9,380.91z"/>
			</g>
		</g>
		<g>
			<g>
				<path d="M406.73,363.54c0.2,0.83,0.37,1.68,0.5,2.52c0.03,0.2,0.06,0.39,0.09,0.59c-0.05-0.38,0.03,0.28,0.04,0.35
					c0.05,0.43,0.09,0.85,0.12,1.28c0.12,1.71,0.09,3.43-0.06,5.14c-0.09,1.04,0.99,2.05,2,2c1.16-0.05,1.9-0.88,2-2
					c0.33-3.66,0.03-7.37-0.83-10.95c-0.24-1.02-1.46-1.72-2.46-1.4C407.06,361.42,406.47,362.45,406.73,363.54L406.73,363.54z"/>
			</g>
		</g>
		<g>
			<g>
				<path d="M414.61,363.13c0.25,0.81,0.47,1.63,0.65,2.45c0.1,0.45,0.18,0.89,0.26,1.34c0.03,0.19,0.06,0.39,0.09,0.58
					c-0.06-0.39,0.03,0.26,0.04,0.34c0.19,1.72,0.22,3.45,0.1,5.17c-0.07,1.05,0.97,2.05,2,2c1.15-0.05,1.92-0.88,2-2
					c0.26-3.68-0.19-7.43-1.28-10.95c-0.31-1-1.41-1.74-2.46-1.4C415,360.99,414.27,362.06,414.61,363.13L414.61,363.13z"/>
			</g>
		</g>
		<g>
			<g>
				<path d="M390.23,211.91c-2.9,19.51-4.44,39.39-1.36,58.98c0.76,4.83,2.07,9.64,1.46,14.56c-0.59,4.75-1.99,9.44-3.06,14.1
					c-2.13,9.26-4.11,18.71-3.94,28.26c0.17,9.55,2.44,19.31,8.14,27.12c0.64,0.87,1.74,1.3,2.74,0.72c0.86-0.5,1.36-1.86,0.72-2.74
					c-10.72-14.69-7.97-33.84-4.22-50.41c1.05-4.66,2.28-9.3,3.17-13.99c0.42-2.25,0.71-4.54,0.62-6.83
					c-0.1-2.45-0.52-4.88-0.96-7.29c-1.74-9.54-2.49-19.15-2.35-28.84c0.16-10.91,1.31-21.78,2.91-32.56
					c0.16-1.07-0.27-2.15-1.4-2.46C391.75,210.25,390.39,210.83,390.23,211.91L390.23,211.91z"/>
			</g>
		</g>
		<g>
			<g>
				<path class="st8" d="M495.08,228.22c-3.19,8.35-8.29,15.88-14.78,22.02c-1.87,1.77,0.96,4.6,2.83,2.83
					c7.01-6.63,12.38-14.78,15.81-23.78c0.39-1.01-0.43-2.19-1.4-2.46C496.41,226.51,495.46,227.2,495.08,228.22L495.08,228.22z"/>
			</g>
		</g>
		<g>
			<g>
				<path class="st8" d="M486.61,252.94c-4.35,7.75-10.94,13.99-18.88,17.96c-0.97,0.48-1.24,1.85-0.72,2.74
					c0.58,0.98,1.77,1.2,2.74,0.72c8.52-4.25,15.66-11.09,20.32-19.39C491.33,252.72,487.87,250.7,486.61,252.94L486.61,252.94z"/>
			</g>
		</g>
		<g>
			<path class="st12" d="M500.39,63.2c1.12-5.94,4.34-11.35,8.5-15.73c1.31-1.38,2.78-2.67,4.57-3.33c0.3-0.11,0.62-0.2,0.93-0.13
				c0.29,0.07,0.53,0.28,0.72,0.5c0.77,0.88,1.09,2.05,1.37,3.18c2.73,10.87,3.2,21.31-0.32,31.96c-0.07,0.2-0.15,0.42-0.34,0.51
				c-0.28,0.14-0.59-0.08-0.82-0.29c-1.1-0.99-0.98-0.9-1.84-2.11c-0.18-0.25-0.35-0.51-0.43-0.81c-0.11-0.46,0.03-0.94,0.15-1.4
				c0.59-2.31,0.52-4.78-0.19-7.06c-0.1-0.34-0.24-0.69-0.51-0.9c-0.57-0.44-1.39-0.08-1.95,0.36c-0.88,0.7-1.59,1.61-2.05,2.63
				c0.42-3.05,0.59-6.14,0.53-9.22c-1.55,1.06-2.79,2.57-3.54,4.29c-0.23,0.54-0.57,1.2-1.15,1.17c-0.34-0.02-0.61-0.29-0.85-0.53
				c-0.95-1-1.89-2.01-2.84-3.01"/>
		</g>
		<g>
			<path class="st12" d="M446.88,61.25c-1.67-5.71-4.02-11.23-6.99-16.39c-0.74-1.29-1.71-2.69-3.18-2.92
				c-1.1-0.17-2.19,0.39-3.01,1.14c-2.18,2-2.78,5.15-3.2,8.08c-1.44,10.06-2.19,20.25-1.53,30.39c2-2.46,3.99-4.91,5.99-7.37
				c0.29-0.36,0.59-0.73,0.68-1.18c0.09-0.47-0.05-0.95-0.18-1.41c-0.55-2.01-0.77-4.1-0.63-6.18c0.02-0.23,0.05-0.49,0.23-0.63
				c0.32-0.26,0.78,0.03,1.07,0.31c1.09,1.04,2.08,2.19,2.95,3.42c-0.16-2.12-0.32-4.24-0.49-6.36c-0.02-0.25-0.03-0.52,0.12-0.72
				c0.33-0.44,1.03-0.14,1.46,0.21c1.17,0.93,2.26,1.95,3.28,3.04c-0.39-1.42-0.79-2.84-1.18-4.27c1.44,0.43,2.7,1.39,3.51,2.66
				c0.81-0.28,1.19-1.4,0.72-2.12"/>
		</g>
	</g>
	<g>
		<g>
			<path class="st4" d="M246.78,370.25c-1.3-2.42-4.28-5.17-6.61-6.61c-8.52-5.28-9.88-15.31-8.47-25.23
				c4.59-32.07,14.81-64.93,6.21-96.16c-2.5-9.07-6.53-17.68-8.65-26.84c-5.13-22.14,1.17-46.28-6.92-67.53
				c-0.98-2.58-2.19-5.07-3.58-7.45c2.62-4.2,5.01-8.52,6.87-13.1c3.12-7.69,4.67-16.23,2.99-24.36c-0.11-0.53-0.25-1.08-0.63-1.46
				c-0.4-0.39-0.98-0.51-1.53-0.57c-3.37-0.34-6.61,1.21-9.59,2.81c-7.95,4.27-15.54,9.21-22.68,14.73
				c-4.86-2.18-10.03-3.63-15.34-4.21c0,0-19.2-2.27-29.45,2.29c-0.35,0.16-0.7,0.32-1.06,0.48c-5.75-6.91-11.51-13.83-17.27-20.74
				c-1.65-1.98-3.66-4.13-6.23-4.08c-1.86,0.03-3.54,1.3-4.53,2.88c-0.99,1.58-1.42,3.44-1.76,5.27c-2.6,13.8-1.48,28.26,3.09,41.54
				c-1.81,4.64-2.9,9.6-3.7,14.54c-1.94,11.93-2.39,24.07-2.05,36.15c0.23,8.17,0.81,16.46-0.97,24.44
				c-1.58,7.05-4.95,13.59-8.86,19.67c-11.83,18.38-29.03,33.72-36.57,54.13c-0.44-6.91-0.16-13.89,0.13-20.82
				c0.12-2.74,0.23-5.48,0.35-8.21c0.2-4.73,0.4-9.48,1.19-14.15c0.62-3.71,1.61-7.36,2.95-10.87c0.9-2.36,1.96-4.73,2.08-7.25
				c0.12-2.52-0.99-5.31-3.32-6.3c1.25-2.38,2.44-5.34,1.03-7.63c-1.98-3.23-6.95-2.11-10.19-0.16c-5.55,3.35-10.3,8.03-13.72,13.53
				c1.1-2.53-1.71-5.36-4.48-5.39c-2.76-0.02-5.19,1.72-7.39,3.39c-3.27,2.48-6.53,4.95-9.8,7.43c-6.5,4.93-13.5,10.65-14.79,18.71
				c0.11-1.33-1.79-2.04-2.94-1.37c-1.15,0.67-1.64,2.05-2.01,3.33c-2.91,10.13-3.5,20.91-1.73,31.3c-0.9-2.31-4.69-1.82-5.97,0.3
				c-1.28,2.12-0.84,4.81-0.35,7.24c2.05,10.25,4.44,21.15,11.89,28.48c-3.38-0.4-6.77-0.81-10.15-1.21
				c4.84,13.17,14.67,24.42,27.07,30.98c-3.34,0-6.68,0.76-9.69,2.21c8.29,8.03,20.25,11.62,31.79,11.15
				c6.53-0.27,12.92-1.74,19.05-4.04c8.35,11.39,27.75,17.73,40.43,19.68c3.91,0.6,7.93,0.8,11.99,0.75
				c3.03,6.06,10.3,9.33,17.06,8.73c3.63-0.32,7.27-1.69,9.76-4.35c1.94-2.07,1.24-4.56,1.77-7.34c0.34-0.04,2.43-0.17,2.77-0.21
				c16.73-2,25.18-1.38,41.9-3.37c5.87-0.7,11.13-0.33,19.27-0.96c1.73,5.01,5.69,5.43,8.7,5.87c7.15,1.04,14.37,1.49,19.7-0.22
				C246.51,379.19,248.85,374.1,246.78,370.25z"/>
		</g>
		<g>
			<path d="M190.33,150.91c0.79-0.5,1.37-1.46,1.64-2.35c0.27-0.89,0.15-1.91-0.4-2.67c-0.51-0.71-1.32-1.13-2.13-1.47
				c-0.56-0.23-1.15-0.44-1.75-0.42c-1.05,0.02-2.02,0.72-2.54,1.64c-0.52,0.92-0.63,2.02-0.52,3.07c0.08,0.8,0.32,1.64,0.93,2.17
				c0.31,0.27,0.7,0.44,1.09,0.57c1.16,0.39,2.55,0.47,3.52-0.28"/>
			<g>
				<path d="M191.34,152.64c2-1.34,3.14-3.85,2.62-6.22c-0.27-1.26-1.11-2.26-2.14-2.99c-0.36-0.25-0.75-0.46-1.15-0.63
					c-0.54-0.24-1.1-0.49-1.68-0.63c-1.25-0.29-2.53-0.15-3.64,0.51c-0.93,0.56-1.71,1.42-2.14,2.42c-0.94,2.17-0.91,5.1,0.7,6.96
					c0.92,1.07,2.41,1.49,3.76,1.65c1.19,0.14,2.53-0.08,3.51-0.8c0.43-0.32,0.77-0.66,0.92-1.2c0.13-0.48,0.07-1.12-0.2-1.54
					c-0.54-0.83-1.83-1.38-2.74-0.72c-0.14,0.1-0.28,0.18-0.43,0.27c-0.22,0.13,0.41-0.14,0.17-0.07c-0.07,0.02-0.14,0.05-0.21,0.07
					c-0.07,0.02-0.15,0.03-0.22,0.05c-0.26,0.07,0.54-0.03,0.14-0.02c-0.17,0-0.35,0.01-0.52,0c-0.08,0-0.15-0.01-0.23-0.02
					c-0.28-0.02,0.53,0.11,0.13,0.01c-0.15-0.04-0.3-0.06-0.46-0.11c-0.15-0.04-0.3-0.09-0.45-0.14c-0.32-0.11,0.1,0.03,0.13,0.06
					c-0.08-0.06-0.24-0.13-0.33-0.17c-0.24-0.13,0.1-0.04,0.1,0.09c0-0.01-0.17-0.16-0.16-0.16c-0.23-0.22,0.09,0.09,0.1,0.14
					c-0.01-0.05-0.09-0.14-0.12-0.19c-0.02-0.04-0.07-0.17-0.1-0.2c0.21,0.22,0.13,0.36,0.08,0.16c-0.05-0.19-0.1-0.37-0.14-0.56
					c-0.08-0.33,0.01,0.16,0.02,0.19c-0.02-0.07-0.02-0.17-0.03-0.24c-0.02-0.19-0.03-0.38-0.03-0.57c0-0.17,0.01-0.34,0.02-0.51
					c0-0.02,0-0.04,0.01-0.06c0.02-0.22,0.02-0.17-0.02,0.15c0.05-0.05,0.05-0.25,0.06-0.31c0.04-0.16,0.1-0.32,0.14-0.48
					c0.07-0.26-0.24,0.44-0.03,0.07c0.04-0.07,0.08-0.15,0.12-0.22c0.07-0.13,0.17-0.24,0.24-0.37c-0.02,0.03-0.32,0.37-0.1,0.15
					c0.08-0.08,0.15-0.16,0.23-0.23c0.12-0.12,0.21-0.07-0.15,0.1c0.06-0.03,0.13-0.09,0.18-0.12c0.12-0.08,0.27-0.12,0.38-0.21
					c-0.27,0.22-0.37,0.14-0.18,0.08c0.07-0.02,0.14-0.04,0.21-0.06c0.31-0.11-0.2,0.01-0.21,0.02c0.1-0.04,0.24-0.01,0.35-0.01
					c0.33-0.02-0.08-0.01-0.15-0.03c0.07,0.03,0.18,0.03,0.25,0.05c0.19,0.04,0.38,0.1,0.56,0.17c0.07,0.02,0.63,0.23,0.3,0.11
					c-0.29-0.11-0.04-0.01,0.04,0.02c0.11,0.05,0.22,0.1,0.32,0.16c0.14,0.07,0.28,0.15,0.42,0.24c0.07,0.04,0.13,0.09,0.2,0.13
					c0.23,0.14-0.36-0.34-0.08-0.06c0.1,0.09,0.22,0.27,0.33,0.33c-0.05-0.03-0.25-0.4-0.1-0.12c0.04,0.07,0.12,0.28,0.17,0.3
					c-0.04-0.02-0.16-0.47-0.07-0.16c0.03,0.09,0.06,0.18,0.08,0.28c0.02,0.08,0.06,0.35,0.02,0.02c-0.05-0.37,0,0.06,0,0.14
					c0,0.08,0,0.16-0.01,0.23c-0.02,0.39,0.06-0.06,0.02-0.13c0.05,0.09-0.12,0.46-0.15,0.56c-0.02,0.06-0.07,0.15-0.08,0.22
					c0.09-0.44,0.1-0.24,0-0.05c-0.09,0.18-0.2,0.34-0.31,0.51c-0.13,0.21-0.07-0.05,0.1-0.12c-0.07,0.03-0.15,0.17-0.2,0.22
					c-0.07,0.07-0.14,0.13-0.21,0.2c-0.26,0.26,0.37-0.25,0.04-0.04c-0.87,0.58-1.33,1.79-0.72,2.74
					C189.17,152.79,190.41,153.26,191.34,152.64L191.34,152.64z"/>
			</g>
		</g>
		<g>
			<path class="st13" d="M210,208.07c0-0.07-0.01-0.14-0.01-0.21c-0.39-6.17-2.76-13.52-4.19-17.48
				c-3.51-12.89-17.74-22.54-34.78-22.54c-16.78,0-30.83,9.36-34.61,21.96c-1.55,4.26-4.68,13.4-4.68,17.94c0,0,0.12,0.02,0.32,0.04
				c-0.04,0.58-0.06,1.16-0.06,1.75c0,17.39,17.47,31.49,39.03,31.49c21.55,0,39.03-14.1,39.03-31.49
				C210.04,209.06,210.03,208.57,210,208.07z"/>
			<ellipse class="st14" cx="171.02" cy="195.55" rx="33.77" ry="25.29"/>
			<g>
				<defs>
					<ellipse id="SVGID_00000138541293681309755700000005766417576871876285_" cx="171.02" cy="195.25" rx="33.77" ry="25.92"/>
				</defs>
				<clipPath id="SVGID_00000131343642213846012270000011432302453063679889_">
					<use xlink:href="#SVGID_00000138541293681309755700000005766417576871876285_"  style="overflow:visible;"/>
				</clipPath>
				
					<ellipse style="clip-path:url(#SVGID_00000131343642213846012270000011432302453063679889_);fill:#F36161;" cx="171.02" cy="205.16" rx="31.49" ry="22.07"/>
			</g>
			<path class="st4" d="M166.84,228c0,0-4.95-4.79-7.02-1.94c-2.07,2.85,1.6,4.93,1.6,4.93s-3.33,4.13-0.26,6.1
				c3.2,2.05,6.66-2.77,6.66-2.77l7.4-0.08c0,0,3.64,4.94,6.53,2.1c2.89-2.84-1.92-5.91-1.92-5.91s3.3-3.66,0.54-5.89
				c-2.77-2.23-6.42,3.71-6.42,3.71L166.84,228z"/>
		</g>
		<path class="st4" d="M144.47,164.69c-1.03-4.55,48.78-4.85,50.1-1.76s-7.79,12.05-14.84,11.02c-7.05-1.03-12.64-3.82-12.64-3.82
			s0.15,3.23-8.37,2.2C150.2,171.3,144.47,164.69,144.47,164.69z"/>
		<g>
			<path d="M154.76,150.65c0.79-0.5,1.37-1.46,1.64-2.35c0.27-0.89,0.15-1.91-0.4-2.67c-0.51-0.71-1.32-1.13-2.13-1.47
				c-0.56-0.23-1.15-0.44-1.75-0.42c-1.05,0.02-2.02,0.72-2.54,1.64s-0.63,2.02-0.52,3.07c0.08,0.8,0.32,1.64,0.93,2.17
				c0.31,0.27,0.7,0.44,1.09,0.57c1.16,0.39,2.55,0.47,3.52-0.28"/>
			<g>
				<path d="M155.77,152.37c2-1.34,3.14-3.85,2.62-6.22c-0.27-1.26-1.11-2.26-2.14-2.99c-0.36-0.25-0.75-0.46-1.15-0.63
					c-0.54-0.24-1.1-0.49-1.68-0.63c-1.25-0.29-2.53-0.15-3.64,0.51c-0.93,0.56-1.71,1.42-2.14,2.42c-0.94,2.17-0.91,5.1,0.7,6.96
					c0.92,1.07,2.41,1.49,3.76,1.65c1.19,0.14,2.53-0.08,3.51-0.8c0.43-0.32,0.77-0.66,0.92-1.2c0.13-0.48,0.07-1.12-0.2-1.54
					c-0.54-0.83-1.84-1.38-2.74-0.72c-0.14,0.1-0.28,0.18-0.43,0.27c-0.22,0.13,0.41-0.14,0.17-0.07c-0.07,0.02-0.14,0.05-0.21,0.07
					c-0.07,0.02-0.15,0.03-0.22,0.05c-0.26,0.07,0.54-0.03,0.14-0.02c-0.17,0-0.35,0.01-0.52,0c-0.08,0-0.15-0.01-0.23-0.02
					c-0.28-0.02,0.53,0.11,0.13,0.01c-0.15-0.04-0.3-0.06-0.46-0.11c-0.15-0.04-0.3-0.09-0.45-0.14c-0.32-0.11,0.1,0.03,0.13,0.06
					c-0.08-0.06-0.24-0.13-0.33-0.17c-0.24-0.13,0.1-0.04,0.1,0.09c0-0.01-0.17-0.16-0.16-0.16c-0.23-0.22,0.09,0.09,0.1,0.14
					c-0.01-0.05-0.09-0.14-0.12-0.19c-0.02-0.04-0.07-0.17-0.1-0.2c0.21,0.22,0.13,0.36,0.08,0.16c-0.05-0.19-0.1-0.37-0.14-0.56
					c-0.08-0.33,0.01,0.16,0.02,0.19c-0.02-0.07-0.02-0.17-0.03-0.24c-0.02-0.19-0.03-0.38-0.03-0.57c0-0.17,0.01-0.34,0.02-0.51
					c0-0.02,0-0.04,0.01-0.06c0.02-0.22,0.02-0.17-0.02,0.15c0.05-0.05,0.05-0.25,0.06-0.31c0.04-0.16,0.1-0.32,0.14-0.48
					c0.07-0.26-0.24,0.44-0.03,0.07c0.04-0.07,0.08-0.15,0.12-0.22c0.07-0.13,0.17-0.24,0.24-0.37c-0.02,0.03-0.32,0.37-0.1,0.15
					c0.08-0.08,0.15-0.16,0.23-0.23c0.12-0.12,0.21-0.07-0.15,0.1c0.06-0.03,0.13-0.09,0.18-0.12c0.12-0.08,0.27-0.12,0.38-0.21
					c-0.27,0.22-0.37,0.14-0.18,0.08c0.07-0.02,0.14-0.04,0.21-0.06c0.31-0.11-0.2,0.01-0.21,0.02c0.1-0.04,0.24-0.01,0.35-0.01
					c0.33-0.02-0.08-0.01-0.15-0.03c0.07,0.03,0.18,0.03,0.25,0.05c0.19,0.04,0.38,0.1,0.56,0.17c0.07,0.02,0.63,0.23,0.3,0.11
					c-0.29-0.11-0.04-0.01,0.04,0.02c0.11,0.05,0.22,0.1,0.32,0.16c0.14,0.07,0.28,0.15,0.42,0.24c0.07,0.04,0.13,0.09,0.2,0.13
					c0.23,0.14-0.36-0.34-0.08-0.06c0.1,0.09,0.22,0.27,0.33,0.33c-0.05-0.03-0.25-0.4-0.1-0.12c0.04,0.07,0.12,0.28,0.17,0.3
					c-0.04-0.02-0.16-0.47-0.07-0.16c0.03,0.09,0.06,0.18,0.08,0.28c0.02,0.08,0.06,0.35,0.02,0.02c-0.05-0.37,0,0.06,0,0.14
					c0,0.08,0,0.16-0.01,0.23c-0.02,0.39,0.06-0.06,0.02-0.13c0.05,0.09-0.12,0.46-0.15,0.56c-0.02,0.06-0.07,0.15-0.08,0.22
					c0.09-0.44,0.1-0.24,0-0.05c-0.09,0.18-0.2,0.34-0.31,0.51c-0.13,0.21-0.07-0.05,0.1-0.12c-0.07,0.03-0.15,0.17-0.2,0.22
					c-0.07,0.07-0.14,0.13-0.21,0.2c-0.26,0.26,0.37-0.25,0.04-0.04c-0.87,0.58-1.33,1.79-0.72,2.74
					C153.59,152.52,154.84,153,155.77,152.37L155.77,152.37z"/>
			</g>
		</g>
		<g>
			<path d="M169.99,154.17c-1.09,0-2.19,0-3.23,0.29c-1.04,0.3-2.04,0.94-2.51,1.92c-0.42,0.87-0.37,1.91-0.03,2.81
				c0.35,0.9,0.97,1.67,1.66,2.34c0.82,0.78,1.78,1.45,2.89,1.69c2.11,0.45,4.25-0.79,5.73-2.37c0.73-0.78,1.39-1.73,1.44-2.8
				c0.05-1.24-0.78-2.41-1.86-3.02s-2.37-0.76-3.62-0.7"/>
			<g>
				<path d="M169.99,152.17c-2.81-0.01-6.25,0.45-7.55,3.38c-1.3,2.95,0.27,6,2.59,7.9c1.23,1.01,2.59,1.71,4.2,1.85
					c1.44,0.13,2.91-0.33,4.16-1.03c2.29-1.29,4.8-3.88,4.51-6.72c-0.18-1.74-1.2-3.23-2.68-4.16c-1.4-0.88-3.15-1.12-4.77-1.06
					c-1.04,0.04-2.05,0.89-2,2c0.05,1.05,0.88,2.04,2,2c0.46-0.02,0.92-0.01,1.38,0.03c-0.36-0.03,0.24,0.05,0.34,0.07
					c0.13,0.03,0.25,0.06,0.38,0.1c0.03,0.01,0.38,0.13,0.22,0.07c-0.2-0.08,0.16,0.08,0.2,0.11c0.08,0.04,0.15,0.09,0.23,0.13
					c0.31,0.17,0.08,0.05,0.01-0.01c0.07,0.05,0.13,0.11,0.19,0.17c0.1,0.1,0.39,0.47,0.19,0.17c0.07,0.11,0.35,0.64,0.2,0.26
					c0.04,0.1,0.06,0.22,0.1,0.32c0.04,0.11,0.02,0.36,0.02-0.04c0,0.12,0,0.5,0.04,0.18c-0.01,0.11-0.23,0.71-0.09,0.41
					c-0.11,0.23-0.24,0.44-0.38,0.66c-0.01,0.01-0.19,0.26-0.07,0.11c0.13-0.17-0.12,0.13-0.15,0.17c-0.15,0.17-0.3,0.33-0.46,0.49
					c-0.16,0.16-0.33,0.31-0.5,0.46c-0.07,0.06-0.15,0.13-0.22,0.19c0.21-0.17-0.05,0.03-0.14,0.09c-0.19,0.13-0.38,0.25-0.57,0.36
					c-0.08,0.05-0.17,0.09-0.25,0.14c-0.04,0.02-0.4,0.19-0.19,0.1c0.19-0.08-0.1,0.03-0.11,0.04c-0.12,0.04-0.24,0.08-0.36,0.11
					c-0.09,0.03-0.18,0.05-0.27,0.07c-0.16,0.04-0.4,0.05-0.11,0.03c-0.22,0.02-0.44-0.01-0.65,0.01c-0.29,0.03,0.26,0.08-0.03,0
					c-0.09-0.02-0.18-0.04-0.28-0.06c-0.12-0.03-0.24-0.07-0.36-0.11c-0.02-0.01-0.29-0.13-0.11-0.04c0.21,0.1-0.14-0.08-0.18-0.1
					c-0.11-0.06-0.22-0.12-0.32-0.19c-0.08-0.05-0.53-0.38-0.28-0.19c-0.17-0.14-0.34-0.29-0.5-0.44c-0.16-0.15-0.32-0.31-0.48-0.48
					c-0.09-0.09-0.17-0.19-0.26-0.29c-0.08-0.09-0.16-0.22-0.04-0.05c-0.15-0.21-0.28-0.43-0.4-0.65c-0.01-0.01-0.14-0.29-0.06-0.11
					c0.08,0.18-0.04-0.11-0.04-0.12c-0.04-0.12-0.07-0.25-0.1-0.37c-0.02-0.08-0.04-0.37-0.02-0.04c-0.01-0.1-0.01-0.19-0.01-0.29
					c0-0.09,0.07-0.48-0.01-0.14c0.02-0.09,0.05-0.19,0.07-0.28c0.05-0.2-0.12,0.16,0.05-0.12c0.04-0.07,0.09-0.14,0.13-0.22
					c0.09-0.17-0.2,0.16,0.06-0.05c0.09-0.07,0.17-0.16,0.25-0.23c-0.14,0.13-0.15,0.1,0.01,0.01c0.1-0.06,0.2-0.12,0.3-0.17
					c0.16-0.09,0.17-0.09-0.01-0.02c0.22-0.09,0.46-0.16,0.7-0.22c0.14-0.03,0.28-0.06,0.42-0.09c0.07-0.01,0.14-0.02,0.21-0.03
					c-0.14,0.02-0.14,0.02,0.01,0.01c0.62-0.05,1.23-0.05,1.85-0.05c1.05,0,2.05-0.92,2-2
					C171.94,153.08,171.11,152.17,169.99,152.17L169.99,152.17z"/>
			</g>
		</g>
		<g>
			<g>
				<path d="M146.54,169.89c3.78,2.4,7.71,4.75,12.25,5.21c2,0.2,4.13,0.01,6.02-0.74c1.03-0.41,1.91-0.95,2.83-1.57
					c0.11-0.07,0.78-0.58,0.78-0.58c0.24-0.01,0.66,0.52,0.83,0.66c1.68,1.38,3.71,2.1,5.82,2.53c2.24,0.46,4.62,0.9,6.9,0.57
					c2.16-0.32,4.06-1.39,5.93-2.46c2.19-1.25,4.39-2.5,6.58-3.75c2.24-1.27,0.22-4.73-2.02-3.45c-2.06,1.17-4.11,2.34-6.17,3.51
					c-1.66,0.95-3.36,2.09-5.32,2.26c-1.97,0.16-4.12-0.31-6.02-0.81c-0.87-0.23-1.7-0.51-2.47-0.98c-0.85-0.52-1.49-1.3-2.41-1.71
					c-2.11-0.95-3.69,0.35-5.39,1.41c-1.53,0.96-3.3,1.25-5.08,1.17c-4.08-0.19-7.7-2.61-11.04-4.73
					C146.38,165.06,144.37,168.52,146.54,169.89L146.54,169.89z"/>
			</g>
		</g>
		<g>
			<g>
				<path d="M170.82,169.62c0-1.45,0-2.9,0-4.35c0-0.51-0.22-1.05-0.59-1.41c-0.35-0.35-0.92-0.61-1.41-0.59
					c-0.52,0.02-1.05,0.19-1.41,0.59c-0.36,0.39-0.59,0.87-0.59,1.41c0,1.45,0,2.9,0,4.35c0,0.51,0.22,1.05,0.59,1.41
					c0.35,0.35,0.92,0.61,1.41,0.59c0.52-0.02,1.05-0.19,1.41-0.59C170.59,170.64,170.82,170.16,170.82,169.62L170.82,169.62z"/>
			</g>
		</g>
		<g>
			<g>
				<path class="st16" d="M109.75,298.01c1.67,11.13,2.09,22.43,1.34,33.65c-0.17,2.57,3.83,2.56,4,0
					c0.77-11.6,0.25-23.22-1.48-34.72c-0.16-1.07-1.51-1.66-2.46-1.4C110,295.86,109.59,296.94,109.75,298.01L109.75,298.01z"/>
			</g>
		</g>
		<g>
			<g>
				<path class="st16" d="M113.85,337.16c-0.24,0.95-0.55,1.87-0.93,2.77c0.07-0.16,0.13-0.32,0.2-0.48
					c-0.42,0.99-0.91,1.95-1.48,2.86c-0.55,0.89-0.22,2.24,0.72,2.74c0.98,0.52,2.14,0.23,2.74-0.72c1.17-1.88,2.06-3.96,2.61-6.11
					c0.26-1.01-0.33-2.22-1.4-2.46C115.27,335.52,114.13,336.07,113.85,337.16L113.85,337.16z"/>
			</g>
		</g>
		<g>
			<g>
				<path class="st16" d="M115.66,345.12c-1.48,1.97-2.6,4.19-3.38,6.52c-0.33,0.99,0.38,2.23,1.4,2.46c1.1,0.25,2.11-0.33,2.46-1.4
					c0.17-0.51,0.36-1.01,0.56-1.51c-0.07,0.16-0.13,0.32-0.2,0.48c0.68-1.62,1.56-3.14,2.62-4.54c0.29-0.39,0.32-1.1,0.2-1.54
					c-0.13-0.46-0.49-0.97-0.92-1.2c-0.46-0.25-1.03-0.37-1.54-0.2C116.33,344.38,115.99,344.68,115.66,345.12L115.66,345.12z"/>
			</g>
		</g>
		<g>
			<g>
				<path class="st16" d="M115.43,361.14c1.88,9.69,3.95,19.73,9.76,27.94c0.62,0.88,1.75,1.3,2.74,0.72
					c0.87-0.51,1.35-1.85,0.72-2.74c-5.63-7.94-7.54-17.61-9.36-26.98C118.8,357.55,114.94,358.62,115.43,361.14L115.43,361.14z"/>
			</g>
		</g>
		<g>
			<g>
				<path class="st16" d="M130.86,379.61c0.63,2.02,1.25,4.05,1.88,6.07c0.31,1,1.41,1.74,2.46,1.4c1-0.33,1.73-1.39,1.4-2.46
					c-0.63-2.02-1.25-4.05-1.88-6.07c-0.31-1-1.41-1.74-2.46-1.4C131.25,377.48,130.52,378.54,130.86,379.61L130.86,379.61z"/>
			</g>
		</g>
		<g>
			<g>
				<path class="st16" d="M138.7,378.72c0.26,2.01,0.51,4.03,0.77,6.04c0.07,0.55,0.18,1.01,0.59,1.41
					c0.35,0.35,0.92,0.61,1.41,0.59c0.52-0.02,1.05-0.19,1.41-0.59c0.33-0.36,0.65-0.9,0.59-1.41c-0.26-2.01-0.51-4.03-0.77-6.04
					c-0.07-0.55-0.18-1.01-0.59-1.41c-0.35-0.35-0.92-0.61-1.41-0.59c-0.52,0.02-1.05,0.19-1.41,0.59
					C138.95,377.66,138.63,378.2,138.7,378.72L138.7,378.72z"/>
			</g>
		</g>
		<g>
			<g>
				<path class="st16" d="M144.53,302.71c-0.77,11.39-1.54,22.78-2.13,34.19c-0.29,5.58-0.65,11.19-0.66,16.78
					c-0.01,5.33,0.66,10.51,2.7,15.46c1.93,4.69,5.16,9.92,3.66,15.16c-0.71,2.48,3.15,3.54,3.86,1.06
					c1.41-4.94-0.38-9.7-2.33-14.21c-0.99-2.29-2.04-4.55-2.71-6.96c-0.73-2.59-1.03-5.26-1.14-7.94
					c-0.21-5.61,0.21-11.27,0.49-16.87c0.28-5.7,0.61-11.4,0.97-17.1c0.41-6.52,0.85-13.04,1.29-19.57
					C148.7,300.14,144.7,300.15,144.53,302.71L144.53,302.71z"/>
			</g>
		</g>
		<g>
			<g>
				<path class="st16" d="M203.5,310.76c1.02,10.12,2.03,20.23,3.05,30.35c0.5,4.97,1,9.95,1.5,14.92
					c0.46,4.62,0.64,9.49,2.27,13.89c1.58,4.26,4.54,7.94,8.94,9.43c2.44,0.83,3.49-3.03,1.06-3.86
					c-7.86-2.67-7.71-13.78-8.38-20.45c-0.94-9.37-1.88-18.74-2.82-28.11c-0.54-5.39-1.08-10.78-1.62-16.17c-0.11-1.07-0.84-2-2-2
					C204.51,308.76,203.4,309.68,203.5,310.76L203.5,310.76z"/>
			</g>
		</g>
		<g>
			<g>
				<path class="st16" d="M229,372.8c0.77,0.37,1.49,0.8,2.18,1.3c0.34,0.25-0.36-0.3-0.04-0.03c0.07,0.06,0.15,0.12,0.22,0.18
					c0.16,0.14,0.32,0.28,0.48,0.42c0.31,0.29,0.61,0.59,0.9,0.9c0.13,0.14,0.25,0.29,0.38,0.44c0.07,0.09,0.14,0.19,0.22,0.27
					c-0.38-0.41-0.12-0.15-0.03-0.04c0.25,0.34,0.48,0.7,0.7,1.06c0.21,0.35,0.39,0.71,0.57,1.07c0.04,0.09,0.08,0.18,0.12,0.26
					c0.17,0.37-0.16-0.4-0.02-0.05c0.08,0.22,0.16,0.43,0.24,0.65c0.34,0.99,1.39,1.74,2.46,1.4c0.98-0.32,1.76-1.4,1.4-2.46
					c-1.3-3.81-4.08-7.11-7.74-8.84c-0.49-0.23-1-0.35-1.54-0.2c-0.46,0.13-0.97,0.49-1.2,0.92
					C227.82,370.95,227.99,372.32,229,372.8L229,372.8z"/>
			</g>
		</g>
		<g>
			<g>
				<path class="st16" d="M237.11,369.89c0.19,0.13,0.39,0.25,0.57,0.39c0.06,0.04,0.12,0.09,0.19,0.14
					c-0.05-0.04-0.11-0.08-0.16-0.12c0.07,0.01,0.19,0.15,0.24,0.2c0.37,0.32,0.72,0.66,1.05,1.02c0.16,0.17,0.3,0.35,0.45,0.53
					c0.24,0.29-0.12-0.18,0.02,0.02c0.06,0.08,0.12,0.17,0.18,0.25c0.28,0.4,0.53,0.82,0.76,1.25c0.11,0.2,0.21,0.41,0.31,0.62
					c0.02,0.04,0.16,0.36,0.05,0.11c-0.12-0.27,0.05,0.14,0.07,0.19c0.16,0.43,0.3,0.87,0.41,1.32c0.06,0.25,0.12,0.5,0.16,0.75
					c0,0.02,0.06,0.3,0.05,0.3c0.01,0-0.05-0.45,0,0c0.05,0.49,0.07,0.97,0.06,1.46c-0.02,1.05,0.93,2.05,2,2
					c1.1-0.05,1.98-0.88,2-2c0.09-4.75-2.41-9.31-6.39-11.88c-0.88-0.57-2.25-0.21-2.74,0.72
					C235.87,368.14,236.17,369.28,237.11,369.89L237.11,369.89z"/>
			</g>
		</g>
		<g>
			<g>
				<path class="st16" d="M78.24,270.74c-5.69,6.76-9.1,15.4-11.68,23.75c-2.94,9.5-4.33,19.23-4.46,29.17
					c-0.09,6.8,0.3,13.6,0.73,20.38c0.16,2.56,4.16,2.57,4,0c-0.72-11.41-1.42-23.02,0.28-34.38c1.25-8.37,3.7-16.76,7.14-24.5
					c1.81-4.08,3.93-8.17,6.82-11.6C82.71,271.62,79.9,268.77,78.24,270.74L78.24,270.74z"/>
			</g>
		</g>
		<g>
			<g>
				<path class="st16" d="M27.23,261.81c-0.46,11.11,1.91,22.17,6.76,32.16c1.12,2.32,4.57,0.29,3.45-2.02
					c-4.54-9.36-6.64-19.75-6.21-30.14C31.34,259.23,27.34,259.24,27.23,261.81L27.23,261.81z"/>
			</g>
		</g>
		<g>
			<g>
				<path class="st16" d="M23.24,285.9c2.05,6.15,4.5,12.16,7.32,18c0.47,0.97,1.86,1.23,2.74,0.72c0.99-0.58,1.19-1.76,0.72-2.74
					c-2.67-5.53-4.98-11.22-6.92-17.04c-0.34-1.02-1.38-1.69-2.46-1.4C23.63,283.71,22.89,284.87,23.24,285.9L23.24,285.9z"/>
			</g>
		</g>
		<g>
			<g>
				<path class="st16" d="M17.52,318.08c5.42,9.42,14.63,16.43,25.17,19.12c2.5,0.64,3.56-3.22,1.06-3.86
					c-9.56-2.44-17.85-8.73-22.78-17.28C19.69,313.83,16.23,315.84,17.52,318.08L17.52,318.08z"/>
			</g>
		</g>
		<g>
			<g>
				<path class="st16" d="M24.57,336.73c2.09,3.3,5.51,5.75,9.36,6.49c1.02,0.2,2.21-0.29,2.46-1.4c0.23-0.99-0.3-2.25-1.4-2.46
					c-0.81-0.16-1.58-0.4-2.34-0.7c-0.24-0.09,0.46,0.21,0.07,0.03c-0.08-0.04-0.15-0.07-0.23-0.11c-0.19-0.09-0.38-0.18-0.56-0.28
					c-0.37-0.2-0.73-0.42-1.07-0.65c-0.16-0.11-0.31-0.22-0.46-0.33c-0.2-0.14,0.33,0.27,0.06,0.04c-0.08-0.07-0.16-0.13-0.24-0.2
					c-0.3-0.26-0.6-0.53-0.88-0.81c-0.29-0.3-0.57-0.61-0.83-0.94c-0.17-0.21,0.04,0.03,0.08,0.11c-0.05-0.09-0.13-0.17-0.18-0.25
					c-0.13-0.19-0.26-0.38-0.38-0.57c-0.56-0.88-1.81-1.32-2.74-0.72C24.4,334.57,23.97,335.79,24.57,336.73L24.57,336.73z"/>
			</g>
		</g>
		<g>
			<g>
				<path class="st16" d="M54.69,251.53c-3.4,7.52-4.89,15.76-4.15,23.99c0.1,1.08,0.85,2,2,2c1.01,0,2.1-0.92,2-2
					c-0.67-7.5,0.5-15.09,3.61-21.97c0.44-0.98,0.28-2.15-0.72-2.74C56.57,250.31,55.14,250.54,54.69,251.53L54.69,251.53z"/>
			</g>
		</g>
		<g>
			<path class="st12" d="M200.84,124.5c6.73-6.62,14.63-12.04,23.23-15.95c1.99,3.63,1.01,8.14-0.35,12.06
				c-2.03,5.82-4.81,11.42-8.6,16.28c-0.38,0.49-0.79,0.98-1.36,1.24c-1.56,0.7-3.2-0.75-4.3-2.06c0.78-1.36,1.56-2.72,2.35-4.07
				c0.23-0.41,0.47-0.91,0.23-1.31c-0.33-0.55-1.17-0.37-1.75-0.09c-1.29,0.6-2.53,1.28-3.74,2.04c1.2-1.68,2.32-3.43,3.34-5.23
				c0.19-0.34,0.39-0.74,0.28-1.11c-0.23-0.76-1.33-0.65-2.07-0.35c-1.77,0.72-3.46,1.66-5.01,2.79c-0.22,0.16-0.46,0.33-0.72,0.28
				c-0.22-0.04-0.38-0.21-0.51-0.38c-0.75-0.95-1.18-2.14-1.21-3.35"/>
		</g>
		<g>
			<path class="st12" d="M142.82,118.77c-5.27-6.64-11.99-13.37-17.26-20.01c-0.13-0.17-0.29-0.35-0.51-0.37
				c-0.2-0.01-0.37,0.12-0.52,0.25c-2.05,1.83-2.47,4.83-2.67,7.58c-0.74,10.52,0.1,21.39,4.5,30.97c1.44-1.57,2.89-3.13,4.33-4.7
				c0.44-0.48,0.91-1.03,0.88-1.68c-0.02-0.47-0.3-0.87-0.55-1.27c-1.04-1.63-1.76-3.45-2.13-5.34c-0.05-0.27-0.1-0.57,0.02-0.82
				c0.31-0.68,1.33-0.47,1.98-0.11c1.23,0.68,2.37,1.51,3.4,2.46c-1.31-2.02-2.04-4.42-2.07-6.83c1.59,1.08,3.17,2.17,4.76,3.25
				c0.19,0.13,0.38,0.26,0.6,0.29c0.29,0.04,0.57-0.08,0.83-0.21c1.55-0.76,2.99-1.75,4.25-2.94"/>
		</g>
		<g>
			<g>
				<path class="st16" d="M205.83,335.58c-3.55,10.79-10.45,20.02-17.16,29.03c-0.65,0.87-0.14,2.23,0.72,2.74
					c1.02,0.6,2.09,0.15,2.74-0.72c6.95-9.32,13.9-18.83,17.57-29.98C210.5,334.19,206.64,333.14,205.83,335.58L205.83,335.58z"/>
			</g>
		</g>
		<g>
			<g>
				<path class="st16" d="M144.76,353.69c3.5,0.55,6.82,1.74,10.14,2.94c2.89,1.05,5.8,2.19,8.13,4.26c2.04,1.8,3.67,4.04,4.73,6.54
					c0.54,1.26,0.91,2.6,1.16,3.94c0.13,0.68,0.19,1.37,0.22,2.07c0.01,0.35-0.07,0.79,0.01,1.12c0.13,0.53-0.33,0.43,0.32,0.05
					c-2.22,1.3-0.21,4.75,2.02,3.45c1.67-0.98,1.73-2.89,1.65-4.62c-0.07-1.67-0.33-3.35-0.79-4.95c-0.96-3.39-2.75-6.55-5.16-9.12
					c-2.59-2.78-5.84-4.53-9.34-5.89c-3.89-1.51-7.89-3-12.03-3.65c-1.07-0.17-2.15,0.27-2.46,1.4
					C143.11,352.18,143.69,353.52,144.76,353.69L144.76,353.69z"/>
			</g>
		</g>
		<g>
			<g>
				<path class="st16" d="M151.93,370.31c0.6,0.48,1.13,1.03,1.61,1.64c-0.1-0.13-0.21-0.27-0.31-0.4c0.55,0.71,1,1.48,1.35,2.31
					c-0.07-0.16-0.13-0.32-0.2-0.48c0.28,0.68,0.49,1.39,0.62,2.11c0.08,0.47,0.52,0.96,0.92,1.2c0.43,0.25,1.06,0.36,1.54,0.2
					c0.48-0.16,0.95-0.46,1.2-0.92c0.26-0.5,0.3-0.99,0.2-1.54c-0.48-2.66-1.99-5.24-4.09-6.94c-0.43-0.35-0.85-0.59-1.41-0.59
					c-0.49,0-1.08,0.22-1.41,0.59c-0.35,0.38-0.61,0.88-0.59,1.41C151.37,369.39,151.53,369.98,151.93,370.31L151.93,370.31z"/>
			</g>
		</g>
		<g>
			<g>
				<path class="st16" d="M158.27,367.58c0.51,0.46,0.95,0.96,1.4,1.48c0.16,0.19-0.25-0.33-0.1-0.13c0.06,0.08,0.12,0.16,0.17,0.23
					c0.09,0.13,0.18,0.25,0.26,0.38c0.19,0.29,0.37,0.59,0.54,0.89c0.16,0.29,0.31,0.58,0.44,0.88c0.03,0.07,0.06,0.14,0.09,0.21
					c0.1,0.22-0.19-0.49-0.05-0.1c0.05,0.15,0.11,0.29,0.16,0.44c0.23,0.66,0.41,1.34,0.53,2.02c0.08,0.47,0.52,0.96,0.92,1.2
					c0.43,0.25,1.06,0.36,1.54,0.2c1.11-0.36,1.59-1.35,1.4-2.46c-0.54-3.07-2.18-5.99-4.49-8.08c-0.78-0.7-2.07-0.82-2.83,0
					C157.57,365.52,157.45,366.83,158.27,367.58L158.27,367.58z"/>
			</g>
		</g>
		<g>
			<g>
				<path class="st16" d="M91.01,292.45c1.95,0.86,3.78,1.94,5.48,3.22c-0.15-0.11-0.16-0.13-0.01,0c0.11,0.09,0.22,0.17,0.33,0.26
					c0.19,0.16,0.39,0.32,0.58,0.49c0.4,0.35,0.79,0.71,1.17,1.08c0.78,0.76,1.51,1.57,2.19,2.43c0.66,0.82,2.15,0.74,2.83,0
					c0.8-0.87,0.7-1.95,0-2.83c-2.79-3.48-6.46-6.3-10.54-8.1c-0.96-0.42-2.19-0.31-2.74,0.72C89.83,290.58,89.99,292,91.01,292.45
					L91.01,292.45z"/>
			</g>
		</g>
		<g>
			<g>
				<path class="st16" d="M201.73,246.09c0.04,0.05,0.49,0.62,0.31,0.38c0.16,0.21,0.32,0.43,0.48,0.64
					c0.31,0.43,0.61,0.88,0.89,1.33c0.57,0.9,1.08,1.84,1.54,2.81c0.11,0.24,0.22,0.49,0.33,0.73c0.09,0.22,0.11,0.24,0.03,0.07
					c0.05,0.12,0.1,0.25,0.15,0.37c0.2,0.5,0.38,1,0.55,1.51c0.34,1.01,0.61,2.05,0.83,3.09c0.21,1.03,1.48,1.71,2.46,1.4
					c1.08-0.35,1.63-1.36,1.4-2.46c-0.98-4.68-3.13-9-6.15-12.7c-0.66-0.81-2.15-0.74-2.83,0
					C200.94,244.13,201.03,245.22,201.73,246.09L201.73,246.09z"/>
			</g>
		</g>
		<g>
			<g>
				<path class="st16" d="M197.75,257.89c1.81,6.07,2.35,12.38,1.65,18.68c-0.12,1.08,1,2,2,2c1.18,0,1.88-0.92,2-2
					c0.73-6.62,0.1-13.36-1.8-19.74C200.88,254.36,197.02,255.41,197.75,257.89L197.75,257.89z"/>
			</g>
		</g>
		<g>
			<g>
				<path class="st16" d="M192.52,270.95c-0.19,5.52-2.95,10.75-7.42,14.21c-0.86,0.66-0.7,2.13,0,2.83c0.84,0.84,1.97,0.66,2.83,0
					c5.22-4.04,8.36-10.46,8.59-17.03c0.04-1.08-0.95-2-2-2C193.4,268.95,192.56,269.87,192.52,270.95L192.52,270.95z"/>
			</g>
		</g>
		<g>
			<g>
				<path class="st16" d="M123.58,189.73c-0.54,4.19,0.39,8.52,2.48,12.17c0.52,0.91,1.84,1.3,2.74,0.72
					c0.92-0.59,1.27-1.76,0.72-2.74c-0.92-1.61-1.42-2.93-1.82-4.92c-0.04-0.22-0.08-0.44-0.12-0.67c-0.02-0.1-0.03-0.19-0.04-0.29
					c0.03,0.21,0.03,0.2,0-0.04c-0.04-0.45-0.08-0.9-0.1-1.35c-0.03-0.97,0.02-1.93,0.14-2.89c0.13-1.04-1.02-2.04-2-2
					C124.38,187.79,123.72,188.62,123.58,189.73L123.58,189.73z"/>
			</g>
		</g>
	</g>
	<g>
		<g>
			<path class="st4" d="M692.13,327.31c-3.35-10.17-10.48-18.61-17.89-26.34c-6.96-7.26-14.31-14.14-22.02-20.6
				c-8.3-6.95-17.02-13.45-24.59-21.19c-1.95-2-3.83-4.1-5.59-6.29c0.04-2.96,0.1-5.93,0.12-8.89c0.05-7.84,0-15.85-1.14-23.59
				c5.08-2.58,9.7-6.13,13.62-10.29c6.47-6.88,11.08-15.35,14.23-24.25c2-5.66,3.22-12.56-0.64-17.15
				c-2.61-3.11-6.98-4.26-11.03-3.94c-4.04,0.33-7.86,1.93-11.58,3.55c-9.05,3.92-18.31,8.23-25.6,14.71
				c-0.93-0.49-1.89-0.94-2.86-1.32c-6.88-2.71-14.43-3.03-21.82-3.03c-4.75,0-9.67,0.17-13.94,2.23
				c-6.54-8.12-14.33-15.24-23.05-20.97c-4.18-2.75-9.46-5.24-14-3.14c-3.19,1.47-5.06,4.87-6.02,8.25
				c-2.45,8.57-0.41,17.78,2.53,26.19c2.76,7.9,6.39,15.66,12.05,21.83c1.54,1.68,3.35,3.24,5.32,4.47
				c-0.03,0.09-0.07,0.19-0.1,0.28c-3.56,10.11-5.1,20.8-6.1,31.47c-2.16,23.24-1.6,47.45,7.74,68.84
				c2.08,4.77,4.57,9.34,6.88,13.99c1.26,2.53,2.47,5.08,3.53,7.69c0.99,2.44,2.28,5.27,2.59,7.91c0.25,2.15,0.4,4.39,0.37,6.57
				c-0.05,4.65-0.95,9.29-2.66,13.62c-1.07,2.71-2.46,5.32-3.02,8.18c-0.56,2.86-0.13,6.13,1.98,8.13
				c3.78,3.59,10.09,1.14,14.07-2.24c4.58-3.89,8.27-8.82,10.7-14.3c7.44,1.69,15.37,1.12,22.49-1.62
				c-0.95,6.02-1.11,12.48,1.7,17.88c2.81,5.4,9.38,9.23,15.12,7.2c5.54-1.95,8.25-8.27,9.02-14.1c0.21-1.61,0.39-3.37,1.53-4.52
				c0.73-0.74,1.76-1.1,2.74-1.43c4.01-1.37,8.02-2.74,12.03-4.11c-0.18,2.81-3.19,4.68-3.77,7.44c-0.83,3.96,3.74,7.06,7.78,7.31
				c10.24,0.64,18.15-8.25,26.83-13.73c5.69-3.59,12.28-5.93,17.05-10.69C694.31,349.76,695.49,337.47,692.13,327.31z"/>
		</g>
		<g>
			<g>
				<path class="st5" d="M541.2,276.43c1.99,8.32,6.35,15.99,12.46,21.97c1.84,1.8,4.67-1.02,2.83-2.83
					c-5.64-5.53-9.59-12.53-11.43-20.21C544.46,272.86,540.6,273.92,541.2,276.43L541.2,276.43z"/>
			</g>
		</g>
		<g>
			<g>
				<path class="st5" d="M551.37,285.31c3.44,3.21,7.16,6.14,11.09,8.74c0.87,0.58,2.25,0.2,2.74-0.72c0.53-1,0.22-2.12-0.72-2.74
					c-0.93-0.62-1.85-1.25-2.76-1.91c-0.45-0.33-0.9-0.66-1.35-1c-0.11-0.08-0.21-0.16-0.31-0.24c-0.03-0.02-0.32-0.24-0.19-0.14
					s-0.16-0.13-0.19-0.15c-0.13-0.1-0.26-0.2-0.39-0.3c-1.76-1.39-3.45-2.85-5.09-4.38c-0.77-0.71-2.08-0.81-2.83,0
					C550.65,283.26,550.55,284.55,551.37,285.31L551.37,285.31z"/>
			</g>
		</g>
		<g>
			<g>
				<path class="st5" d="M589.14,290.32c6.51-4.88,12.04-10.9,16.29-17.84c1.35-2.2-2.11-4.21-3.45-2.02
					c-3.87,6.33-8.92,11.95-14.85,16.41c-0.86,0.65-1.31,1.73-0.72,2.74C586.9,290.46,588.28,290.98,589.14,290.32L589.14,290.32z"
					/>
			</g>
		</g>
		<g>
			<g>
				<path class="st5" d="M609.38,264.62c-0.91,5.03-2.97,9.81-6.17,13.79c-0.68,0.84-0.82,2.01,0,2.83c0.7,0.7,2.15,0.85,2.83,0
					c3.63-4.52,6.17-9.83,7.2-15.55c0.19-1.06-0.29-2.16-1.4-2.46C610.88,262.95,609.58,263.55,609.38,264.62L609.38,264.62z"/>
			</g>
		</g>
		<g>
			<defs>
				<path id="SVGID_00000114073188945877116420000017202273661043625608_" d="M692.13,327.31c-3.35-10.17-10.48-18.61-17.89-26.34
					c-6.96-7.26-14.31-14.14-22.02-20.6c-8.3-6.95-17.02-13.45-24.59-21.19c-1.95-2-3.83-4.1-5.59-6.29
					c0.04-2.96,0.1-5.93,0.12-8.89c0.05-7.84,0-15.85-1.14-23.59c5.08-2.58,9.7-6.13,13.62-10.29c6.47-6.88,11.08-15.35,14.23-24.25
					c2-5.66,3.22-12.56-0.64-17.15c-2.61-3.11-6.98-4.26-11.03-3.94c-4.04,0.33-7.86,1.93-11.58,3.55
					c-9.05,3.92-18.31,8.23-25.6,14.71c-0.93-0.49-1.89-0.94-2.86-1.32c-6.88-2.71-14.43-3.03-21.82-3.03
					c-4.75,0-9.67,0.17-13.94,2.23c-6.54-8.12-14.33-15.24-23.05-20.97c-4.18-2.75-9.46-5.24-14-3.14
					c-3.19,1.47-5.06,4.87-6.02,8.25c-2.45,8.57-0.41,17.78,2.53,26.19c2.76,7.9,6.39,15.66,12.05,21.83
					c1.54,1.68,3.35,3.24,5.32,4.47c-0.03,0.09-0.07,0.19-0.1,0.28c-3.56,10.11-5.1,20.8-6.1,31.47
					c-2.16,23.24-1.6,47.45,7.74,68.84c2.08,4.77,4.57,9.34,6.88,13.99c1.26,2.53,2.47,5.08,3.53,7.69
					c0.99,2.44,2.28,5.27,2.59,7.91c0.25,2.15,0.4,4.39,0.37,6.57c-0.05,4.65-0.95,9.29-2.66,13.62c-1.07,2.71-2.46,5.32-3.02,8.18
					c-0.56,2.86-0.13,6.13,1.98,8.13c3.78,3.59,10.09,1.14,14.07-2.24c4.58-3.89,8.27-8.82,10.7-14.3
					c7.44,1.69,15.37,1.12,22.49-1.62c-0.95,6.02-1.11,12.48,1.7,17.88c2.81,5.4,9.38,9.23,15.12,7.2c5.54-1.95,8.25-8.27,9.02-14.1
					c0.21-1.61,0.39-3.37,1.53-4.52c0.73-0.74,1.76-1.1,2.74-1.43c4.01-1.37,8.02-2.74,12.03-4.11c-0.18,2.81-3.19,4.68-3.77,7.44
					c-0.83,3.96,3.74,7.06,7.78,7.31c10.24,0.64,18.15-8.25,26.83-13.73c5.69-3.59,12.28-5.93,17.05-10.69
					C694.31,349.76,695.49,337.47,692.13,327.31z"/>
			</defs>
			<clipPath id="SVGID_00000103224520106476928240000015257460227596702898_">
				<use xlink:href="#SVGID_00000114073188945877116420000017202273661043625608_"  style="overflow:visible;"/>
			</clipPath>
			<g style="clip-path:url(#SVGID_00000103224520106476928240000015257460227596702898_);">
				<path class="st18" d="M626.38,241.17c0.53,5.93-4.45,3.64-4.04,9.58c1.02,14.44-8.09,27.69-18.56,37.69
					c-2.03,1.94-4.27,3.77-5.59,6.25c-6.62,12.37,1.93,17.45,2.76,22.51s4.95,10.49,5.15,15.61c0.32,8.29-2.93,16.82-0.42,24.74
					c2.28,7.22,9.63,12.5,17.19,12.38c0.49-0.01,1.02-0.05,1.4-0.36c0.39-0.32,0.54-0.85,0.67-1.34c1.93-7.58,3.86-15.15,5.79-22.73
					c4.22,0.7,8.66,0.02,12.48-1.92c3.91-1.99,7.39-6.2,11.17-3.96c-9.01,7.33-8.99,16.49-10.99,25.48
					c4.26-2.45,8.58-4.93,13.33-6.17s10.07-1.12,14.27,1.43c2.43,1.48,4.4,3.7,6.98,4.89c4.76,2.19,10.49,0.35,14.77-2.68
					c7.99-5.65,12.74-15.09,14.28-24.75s0.16-19.57-2.21-29.06c-3.01-12.09-7.65-23.86-14.64-34.16s-16.43-19.11-27.69-24.42
					c-10.92-5.15-23.22-6.91-34.05-12.26c0.16,0.87,0.32,1.73,0.48,2.6"/>
			</g>
			<g style="clip-path:url(#SVGID_00000103224520106476928240000015257460227596702898_);">
				<path class="st18" d="M531.15,227.16c3.81,3.39,8.19,6.14,12.9,8.09c2.09,0.86,4.56,1.55,6.52,0.42
					c1.68-0.97,2.45-3.05,2.47-4.99c0.05-3.54-1.87-6.87-1.93-10.4c-0.1-5.65,4.49-10.29,9.34-13.18c3.9-2.31,8.34-4.12,11.01-7.78
					c3.54-4.85,2.93-11.5,1.79-17.39c-1.35-6.96-3.27-13.93-7.07-19.91c-3.43-5.4-8.29-9.81-13.66-13.29
					c-7.3-4.74-15.83-7.9-24.53-7.69c-8.7,0.21-17.51,4.13-22.49,11.26c-2.23,3.19-3.64,6.89-4.6,10.67
					c-1.25,4.89-1.76,10.02-1.05,15.02c0.72,5.11,2.68,9.95,4.63,14.73c2.62,6.44,5.29,12.97,9.47,18.53
					c2.62,3.49,5.79,6.53,8.94,9.55c1.74,1.67,3.68,3.43,6.08,3.61"/>
			</g>
			<g style="clip-path:url(#SVGID_00000103224520106476928240000015257460227596702898_);">
				<path class="st18" d="M631.92,228.71c-5.91,5.47-12.5,11.25-20.54,11.77c-3.48,0.22-7.76-1.4-8.05-4.87
					c-0.16-1.85,0.9-3.55,1.84-5.15c1.37-2.33,2.57-4.77,3.58-7.28c0.82-2.03,1.47-4.47,0.28-6.3c-0.89-1.37-2.54-1.97-4.06-2.57
					c-4.76-1.88-9.24-4.48-13.23-7.7c-1.66-1.33-3.26-2.81-4.26-4.68c-2.13-3.97-1.2-8.82-0.21-13.22c0.87-3.88,1.76-7.8,3.46-11.4
					c3.11-6.54,8.69-11.52,14.36-16.03c6.93-5.51,14.41-10.69,22.95-13.03c5.61-1.53,11.57-1.78,17.29-0.72
					c11.61,2.16,22.35,10.43,25.65,21.77c1.99,6.84,1.22,14.28-1.17,20.99s-6.31,12.78-10.64,18.43
					c-6.26,8.17-13.74,15.85-23.29,19.68"/>
			</g>
			<g style="clip-path:url(#SVGID_00000103224520106476928240000015257460227596702898_);">
				<path class="st18" d="M525.94,240.42c2.37,7.79,6.66,14.99,12.39,20.77c3.09,3.12,6.61,5.86,9.15,9.44
					c2.3,3.24,3.71,7.1,4.04,11.06c0.59,7.08-2.2,13.96-3.16,21c-2.06,15.07,4.51,30.39,14.68,41.71c1.66,1.85,3.45,3.66,4.45,5.93
					c0.85,1.91,1.08,4.04,1.16,6.13c0.13,3.55-0.32,7.5-2.95,9.9c-2.91,2.65-7.34,2.42-11.26,2.04c-3.45-0.34-7.04-0.72-9.95-2.6
					c-2.45-1.58-4.16-4.08-5.6-6.62c-5.78-10.25-8-22.05-11.09-33.4c-3.6-13.22-8.47-26.11-11.06-39.56
					c-2.59-13.45-2.73-27.85,2.89-40.34c1.32-2.93,3.46-6.06,6.66-6.27"/>
			</g>
		</g>
		<g>
			<path class="st13" d="M613.76,264.9c0-0.07-0.01-0.15-0.01-0.22c-0.42-6.52-2.92-14.3-4.44-18.48
				c-3.71-13.63-18.77-23.84-36.78-23.84c-17.74,0-32.61,9.9-36.6,23.23c-1.64,4.51-4.95,14.17-4.95,18.98c0,0,0.13,0.02,0.34,0.05
				c-0.04,0.61-0.07,1.23-0.07,1.85c0,18.39,18.48,33.3,41.28,33.3c22.8,0,41.28-14.91,41.28-33.3
				C613.81,265.95,613.79,265.43,613.76,264.9z"/>
			<ellipse class="st14" cx="572.54" cy="251.66" rx="35.71" ry="26.74"/>
			<g>
				<defs>
					<ellipse id="SVGID_00000142144661400104465630000001641774869213799317_" cx="572.54" cy="251.34" rx="35.71" ry="27.41"/>
				</defs>
				<clipPath id="SVGID_00000062910505328149605850000006569861114648851345_">
					<use xlink:href="#SVGID_00000142144661400104465630000001641774869213799317_"  style="overflow:visible;"/>
				</clipPath>
				
					<ellipse style="clip-path:url(#SVGID_00000062910505328149605850000006569861114648851345_);fill:#F36161;" cx="572.54" cy="261.81" rx="33.3" ry="23.35"/>
			</g>
			<path class="st4" d="M568.12,285.97c0,0-5.24-5.06-7.43-2.05c-2.19,3.01,1.69,5.21,1.69,5.21s-3.52,4.37-0.28,6.45
				c3.38,2.16,7.04-2.93,7.04-2.93l7.83-0.08c0,0,3.85,5.23,6.91,2.22c3.06-3.01-2.03-6.25-2.03-6.25s3.49-3.87,0.57-6.23
				c-2.92-2.36-6.79,3.93-6.79,3.93L568.12,285.97z"/>
		</g>
		<path class="st4" d="M554.66,215.17c0,4.15,1.74,12.12,7.99,11.76c6.26-0.36,10.99-2.65,10.99-2.65s7.14,5.63,13,4.87
			c5.85-0.76,11.81-2.97,11.81-2.97l0.91-10.75l-26.04-8.16L554.66,215.17z"/>
		<g>
			<path d="M570.12,206.69c-0.32-0.09-0.66,0.1-0.91,0.32c-1.32,1.11-1.73,3.08-1.25,4.74c0.48,1.66,1.73,3.02,3.19,3.95
				c0.92,0.58,1.97,1.02,3.06,1c1.19-0.02,2.31-0.59,3.32-1.24c1.31-0.83,2.54-1.81,3.5-3.03c0.54-0.68,0.99-1.47,1.04-2.34
				c0.05-0.93-0.4-1.85-1.06-2.51c-0.66-0.66-1.51-1.1-2.39-1.43c-2.35-0.88-4.96-1.03-7.39-0.43c-0.55,0.14-1.22,0.52-1.07,1.07"/>
			<g>
				<path d="M570.12,204.69c-1.99-0.21-3.47,1.93-4.03,3.57c-0.5,1.47-0.42,3.19,0.15,4.63c1.24,3.11,4.7,6.01,8.2,5.8
					c1.84-0.11,3.49-1.03,4.96-2.08c1.44-1.03,2.81-2.23,3.76-3.75c1.05-1.68,1.18-3.67,0.22-5.42c-0.94-1.7-2.7-2.67-4.47-3.3
					c-1.88-0.66-3.98-0.92-5.96-0.71c-1.03,0.1-2.13,0.23-3.07,0.68c-0.99,0.48-1.87,1.52-1.73,2.69c0.13,1.07,0.82,2,2,2
					c0.98,0,2.14-0.92,2-2c0.04,0.31-0.39,0.78-0.57,0.93c0.08-0.07,0.23-0.05,0.08-0.06c-0.22-0.01,0.16-0.03,0.22-0.05
					c0.12-0.03,0.24-0.06,0.37-0.08c0.51-0.1,0.99-0.16,1.58-0.17c1.2-0.04,2.17,0.08,3.31,0.4c1.02,0.29,1.93,0.61,2.6,1.39
					c-0.03-0.03-0.12-0.17,0.02,0.02c0.08,0.12,0.16,0.24,0.22,0.37c0.03,0.06,0.08,0.15,0.11,0.43c-0.02-0.2-0.05,0.14-0.05,0.15
					c-0.08,0.31-0.11,0.33-0.27,0.6c-0.92,1.53-2.94,3.1-4.59,3.73c-0.91,0.35-1.64,0.29-2.41-0.15c-0.27-0.15-0.53-0.3-0.79-0.47
					c-0.06-0.04-0.44-0.32-0.29-0.2c-0.23-0.18-0.44-0.38-0.64-0.58c-0.08-0.08-0.15-0.16-0.22-0.24c-0.03-0.03-0.3-0.35-0.17-0.18
					c-0.18-0.22-0.33-0.47-0.46-0.72c-0.05-0.09-0.1-0.19-0.15-0.29c-0.07-0.15,0,0.06-0.08-0.22c-0.08-0.26-0.16-0.52-0.19-0.79
					c0.05,0.33,0.01-0.36,0.01-0.47c-0.01-0.37,0-0.18-0.01-0.07c0.02-0.13,0.05-0.26,0.08-0.39c0.03-0.13,0.07-0.25,0.11-0.38
					c0.02-0.06,0.05-0.12,0.07-0.19c-0.06,0.15-0.06,0.15,0,0.03c0.05-0.08,0.1-0.17,0.15-0.26c0.04-0.05,0.07-0.11,0.11-0.16
					c-0.09,0.12-0.1,0.12-0.01,0.02c0.33-0.36,0.09-0.05-0.15-0.08c1.08,0.11,2-1,2-2C572.12,205.51,571.2,204.8,570.12,204.69
					L570.12,204.69z"/>
			</g>
		</g>
		<g>
			<g>
				<path d="M553.3,221.83c0.6,3.23,3.57,5.23,6.43,6.34c3.4,1.32,7.01,1.07,10.26-0.52c0.82-0.4,1.57-0.9,2.29-1.45
					c0.13-0.1,0.43-0.27,0.52-0.41c-0.19,0.29-0.53-0.3-0.32,0.12c0.14,0.29,0.98,0.63,1.26,0.8c1.71,1.05,3.51,1.93,5.38,2.68
					c3.46,1.38,7.3,2.1,11.03,1.71c4.05-0.43,7.84-1.96,10.83-4.77c1.88-1.77-0.95-4.59-2.83-2.83c-6.31,5.92-15.73,3.84-22.4-0.24
					c-0.79-0.48-1.57-1.14-2.5-1.35c-1.33-0.31-2.27,0.3-3.28,1.06c-1.54,1.15-3.36,2.01-5.31,2.1c-2.68,0.12-6.96-1.28-7.52-4.29
					C556.69,218.24,552.83,219.31,553.3,221.83L553.3,221.83z"/>
			</g>
		</g>
		<g>
			<g>
				<path d="M571.29,218.58c0.03,1.6-0.03,3.2-0.19,4.79c-0.05,0.48,0.26,1.09,0.59,1.41c0.35,0.35,0.92,0.61,1.41,0.59
					c0.52-0.02,1.05-0.19,1.41-0.59c0.38-0.41,0.53-0.86,0.59-1.41c0.16-1.59,0.22-3.19,0.19-4.79c-0.01-0.52-0.22-1.04-0.59-1.41
					c-0.35-0.35-0.92-0.61-1.41-0.59C572.23,216.63,571.27,217.46,571.29,218.58L571.29,218.58z"/>
			</g>
		</g>
		<g>
			<g>
				<path d="M586.55,219.3c2.57,0,2.58-4,0-4C583.98,215.3,583.98,219.3,586.55,219.3L586.55,219.3z"/>
			</g>
		</g>
		<g>
			<g>
				<path d="M582.4,224.1c2.57,0,2.58-4,0-4C579.82,220.1,579.82,224.1,582.4,224.1L582.4,224.1z"/>
			</g>
		</g>
		<g>
			<g>
				<path d="M588.79,224.26c2.57,0,2.58-4,0-4C586.22,220.26,586.21,224.26,588.79,224.26L588.79,224.26z"/>
			</g>
		</g>
		<g>
			<g>
				<path d="M561.78,217.86c2.57,0,2.58-4,0-4C559.21,213.86,559.2,217.86,561.78,217.86L561.78,217.86z"/>
			</g>
		</g>
		<g>
			<g>
				<path d="M561.14,223.14c2.57,0,2.58-4,0-4C558.57,219.14,558.56,223.14,561.14,223.14L561.14,223.14z"/>
			</g>
		</g>
		<g>
			<g>
				<path d="M566.41,221.7c2.57,0,2.58-4,0-4C563.84,217.7,563.84,221.7,566.41,221.7L566.41,221.7z"/>
			</g>
		</g>
		<g>
			<path d="M562.34,195.64c-0.96,0.34-1.5,1.4-1.59,2.42c-0.04,0.44-0.01,0.91,0.25,1.27c0.31,0.43,0.85,0.6,1.36,0.74
				c0.73,0.2,1.6,0.37,2.16-0.13c0.21-0.19,0.6-0.67,0.72-0.92c0.27-0.56,0.27-0.92,0.32-1.54c0.04-0.62-0.19-1.29-0.71-1.63
				c-0.35-0.23-0.8-0.27-1.21-0.23c-0.43,0.04-1.05,0-1.54,0.15"/>
			<g>
				<path d="M561.81,193.71c-0.59,0.22-0.98,0.44-1.46,0.84c-0.32,0.26-0.58,0.61-0.8,0.95c-0.48,0.73-0.68,1.57-0.78,2.42
					c-0.12,1.05,0.17,2.15,0.91,2.93c0.61,0.64,1.46,0.96,2.29,1.18c0.84,0.22,1.77,0.35,2.62,0.09c0.96-0.29,1.57-0.95,2.14-1.72
					c0.51-0.69,0.71-1.49,0.79-2.33c0.09-0.9,0-1.73-0.39-2.56c-0.55-1.19-1.76-1.8-3.02-1.9c-0.33-0.02-0.66,0.01-0.98,0.03
					c-0.52,0.02-1.06,0.05-1.56,0.2c-0.49,0.14-0.94,0.48-1.2,0.92c-0.25,0.43-0.36,1.06-0.2,1.54c0.33,1.02,1.38,1.7,2.46,1.4
					c0.13-0.04,0.25-0.06,0.38-0.08c-0.18,0.02-0.35,0.05-0.53,0.07c0.29-0.04,0.58-0.04,0.87-0.05c0.28-0.01,0.55-0.04,0.83-0.01
					c-0.18-0.02-0.35-0.05-0.53-0.07c0.16,0.02,0.3,0.06,0.45,0.12c-0.16-0.07-0.32-0.13-0.48-0.2c0.11,0.05,0.22,0.11,0.32,0.19
					c-0.13-0.1-0.27-0.21-0.4-0.31c0.09,0.07,0.16,0.15,0.24,0.24c-0.1-0.13-0.21-0.27-0.31-0.4c0.08,0.11,0.15,0.23,0.21,0.35
					c-0.07-0.16-0.13-0.32-0.2-0.48c0.07,0.17,0.12,0.35,0.14,0.54c-0.02-0.18-0.05-0.35-0.07-0.53c0.04,0.35,0,0.72-0.04,1.08
					c0.02-0.18,0.05-0.35,0.07-0.53c-0.03,0.25-0.1,0.49-0.2,0.73c0.07-0.16,0.13-0.32,0.2-0.48c-0.09,0.21-0.22,0.4-0.36,0.58
					c0.1-0.13,0.21-0.27,0.31-0.4c-0.15,0.19-0.3,0.38-0.49,0.54c0.13-0.1,0.27-0.21,0.4-0.31c-0.09,0.07-0.19,0.12-0.29,0.17
					c0.16-0.07,0.32-0.13,0.48-0.2c-0.13,0.05-0.26,0.08-0.39,0.1c0.18-0.02,0.35-0.05,0.53-0.07c-0.21,0.02-0.43,0.01-0.64-0.01
					c0.18,0.02,0.35,0.05,0.53,0.07c-0.48-0.07-0.96-0.2-1.41-0.37c0.16,0.07,0.32,0.13,0.48,0.2c-0.18-0.07-0.34-0.16-0.5-0.28
					c0.13,0.1,0.27,0.21,0.4,0.31c-0.07-0.06-0.14-0.13-0.2-0.2c0.1,0.13,0.21,0.27,0.31,0.4c-0.08-0.1-0.14-0.21-0.19-0.33
					c0.07,0.16,0.13,0.32,0.2,0.48c-0.04-0.12-0.07-0.24-0.09-0.37c0.02,0.18,0.05,0.35,0.07,0.53c-0.03-0.26-0.02-0.51,0.01-0.76
					c-0.02,0.18-0.05,0.35-0.07,0.53c0.05-0.32,0.13-0.63,0.25-0.93c-0.07,0.16-0.13,0.32-0.2,0.48c0.1-0.23,0.22-0.45,0.38-0.65
					c-0.1,0.13-0.21,0.27-0.31,0.4c0.13-0.16,0.26-0.3,0.42-0.42c-0.13,0.1-0.27,0.21-0.4,0.31c0.13-0.09,0.26-0.17,0.4-0.23
					c-0.16,0.07-0.32,0.13-0.48,0.2c0.04-0.02,0.08-0.03,0.13-0.05c0.5-0.18,0.92-0.45,1.2-0.92c0.25-0.43,0.36-1.06,0.2-1.54
					c-0.16-0.48-0.46-0.95-0.92-1.2C562.89,193.68,562.31,193.53,561.81,193.71L561.81,193.71z"/>
			</g>
		</g>
		<g>
			<path d="M593.67,199.07c-0.96,0.34-1.5,1.4-1.59,2.42c-0.04,0.44-0.01,0.91,0.25,1.27c0.31,0.43,0.85,0.6,1.36,0.74
				c0.73,0.2,1.6,0.37,2.16-0.13c0.21-0.19,0.6-0.67,0.72-0.92c0.27-0.56,0.27-0.92,0.32-1.54c0.04-0.62-0.19-1.29-0.71-1.63
				c-0.35-0.23-0.8-0.27-1.21-0.23c-0.43,0.04-1.05,0-1.54,0.15"/>
			<g>
				<path d="M593.14,197.15c-0.59,0.22-0.98,0.44-1.46,0.84c-0.32,0.26-0.58,0.61-0.8,0.95c-0.48,0.73-0.68,1.57-0.78,2.42
					c-0.12,1.05,0.17,2.15,0.91,2.93c0.61,0.64,1.46,0.96,2.29,1.18c0.84,0.22,1.77,0.35,2.62,0.09c0.96-0.29,1.57-0.95,2.14-1.72
					c0.51-0.69,0.71-1.49,0.79-2.33c0.09-0.9,0-1.73-0.39-2.56c-0.55-1.19-1.76-1.8-3.02-1.9c-0.33-0.02-0.66,0.01-0.98,0.03
					c-0.52,0.02-1.06,0.05-1.56,0.2c-0.49,0.14-0.94,0.48-1.2,0.92c-0.25,0.43-0.36,1.06-0.2,1.54c0.33,1.02,1.38,1.7,2.46,1.4
					c0.13-0.04,0.25-0.06,0.38-0.08c-0.18,0.02-0.35,0.05-0.53,0.07c0.29-0.04,0.58-0.04,0.87-0.05c0.28-0.01,0.55-0.04,0.83-0.01
					c-0.18-0.02-0.35-0.05-0.53-0.07c0.16,0.02,0.3,0.06,0.45,0.12c-0.16-0.07-0.32-0.13-0.48-0.2c0.11,0.05,0.22,0.11,0.32,0.19
					c-0.13-0.1-0.27-0.21-0.4-0.31c0.09,0.07,0.16,0.15,0.24,0.24c-0.1-0.13-0.21-0.27-0.31-0.4c0.08,0.11,0.15,0.23,0.21,0.35
					c-0.07-0.16-0.13-0.32-0.2-0.48c0.07,0.17,0.12,0.35,0.14,0.54c-0.02-0.18-0.05-0.35-0.07-0.53c0.04,0.35,0,0.72-0.04,1.08
					c0.02-0.18,0.05-0.35,0.07-0.53c-0.03,0.25-0.1,0.49-0.2,0.73c0.07-0.16,0.13-0.32,0.2-0.48c-0.09,0.21-0.22,0.4-0.36,0.58
					c0.1-0.13,0.21-0.27,0.31-0.4c-0.15,0.19-0.3,0.38-0.49,0.54c0.13-0.1,0.27-0.21,0.4-0.31c-0.09,0.07-0.19,0.12-0.29,0.17
					c0.16-0.07,0.32-0.13,0.48-0.2c-0.13,0.05-0.26,0.08-0.39,0.1c0.18-0.02,0.35-0.05,0.53-0.07c-0.21,0.02-0.43,0.01-0.64-0.01
					c0.18,0.02,0.35,0.05,0.53,0.07c-0.48-0.07-0.96-0.2-1.41-0.37c0.16,0.07,0.32,0.13,0.48,0.2c-0.18-0.07-0.34-0.16-0.5-0.28
					c0.13,0.1,0.27,0.21,0.4,0.31c-0.07-0.06-0.14-0.13-0.2-0.2c0.1,0.13,0.21,0.27,0.31,0.4c-0.08-0.1-0.14-0.21-0.19-0.33
					c0.07,0.16,0.13,0.32,0.2,0.48c-0.04-0.12-0.07-0.24-0.09-0.37c0.02,0.18,0.05,0.35,0.07,0.53c-0.03-0.26-0.02-0.51,0.01-0.76
					c-0.02,0.18-0.05,0.35-0.07,0.53c0.05-0.32,0.13-0.63,0.25-0.93c-0.07,0.16-0.13,0.32-0.2,0.48c0.1-0.23,0.22-0.45,0.38-0.65
					c-0.1,0.13-0.21,0.27-0.31,0.4c0.13-0.16,0.26-0.3,0.42-0.42c-0.13,0.1-0.27,0.21-0.4,0.31c0.13-0.09,0.26-0.17,0.4-0.23
					c-0.16,0.07-0.32,0.13-0.48,0.2c0.04-0.02,0.08-0.03,0.13-0.05c0.5-0.18,0.92-0.45,1.2-0.92c0.25-0.43,0.36-1.06,0.2-1.54
					c-0.16-0.48-0.46-0.95-0.92-1.2C594.22,197.11,593.64,196.96,593.14,197.15L593.14,197.15z"/>
			</g>
		</g>
		<g>
			<g>
				<path class="st5" d="M565.02,358c1.5,3.64,3.75,7.23,6.94,9.62c1.61,1.2,3.52,1.71,5.44,2.13c2.13,0.47,4.26,0.94,6.39,1.41
					c1.05,0.23,2.16-0.32,2.46-1.4c0.28-1-0.34-2.23-1.4-2.46c-1.86-0.41-3.71-0.82-5.57-1.23c-1.65-0.36-3.4-0.61-4.83-1.57
					c-1.21-0.81-2.24-2.05-3.09-3.22c-0.98-1.35-1.85-2.81-2.49-4.36c-0.41-1-1.33-1.71-2.46-1.4C565.47,355.8,564.6,357,565.02,358
					L565.02,358z"/>
			</g>
		</g>
		<g>
			<g>
				<path class="st5" d="M550.67,373.64c-0.32,0.37-0.62,0.76-0.88,1.18c-0.26,0.43-0.46,0.9-0.64,1.36
					c-0.31,0.78-0.45,1.65-0.47,2.49c-0.02,0.5,0.23,1.06,0.59,1.41c0.35,0.35,0.92,0.61,1.41,0.59c0.52-0.02,1.05-0.19,1.41-0.59
					c0.37-0.4,0.57-0.87,0.59-1.41c0.01-0.2,0.02-0.4,0.05-0.6c-0.02,0.18-0.05,0.35-0.07,0.53c0.07-0.52,0.21-1.02,0.41-1.5
					c-0.07,0.16-0.13,0.32-0.2,0.48c0.2-0.46,0.45-0.89,0.75-1.29c-0.1,0.13-0.21,0.27-0.31,0.4c0.06-0.08,0.12-0.16,0.19-0.23
					c0.35-0.41,0.59-0.86,0.59-1.41c0-0.49-0.22-1.08-0.59-1.41c-0.38-0.35-0.88-0.61-1.41-0.59
					C551.57,373.08,551.01,373.25,550.67,373.64L550.67,373.64z"/>
			</g>
		</g>
		<g>
			<g>
				<path class="st5" d="M556.27,376.37c-0.97,1.32-1.7,2.79-2.25,4.33c-0.17,0.47-0.04,1.13,0.2,1.54c0.24,0.41,0.72,0.81,1.2,0.92
					c0.51,0.12,1.09,0.09,1.54-0.2c0.46-0.29,0.73-0.68,0.92-1.2c0.09-0.26,0.19-0.51,0.3-0.76c-0.07,0.16-0.13,0.32-0.2,0.48
					c0.46-1.09,1.05-2.13,1.75-3.08c0.29-0.39,0.33-1.09,0.2-1.54c-0.13-0.46-0.49-0.97-0.92-1.2c-0.46-0.25-1.03-0.37-1.54-0.2
					c-0.16,0.07-0.32,0.13-0.48,0.2C556.69,375.83,556.45,376.07,556.27,376.37L556.27,376.37z"/>
			</g>
		</g>
		<g>
			<g>
				<path class="st5" d="M598.9,340.63c-2.26,11.22-3.78,22.59-4.57,34.01c-0.18,2.57,3.82,2.56,4,0
					c0.76-11.07,2.24-22.07,4.43-32.94C603.27,339.18,599.41,338.11,598.9,340.63L598.9,340.63z"/>
			</g>
		</g>
		<g>
			<g>
				<path class="st5" d="M604.16,378.88c0.22,1.66,0.21,3.34,0,5c0.02-0.18,0.05-0.35,0.07-0.53c-0.08,0.59-0.19,1.18-0.32,1.77
					c-0.23,1.02,0.31,2.21,1.4,2.46c1.02,0.23,2.21-0.31,2.46-1.4c0.55-2.39,0.71-4.87,0.4-7.3c-0.07-0.55-0.18-1-0.59-1.41
					c-0.35-0.35-0.92-0.61-1.41-0.59c-0.52,0.02-1.05,0.19-1.41,0.59C604.42,377.82,604.1,378.36,604.16,378.88L604.16,378.88z"/>
			</g>
		</g>
		<g>
			<g>
				<path class="st5" d="M610.7,380.15c0.05,1.63-0.03,3.25-0.25,4.86c0.02-0.18,0.05-0.35,0.07-0.53c-0.1,0.72-0.22,1.43-0.37,2.13
					c-0.22,1.02,0.3,2.21,1.4,2.46c1,0.23,2.23-0.3,2.46-1.4c0.52-2.47,0.77-5,0.69-7.53c-0.03-1.04-0.9-2.05-2-2
					C611.64,378.2,610.66,379.03,610.7,380.15L610.7,380.15z"/>
			</g>
		</g>
		<g>
			<g>
				<path class="st5" d="M631.32,336.33c-2.47,14.77-10.36,28.03-12.06,42.99c-0.12,1.07,1.01,2,2,2c1.18,0,1.88-0.92,2-2
					c1.65-14.56,9.51-27.53,11.92-41.93c0.18-1.06-0.28-2.15-1.4-2.46C632.83,334.67,631.5,335.26,631.32,336.33L631.32,336.33z"/>
			</g>
		</g>
		<g>
			<g>
				<path class="st5" d="M637.94,372.26c0.84-1.45,1.98-2.75,3.17-3.92c1.38-1.36,2.94-2.22,3.61-4.16c0.66-1.91,0.77-4.04,1.27-6
					c0.48-1.91,1.08-3.78,1.8-5.61c2.83-7.17,7.76-13.54,14.4-17.53c2.2-1.32,0.2-4.78-2.02-3.45c-5.47,3.29-9.94,8-13.16,13.5
					c-1.65,2.81-2.97,5.83-3.99,8.93c-0.49,1.51-0.91,3.04-1.25,4.59c-0.31,1.42-0.28,3.35-0.98,4.63
					c-0.37,0.68-1.18,1.09-1.76,1.58c-0.56,0.48-1.08,1.01-1.58,1.56c-1.09,1.19-2.17,2.47-2.98,3.88
					C633.2,372.48,636.65,374.49,637.94,372.26L637.94,372.26z"/>
			</g>
		</g>
		<g>
			<g>
				<path class="st5" d="M641.24,370.7c-0.79,0.64-1.45,1.38-2.06,2.18c-0.52,0.68-0.96,1.41-1.31,2.2
					c-0.15,0.23-0.23,0.48-0.24,0.74c-0.06,0.27-0.05,0.53,0.04,0.8c0.13,0.46,0.49,0.97,0.92,1.2c0.46,0.25,1.03,0.37,1.54,0.2
					c0.46-0.15,0.99-0.45,1.2-0.92c0.35-0.78,0.79-1.52,1.31-2.2c-0.1,0.13-0.21,0.27-0.31,0.4c0.51-0.66,1.1-1.25,1.75-1.78
					c0.37-0.3,0.59-0.96,0.59-1.41c0-0.49-0.22-1.08-0.59-1.41c-0.38-0.35-0.88-0.61-1.41-0.59c-0.18,0.02-0.35,0.05-0.53,0.07
					C641.79,370.28,641.49,370.45,641.24,370.7L641.24,370.7z"/>
			</g>
		</g>
		<g>
			<g>
				<path class="st5" d="M647.71,371.55c-1.8,1.53-3.1,3.54-3.92,5.74c-0.17,0.46-0.04,1.13,0.2,1.54c0.24,0.41,0.72,0.81,1.2,0.92
					c0.51,0.12,1.09,0.09,1.54-0.2c0.46-0.3,0.73-0.68,0.92-1.2c0.07-0.18,0.13-0.35,0.21-0.52c-0.07,0.16-0.13,0.32-0.2,0.48
					c0.39-0.91,0.89-1.76,1.49-2.55c-0.1,0.13-0.21,0.27-0.31,0.4c0.51-0.65,1.08-1.25,1.71-1.79c0.37-0.32,0.59-0.94,0.59-1.41
					c0-0.49-0.22-1.08-0.59-1.41c-0.38-0.35-0.88-0.61-1.41-0.59C648.57,370.99,648.13,371.2,647.71,371.55L647.71,371.55z"/>
			</g>
		</g>
		<g>
			<path class="st5" d="M606.04,187.62c6.39-5.31,13.53-9.67,20.95-13.42c3.41-1.72,6.95-3.34,10.75-3.78
				c1.82-0.21,3.72-0.13,5.4,0.6c1.68,0.73,3.11,2.2,3.46,4c0.25,1.29-0.07,2.62-0.41,3.89c-3.95,14.35-12.94,27.26-25.02,35.94
				c-0.36,0.26-0.75,0.52-1.2,0.51c-0.88-0.02-1.34-1.04-1.54-1.9c-0.39-1.65-0.63-3.34-0.71-5.03c-0.02-0.41-0.02-0.84,0.16-1.21
				c0.22-0.45,0.67-0.72,1.09-0.99c1.22-0.78,2.34-1.7,3.35-2.73c0.73-0.74,1.43-1.67,1.34-2.7c-0.11-1.35-1.59-2.24-2.94-2.21
				s-2.59,0.73-3.76,1.4c1.61-1.75,3.08-3.62,4.41-5.6c0.4-0.6,0.8-1.32,0.55-1.99c-0.24-0.61-0.94-0.91-1.59-1.01
				c-2.87-0.47-5.59,1.35-7.72,3.33c-2.3-2.01-4.89-4.42-6.47-7.03"/>
		</g>
		<g>
			<path class="st5" d="M555.07,183.85c-4.25-4.62-8.64-9.11-13.15-13.48c-3.68-3.56-7.64-7.14-12.55-8.57
				c-1.73-0.5-3.71-0.69-5.23,0.28c-1.2,0.77-1.88,2.12-2.35,3.47c-2.5,7.25-0.01,15.22,3.08,22.24c2.26,5.13,4.84,10.12,7.74,14.93
				c1.68,2.79,3.53,5.59,6.23,7.43c0.36,0.24,0.82,0.48,1.21,0.28c0.22-0.12,0.36-0.35,0.48-0.58c1.31-2.47,2.63-4.95,3.94-7.42
				c-2.01-2.41-3.64-5.14-4.83-8.05c-0.24-0.6-0.47-1.27-0.22-1.87c0.51-1.25,2.41-0.97,3.47-0.14c1.06,0.83,1.99,2.06,3.34,2.12
				c-1.59-2.42-2.77-5.11-3.47-7.92c-0.08-0.31-0.14-0.64-0.02-0.93c0.24-0.54,0.99-0.59,1.58-0.5c2.61,0.4,5.07,1.78,6.77,3.81
				c1-1.53,2.97-3.47,4.52-4.44"/>
		</g>
	</g>
</g>
</svg>
