<svg width="37" height="37" viewBox="0 0 37 37" fill="none" xmlns="http://www.w3.org/2000/svg">
<circle cx="18.5" cy="18.5" r="17.5" stroke="#8A6F4E" stroke-width="2"/>
<path d="M28.0482 17.3997L25.4386 15.8853C25.6672 15.6853 25.8862 15.4282 26.0481 15.1425C26.8386 13.7805 26.372 12.0281 25.0005 11.2376C24.1814 10.7614 23.2195 10.7614 22.4099 11.1042L22.4195 11.0947L21.5813 11.4662L21.4766 10.5518L21.467 10.5614C21.3813 9.69467 20.8766 8.85655 20.0575 8.38035C18.686 7.59461 16.9431 8.06605 16.1431 9.428C15.9812 9.71372 15.8764 10.028 15.8193 10.3328L13.2001 8.82798C12.2858 8.30416 11.1239 8.60893 10.6 9.52324L9.17143 11.9995C8.90476 12.4567 9.06667 13.0376 9.52383 13.2948L11.1715 14.2472L15.1907 16.5711H9V26.0952C9 27.1524 9.85717 28 10.9048 28H26.1434C27.2006 28 28.0482 27.1524 28.0482 26.0952V21.2093L28.7435 19.9998C29.2673 19.0854 28.9625 17.9235 28.0482 17.3997ZM22.7528 13.2376C23.01 12.7614 23.6004 12.6281 24.0481 12.8852C24.5052 13.1519 24.6671 13.7138 24.4005 14.1901C24.1338 14.6663 23.5528 14.7996 23.0957 14.5424C22.648 14.2758 22.4861 13.7138 22.7528 13.2376ZM20.4956 15.2377L27.0958 19.0473L26.1434 20.695L19.5432 16.8854L20.4956 15.2377ZM17.5717 26.0952H10.9048V18.4759H17.5717V26.0952ZM17.8955 15.933L11.2953 12.1233L12.2477 10.4757L18.8479 14.2853L17.8955 15.933ZM18.1527 11.6852C17.6955 11.4185 17.5431 10.8566 17.8003 10.3804C18.0479 9.9042 18.6479 9.77087 19.1051 10.028C19.5622 10.2947 19.7146 10.8566 19.4479 11.3328C19.1908 11.809 18.6098 11.9424 18.1527 11.6852ZM19.4765 26.0952V19.0473L26.1434 22.8951V26.0952H19.4765Z" fill="#8A6F4E"/>
</svg>
