<svg width="24" height="24" viewBox="0 0 24 24" fill="none" xmlns="http://www.w3.org/2000/svg">
<path d="M12.0003 4.64014C14.2536 4.64014 15.7736 5.6135 16.6403 6.42686L20.027 3.12009C17.947 1.1867 15.2403 0 12.0003 0C7.30695 0 3.25361 2.69341 1.28027 6.61353L5.16028 9.62695C6.13361 6.73353 8.82695 4.64014 12.0003 4.64014Z" fill="white"/>
<path d="M23.52 12.2668C23.52 11.2801 23.44 10.56 23.2667 9.81335H12V14.2668H18.6133C18.48 15.3735 17.76 17.0402 16.16 18.1603L19.9467 21.0937C22.2133 19.0003 23.52 15.9202 23.52 12.2668Z" fill="white"/>
<path d="M5.17334 14.3736C4.92001 13.6269 4.77334 12.8269 4.77334 12.0002C4.77334 11.1735 4.92001 10.3735 5.16001 9.62683L1.28 6.6134C0.466667 8.24012 0 10.0668 0 12.0002C0 13.9336 0.466667 15.7603 1.28 17.3871L5.17334 14.3736Z" fill="white"/>
<path d="M12.0006 24.0006C15.2406 24.0006 17.9606 22.9339 19.9473 21.0939L16.1606 18.1604C15.1473 18.8671 13.7873 19.3605 12.0006 19.3605C8.82729 19.3605 6.13395 17.2671 5.17395 14.3737L1.29395 17.3871C3.26728 21.3072 7.30729 24.0006 12.0006 24.0006Z" fill="white"/>
</svg>