<svg width="100" height="100" viewBox="0 0 100 100" fill="none" xmlns="http://www.w3.org/2000/svg">
<path d="M58.1818 54.5455H45.4545V41.8182H58.1818M58.1818 40H45.4545C44.9723 40 44.5099 40.1916 44.1689 40.5325C43.8279 40.8735 43.6364 41.336 43.6364 41.8182V54.5455C43.6364 55.0277 43.8279 55.4901 44.1689 55.8311C44.5099 56.1721 44.9723 56.3636 45.4545 56.3636H58.1818C58.664 56.3636 59.1265 56.1721 59.4675 55.8311C59.8084 55.4901 60 55.0277 60 54.5455V41.8182C60 41.336 59.8084 40.8735 59.4675 40.5325C59.1265 40.1916 58.664 40 58.1818 40ZM41.8182 43.6364H40V58.1818C40 58.664 40.1916 59.1265 40.5325 59.4675C40.8735 59.8084 41.336 60 41.8182 60H56.3636V58.1818H41.8182M53.6 48.4455L51.1 51.6636L49.3182 49.5182L46.8182 52.7273H56.8182L53.6 48.4455Z" fill="black"/>
</svg>
