<svg width="26" height="24" viewBox="0 0 26 24" fill="none" xmlns="http://www.w3.org/2000/svg">
<path d="M12.9907 0C5.79943 0 0 4.63317 0 10.2579C0 13.9089 2.41256 17.1058 6.03141 18.9313L4.80657 23.4997C4.78347 23.5682 4.77992 23.6416 4.79631 23.712C4.8127 23.7824 4.84838 23.8468 4.89936 23.8981C4.97369 23.9636 5.06934 23.9998 5.16845 24C5.25063 23.9934 5.3286 23.961 5.39115 23.9074L10.6617 20.3584C11.4397 20.4656 12.2239 20.5212 13.0093 20.5251C20.1913 20.5251 26 15.8919 26 10.2579C26 4.62391 20.1727 0 12.9907 0Z" fill="#392020"/>
</svg>
