<svg width="37" height="37" viewBox="0 0 37 37" fill="none" xmlns="http://www.w3.org/2000/svg">
<path d="M10.2929 11.8623C9.74878 11.8623 9.22692 12.0785 8.84215 12.4632C8.45737 12.848 8.24121 13.3699 8.24121 13.914V24.1726C8.24121 24.7168 8.45737 25.2387 8.84215 25.6234C9.22692 26.0082 9.74878 26.2244 10.2929 26.2244H26.7067C27.2509 26.2244 27.7727 26.0082 28.1575 25.6234C28.5423 25.2387 28.7585 24.7168 28.7585 24.1726V13.914C28.7585 13.3699 28.5423 12.848 28.1575 12.4632C27.7727 12.0785 27.2509 11.8623 26.7067 11.8623H10.2929ZM10.2929 13.914H26.7067V24.1726H10.2929V13.914ZM11.3188 14.9399V16.9916H13.3705V14.9399H11.3188ZM14.3964 14.9399V16.9916H16.4481V14.9399H14.3964ZM17.474 14.9399V16.9916H19.5257V14.9399H17.474ZM20.5516 14.9399V16.9916H22.6033V14.9399H20.5516ZM23.6291 14.9399V16.9916H25.6809V14.9399H23.6291ZM11.3188 18.0175V20.0692H13.3705V18.0175H11.3188ZM14.3964 18.0175V20.0692H16.4481V18.0175H14.3964ZM17.474 18.0175V20.0692H19.5257V18.0175H17.474ZM20.5516 18.0175V20.0692H22.6033V18.0175H20.5516ZM23.6291 18.0175V20.0692H25.6809V18.0175H23.6291ZM14.3964 21.0951V23.1468H22.6033V21.0951H14.3964Z" fill="#8A6F4E"/>
<circle cx="18.5" cy="18.5" r="17.5" stroke="#8A6F4E" stroke-width="2"/>
</svg>
