<svg width="16" height="15" viewBox="0 0 16 15" fill="none" xmlns="http://www.w3.org/2000/svg">
<path d="M5.0919 0.0119854C6.03205 -0.12346 7.02798 0.904334 7.3148 2.32253C7.60163 3.73276 7.08375 4.99161 6.1436 5.13502C5.21141 5.27843 4.20752 4.25064 3.91273 2.83244C3.61793 1.42221 4.15175 0.163366 5.0919 0.0119854ZM10.7886 0.0119854C11.7367 0.163366 12.2626 1.42221 11.9837 2.83244C11.6809 4.25064 10.685 5.27843 9.74486 5.13502C8.79674 4.99161 8.27886 3.73276 8.57365 2.32253C8.86048 0.904334 9.8564 -0.12346 10.7886 0.0119854ZM0.829344 3.67699C1.73763 3.28659 2.97257 3.99568 3.61793 5.23063C4.22345 6.48948 4.0163 7.81207 3.11599 8.20247C2.21567 8.59287 0.988692 7.89174 0.359268 6.64086C-0.270157 5.38998 -0.0470698 4.05942 0.829344 3.67699ZM15.1707 3.67699C16.0471 4.05942 16.2702 5.38998 15.6407 6.64086C15.0113 7.89174 13.7843 8.59287 12.884 8.20247C11.9837 7.81207 11.7765 6.48948 12.3821 5.23063C13.0274 3.99568 14.2624 3.28659 15.1707 3.67699ZM13.8401 12.2658C13.872 13.0148 13.2983 13.8434 12.6131 14.1541C11.187 14.8074 9.49787 13.453 7.91236 13.453C6.32685 13.453 4.62182 14.8632 3.21956 14.1541C2.42282 13.7637 1.87307 12.7279 1.97665 11.8675C2.12006 10.6803 3.54623 10.0429 4.39077 9.17449C5.51417 8.05109 6.31091 5.93973 7.91236 5.93973C9.50584 5.93973 10.3504 8.01922 11.426 9.17449C12.3104 10.1465 13.7843 10.9672 13.8401 12.2658Z" fill="white"/>
</svg>
