<svg width="37" height="37" viewBox="0 0 37 37" fill="none" xmlns="http://www.w3.org/2000/svg">
<path d="M11.4778 11.2588H28.7584V22.7792H11.4778V11.2588ZM20.1181 14.1389C20.882 14.1389 21.6145 14.4423 22.1546 14.9824C22.6948 15.5226 22.9982 16.2551 22.9982 17.019C22.9982 17.7828 22.6948 18.5154 22.1546 19.0555C21.6145 19.5956 20.882 19.8991 20.1181 19.8991C19.3543 19.8991 18.6217 19.5956 18.0816 19.0555C17.5414 18.5154 17.238 17.7828 17.238 17.019C17.238 16.2551 17.5414 15.5226 18.0816 14.9824C18.6217 14.4423 19.3543 14.1389 20.1181 14.1389ZM15.3179 13.1789C15.3179 13.6881 15.1157 14.1765 14.7556 14.5365C14.3955 14.8966 13.9071 15.0989 13.3979 15.0989V18.939C13.9071 18.939 14.3955 19.1413 14.7556 19.5014C15.1157 19.8615 15.3179 20.3499 15.3179 20.8591H24.9183C24.9183 20.3499 25.1206 19.8615 25.4806 19.5014C25.8407 19.1413 26.3291 18.939 26.8383 18.939V15.0989C26.3291 15.0989 25.8407 14.8966 25.4806 14.5365C25.1206 14.1765 24.9183 13.6881 24.9183 13.1789H15.3179ZM7.6377 15.0989H9.55776V24.6992H24.9183V26.6193H7.6377V15.0989Z" fill="#8A6F4E"/>
<circle cx="18.5" cy="18.5" r="17.5" stroke="#8A6F4E" stroke-width="2"/>
</svg>
