<svg width="183" height="192" viewBox="0 0 183 192" fill="none" xmlns="http://www.w3.org/2000/svg">
<path d="M180.208 122.016L179.919 122.112C181.958 116.427 180.934 109.741 177.285 104.927C179.381 99.2038 176.308 92.6649 171.001 90.5505L170.797 90.0235C174.597 88.8748 177.599 85.4058 178.161 81.4723C178.734 77.4707 176.751 73.2181 172.815 70.5639C173.04 65.9719 171.059 61.321 167.592 58.3017C164.126 55.2824 159.247 53.9589 153.714 55.264C148.983 52.6199 142.613 53.3078 138.556 56.901C134.499 60.4933 133.045 66.7334 135.823 72.7279C135.775 73.631 136.193 74.548 136.906 75.1044L137.058 75.1715C136.35 75.0952 135.633 75.0704 134.926 75.0952C131.2 75.2239 127.622 76.5023 124.117 77.7669L123.219 78.0943C123.316 77.3732 123.285 76.7212 123.121 76.1629C125.636 74.216 127.336 71.4459 127.977 68.4385C128.618 65.4311 128.195 62.2085 126.799 59.4679C128.723 54.8382 127.837 49.2327 124.592 45.5254C126.729 45.6386 129.099 45.3268 131.226 44.4328C133.861 43.2731 134.784 40.0588 133.94 37.457C133.096 34.8552 130.785 32.9083 128.21 31.984C125.636 31.0606 122.818 31.0468 120.101 31.365C118.818 25.0063 113.743 20.8033 108.148 20.2948C105.914 15.4489 100.344 12.6724 95.3801 13.8036C91.7014 7.15703 84.926 2.95774 77.6973 2.14658C70.4695 1.3345 62.9308 3.92709 57.7309 9.01296C54.5047 7.22233 50.6015 6.95378 47.1297 8.07948C43.6579 9.2061 40.656 11.7141 38.9307 14.9302C33.8145 15.0489 29.2657 17.0933 25.9502 20.4024C22.6348 23.7114 20.5811 28.2565 20.6409 33.5014C17.6501 33.4564 14.5921 34.4874 12.4658 36.5916C10.3395 38.6958 9.26897 41.9138 10.0286 44.8081C10.7874 47.7014 13.5014 50.0586 16.6936 50.4623C17.594 50.3584 18.4943 50.2535 19.6053 50.7373C16.7515 52.5831 14.7227 55.6585 14.1488 59.0089C13.5749 62.3603 14.4652 65.9351 16.9171 69.75C14.6629 72.5467 13.9318 76.5014 15.0354 79.9199C16.1399 83.3393 19.0452 86.1185 22.7874 87.6645C23.0762 90.9156 24.5661 94.0462 26.9058 96.3225C29.2455 98.5978 32.4166 99.9985 35.3255 100.729C31.552 102.895 28.7259 106.651 27.6572 110.813C23.9637 113.378 21.5403 117.687 21.0685 122.59C20.0955 123.516 19.3975 124.728 19.0848 126.035L19.2292 125.983L19.0489 126.075C17.2472 124.461 15.1007 123.321 12.7095 123.159C7.76436 122.824 3.28457 127.069 2.27476 131.923C1.26494 136.775 3.1457 141.868 6.16411 145.8C9.18252 149.73 13.2485 152.704 16.9962 156.095C19.9456 159.28 24.2286 161.19 28.5695 161.256C32.9104 161.322 37.2486 159.544 40.5199 156.122C42.8651 156.356 45.2913 155.653 47.1481 154.201C49.0059 152.75 50.2741 150.566 50.6843 147.599C53.5997 146.63 56.173 144.664 57.8726 142.104C58.44 141.25 58.9274 140.315 59.7092 139.651C60.4697 139.005 61.4409 138.675 62.3229 138.21C62.8692 137.923 63.4081 137.547 63.7907 137.073L65.3064 137.008C66.8901 137.025 68.4756 136.518 70.2506 135.946H70.2524C70.2524 135.946 73.7997 137.467 77.3138 138.195C77.2145 140.661 77.7093 143.235 78.7458 145.739C80.6789 151.024 83.2651 156.23 87.4009 160.046C91.5377 163.861 97.4696 166.085 102.912 164.657C108.381 163.222 112.312 158.566 115.772 154.096C116.087 153.691 116.403 153.283 116.721 152.875C123.497 154.326 131.023 150.012 133.184 143.426L133.579 142.517C135.357 141.685 136.737 140.371 137.228 138.785C139.076 139.626 141.276 139.175 143.099 138.279C144.921 137.384 146.513 136.079 148.294 135.105L149.186 135.963C147.302 139.9 145.369 144.219 146.328 148.476C147.519 153.761 153.177 157.242 158.592 157.111C164.006 156.98 168.996 153.885 172.661 149.897C179.433 142.53 182.339 131.793 180.208 122.016Z" fill="white"/>
<path d="M78.7209 69.7179C78.5755 73.9945 78.5332 77.4598 76.784 81.3648C76.2165 82.6322 75.4725 83.8471 74.4213 84.7539C73.3701 85.6607 71.9796 86.2327 70.5982 86.0948C69.169 85.9513 67.8906 85.0656 67.0041 83.9363C66.1175 82.806 65.5776 81.4458 65.1343 80.0791C63.9056 76.2882 63.3419 72.282 63.4752 68.2988L70.2064 65.514L78.7209 69.7179Z" fill="#FFBAAA"/>
<path d="M57.0288 75.4198C56.1174 81.8806 50.1404 86.3788 43.6805 85.4665C37.2197 84.555 32.7215 78.5789 33.6329 72.1181C34.5443 65.6573 40.5214 61.1591 46.9813 62.0715C53.4421 62.9829 57.9402 68.959 57.0288 75.4198Z" fill="#FFBAAA"/>
<path d="M108.287 73.8934C107.375 80.3542 101.398 84.8524 94.9383 83.9401C88.4775 83.0287 83.9793 77.0526 84.8908 70.5918C85.8022 64.131 91.7792 59.6328 98.24 60.5451C104.7 61.4565 109.198 67.4326 108.287 73.8934Z" fill="#FFBAAA"/>
<path d="M23.8258 142.035C26.9702 146.02 27.4006 150.922 24.786 152.986C22.1713 155.049 17.5021 153.491 14.3577 149.507C11.2133 145.522 10.7828 140.618 13.3975 138.555C16.0122 136.492 20.6814 138.05 23.8258 142.035Z" fill="#534043"/>
<path d="M13.2461 133.396C13.2461 134.891 12.0347 136.103 10.54 136.103C9.04532 136.103 7.83301 134.891 7.83301 133.396C7.83301 131.902 9.04532 130.689 10.54 130.689C12.0347 130.689 13.2461 131.902 13.2461 133.396Z" fill="#534043"/>
<path d="M20.166 133.396C20.166 134.891 18.9546 136.103 17.459 136.103C15.9643 136.103 14.7529 134.891 14.7529 133.396C14.7529 131.902 15.9643 130.689 17.459 130.689C18.9546 130.689 20.166 131.902 20.166 133.396Z" fill="#534043"/>
<path d="M9.78323 139.492C9.78323 140.987 8.57183 142.199 7.07621 142.199C5.58151 142.199 4.37012 140.987 4.37012 139.492C4.37012 137.998 5.58151 136.785 7.07621 136.785C8.57183 136.785 9.78323 137.998 9.78323 139.492Z" fill="#534043"/>
<path d="M98.1735 148.036C101.318 152.021 101.748 156.923 99.1336 158.987C96.519 161.05 91.8497 159.492 88.7053 155.508C85.5609 151.523 85.1305 146.619 87.7452 144.556C90.3598 142.493 95.0291 144.051 98.1735 148.036Z" fill="#534043"/>
<path d="M88.2226 139.648C88.0469 141.132 86.7012 142.193 85.2166 142.017C83.732 141.841 82.6715 140.496 82.8472 139.011C83.0228 137.527 84.3685 136.466 85.8531 136.642C87.3377 136.817 88.3982 138.163 88.2226 139.648Z" fill="#534043"/>
<path d="M95.0966 140.462C94.9209 141.947 93.5752 143.007 92.0906 142.832C90.606 142.656 89.5455 141.31 89.7212 139.826C89.8969 138.341 91.2426 137.28 92.7271 137.456C94.2117 137.632 95.2723 138.978 95.0966 140.462Z" fill="#534043"/>
<path d="M84.0712 145.296C83.8955 146.781 82.5498 147.841 81.0652 147.666C79.5806 147.49 78.5201 146.144 78.6958 144.66C78.8715 143.175 80.2172 142.114 81.7017 142.29C83.1863 142.466 84.2469 143.812 84.0712 145.296Z" fill="#534043"/>
<path d="M104.669 95.486C117.157 91.0871 124.44 80.6377 123.121 76.1643C125.637 74.2173 127.337 71.4472 127.978 68.4399C128.619 65.4325 128.195 62.2099 126.8 59.4693C128.724 54.8396 127.838 49.2341 124.593 45.5268C126.73 45.6399 129.099 45.3282 131.227 44.4342C133.861 43.2745 134.785 40.0602 133.94 37.4584C133.096 34.8566 130.785 32.9096 128.211 31.9854C125.636 31.062 122.819 31.0482 120.102 31.3664C118.818 25.0077 113.743 20.8047 108.148 20.2961C105.915 15.4503 100.344 12.6738 95.3811 13.805C91.7023 7.15842 84.9261 2.95914 77.6983 2.14706C70.4696 1.3359 62.9318 3.92849 57.731 9.01435C54.5056 7.22372 50.6025 6.95517 47.1307 8.08087C43.6589 9.20749 40.6561 11.7155 38.9308 14.9316C33.8145 15.0503 29.2658 17.0947 25.9503 20.4037C22.6348 23.7128 20.5821 28.2579 20.6419 33.5028C17.6501 33.4578 14.5922 34.4887 12.4659 36.593C10.3396 38.6972 9.26996 41.9152 10.0287 44.8095C10.7874 47.7028 13.5014 50.0599 16.6937 50.4637C17.595 50.3588 18.4953 50.2549 19.6063 50.7387C16.7516 52.5845 14.7228 55.6599 14.1489 59.0103C13.5759 62.3617 14.4653 65.9365 16.9181 69.7513C14.6639 72.549 13.9318 76.5028 15.0364 79.9212C16.14 83.3406 19.0453 86.1199 22.7875 87.6659C23.0772 90.917 24.5662 94.0476 26.9059 96.3238C29.2465 98.5991 32.4175 99.9998 35.3256 100.73C31.553 102.897 28.7268 106.652 27.6582 110.814C23.9647 113.379 21.5404 117.688 21.0695 122.591C20.0956 123.517 19.3975 124.729 19.0858 126.036" stroke="#534043" stroke-width="3.08354" stroke-miterlimit="10" stroke-linecap="round" stroke-linejoin="round"/>
<path d="M22.2734 129.968C20.1177 126.522 16.7645 123.434 12.7087 123.16C7.76352 122.825 3.28373 127.069 2.27483 131.923C1.26502 136.775 3.14486 141.869 6.16419 145.8C9.1826 149.731 13.2485 152.704 16.9963 156.095C19.9457 159.28 24.2287 161.19 28.5687 161.256C32.9096 161.322 37.2487 159.544 40.5191 156.122C42.8652 156.356 45.2913 155.653 47.1482 154.202C49.005 152.75 50.2733 150.566 50.6834 147.599C53.5988 146.631 56.173 144.664 57.8717 142.104C58.4392 141.25 58.9266 140.315 59.7092 139.651C60.4698 139.005 61.4401 138.675 62.323 138.211C63.2059 137.746 64.0695 137.053 64.2865 136.079" stroke="#534043" stroke-width="3.08354" stroke-miterlimit="10" stroke-linecap="round" stroke-linejoin="round"/>
<path d="M44.541 127.813C45.9426 130.549 48.2961 132.784 51.0993 134.044C53.9025 135.303 57.137 135.578 60.1177 134.853C61.4872 136.197 63.3872 136.986 65.3066 137.008C67.226 137.029 69.1426 136.28 71.406 135.578C72.9575 136.805 74.8346 137.616 76.7907 137.904" stroke="#534043" stroke-width="3.08354" stroke-miterlimit="10" stroke-linecap="round" stroke-linejoin="round"/>
<path d="M95.6722 115.861C91.5961 116.94 88.3082 120.552 87.6369 125.481C84.7702 126.065 82.2144 128.018 80.8965 130.63" stroke="#534043" stroke-width="3.08354" stroke-miterlimit="10" stroke-linecap="round" stroke-linejoin="round"/>
<path d="M95.5453 134.62C92.1167 132.272 88.0425 130.875 83.8947 130.626C82.5078 130.543 81.0179 130.615 79.8867 131.422C78.9339 132.103 78.3784 133.211 78.0041 134.321C76.8113 137.858 77.1497 141.883 78.7444 145.739C80.6785 151.024 83.2647 156.229 87.4005 160.046C91.5364 163.861 97.4693 166.085 102.912 164.657C108.38 163.222 112.31 158.565 115.772 154.096C119.234 149.627 122.919 144.853 127.876 143.39C131.956 143.945 136.273 141.872 137.227 138.785C139.076 139.626 141.276 139.174 143.099 138.279C144.92 137.383 146.512 136.078 148.295 135.105C149.001 134.719 149.735 134.386 150.48 134.079C151.609 133.613 152.776 133.197 153.776 132.496C154.777 131.794 155.61 130.743 155.724 129.526" stroke="#534043" stroke-width="3.08354" stroke-miterlimit="10" stroke-linecap="round" stroke-linejoin="round"/>
<path d="M124.115 77.7671C127.622 76.5025 131.199 75.2242 134.924 75.0954C138.649 74.9657 142.615 76.1714 144.29 79.4685C148.955 75.7466 156.52 76.44 160.431 80.9492" stroke="#534043" stroke-width="3.08354" stroke-miterlimit="10" stroke-linecap="round" stroke-linejoin="round"/>
<path d="M171.001 90.5515C176.308 92.6658 179.38 99.2048 177.285 104.928C180.934 109.743 181.958 116.428 179.918 122.113" stroke="#534043" stroke-width="3.08354" stroke-miterlimit="10" stroke-linecap="round" stroke-linejoin="round"/>
<path d="M149.183 135.963C147.299 139.901 145.366 144.22 146.326 148.478C147.516 153.761 153.175 157.242 158.589 157.112C164.004 156.981 168.993 153.885 172.659 149.898C179.431 142.531 182.337 131.794 180.205 122.016" stroke="#534043" stroke-width="3.08354" stroke-miterlimit="10" stroke-linecap="round" stroke-linejoin="round"/>
<path d="M116.676 152.869C123.462 154.349 131.016 150.027 133.181 143.427" stroke="#534043" stroke-width="3.08354" stroke-miterlimit="10" stroke-linecap="round" stroke-linejoin="round"/>
<path d="M170.599 90.0879C174.493 89.0017 177.587 85.4747 178.159 81.4732C178.732 77.4716 176.749 73.219 172.813 70.5648C173.039 65.9728 171.058 61.3219 167.59 58.3026C164.124 55.2833 159.245 53.9599 153.712 55.2649C148.981 52.6208 142.612 53.3087 138.554 56.9019C134.496 60.4942 133.043 66.7343 135.822 72.7288C135.774 73.6319 136.19 74.5489 136.904 75.1053" stroke="#534043" stroke-width="3.08354" stroke-miterlimit="10" stroke-linecap="round" stroke-linejoin="round"/>
<path d="M154.012 74.8018C157.454 74.6178 160.526 71.6353 160.98 68.0384C162.13 67.7928 163.194 67.1656 163.965 66.279" stroke="#534043" stroke-width="3.08354" stroke-miterlimit="10" stroke-linecap="round" stroke-linejoin="round"/>
<path d="M55.3096 57.9777C57.6183 58.296 59.8728 59.0051 61.947 60.0666C59.8139 60.9643 57.6809 61.863 55.5478 62.7607" stroke="#534043" stroke-width="3.08354" stroke-miterlimit="10" stroke-linecap="round" stroke-linejoin="round"/>
<path d="M86.1257 57.5426C83.8381 57.9887 81.6278 58.8229 79.6152 59.9985C81.7952 60.7766 83.9752 61.5539 86.1551 62.332" stroke="#534043" stroke-width="3.08354" stroke-miterlimit="10" stroke-linecap="round" stroke-linejoin="round"/>
<path d="M70.1514 64.7237C70.1698 64.9877 70.1891 65.2516 70.2075 65.5156" stroke="#534043" stroke-width="3.08354" stroke-miterlimit="10" stroke-linecap="round" stroke-linejoin="round"/>
<path d="M59.817 65.0395C59.1245 65.2124 58.9286 66.2019 59.3139 66.8034C59.6984 67.4049 60.4277 67.6808 61.1211 67.85C64.306 68.6253 67.8275 67.8693 70.5056 65.7936C73.3364 68.2749 77.3242 69.3758 81.0268 68.698C81.5667 68.5986 82.136 68.4432 82.4937 68.0266C82.8506 67.61 82.8542 66.8586 82.3732 66.5956" stroke="#534043" stroke-width="3.08354" stroke-miterlimit="10" stroke-linecap="round" stroke-linejoin="round"/>
<path d="M63.4762 68.2998C63.3428 72.283 63.9066 76.2882 65.1353 80.0801C65.5777 81.4458 66.1185 82.807 67.005 83.9364C67.8916 85.0666 69.17 85.9523 70.5992 86.0958C71.9805 86.2337 73.3702 85.6608 74.4214 84.754C75.4726 83.8481 76.2175 82.6322 76.785 81.3658C78.5342 77.4608 78.5756 73.9945 78.7218 69.7189" stroke="#534043" stroke-width="3.08354" stroke-miterlimit="10" stroke-linecap="round" stroke-linejoin="round"/>
<path d="M70.3372 64.0558C69.594 63.8351 68.9023 63.4451 68.3274 62.9254C68.0441 62.6687 67.7709 62.3238 67.8279 61.9458C67.8803 61.6008 68.1949 61.3562 68.5123 61.2127C69.4266 60.8015 70.4816 60.9376 71.4731 61.082C71.8585 61.1382 72.2697 61.2062 72.5558 61.4693C72.9173 61.8023 72.9724 62.3845 72.7673 62.8297C72.5622 63.2758 72.1409 63.5922 71.6856 63.7762C71.2303 63.9592 70.7382 64.0255 70.2516 64.0898" fill="#534043"/>
<path d="M70.3372 64.0558C69.594 63.8351 68.9023 63.4451 68.3274 62.9254C68.0441 62.6687 67.7709 62.3238 67.8279 61.9458C67.8803 61.6008 68.1949 61.3562 68.5123 61.2127C69.4266 60.8015 70.4816 60.9376 71.4731 61.082C71.8585 61.1382 72.2697 61.2062 72.5558 61.4693C72.9173 61.8023 72.9724 62.3845 72.7673 62.8297C72.5622 63.2758 72.1409 63.5922 71.6856 63.7762C71.2303 63.9592 70.7382 64.0255 70.2516 64.0898" stroke="#534043" stroke-width="3.08354" stroke-miterlimit="10" stroke-linecap="round" stroke-linejoin="round"/>
<path d="M178.924 186.086C178.924 189.352 141.65 192 95.6717 192C49.692 192 12.4189 189.352 12.4189 186.086C12.4189 182.821 49.692 180.173 95.6717 180.173C141.65 180.173 178.924 182.821 178.924 186.086Z" fill="#E0E0E0"/>
</svg>
