<svg width="35" height="35" viewBox="0 0 35 35" fill="none" xmlns="http://www.w3.org/2000/svg">
<circle cx="17.5" cy="17.5" r="16" stroke="#FFB100" stroke-width="3"/>
<path d="M8.125 18.25C9.85089 18.25 11.25 16.8509 11.25 15.125C11.25 13.3991 9.85089 12 8.125 12C6.39911 12 5 13.3991 5 15.125C5 16.8509 6.39911 18.25 8.125 18.25Z" fill="#FFB100"/>
<path d="M13.75 13.25C15.4759 13.25 16.875 11.8509 16.875 10.125C16.875 8.39911 15.4759 7 13.75 7C12.0241 7 10.625 8.39911 10.625 10.125C10.625 11.8509 12.0241 13.25 13.75 13.25Z" fill="#FFB100"/>
<path d="M21.25 13.25C22.9759 13.25 24.375 11.8509 24.375 10.125C24.375 8.39911 22.9759 7 21.25 7C19.5241 7 18.125 8.39911 18.125 10.125C18.125 11.8509 19.5241 13.25 21.25 13.25Z" fill="#FFB100"/>
<path d="M26.875 18.25C28.6009 18.25 30 16.8509 30 15.125C30 13.3991 28.6009 12 26.875 12C25.1491 12 23.75 13.3991 23.75 15.125C23.75 16.8509 25.1491 18.25 26.875 18.25Z" fill="#FFB100"/>
<path d="M22.934 20.1945C22.0502 19.1694 21.3085 18.295 20.4145 17.2698C19.9472 16.7271 19.3478 16.1844 18.6367 15.9432C18.5249 15.903 18.4132 15.8728 18.3014 15.8527C18.0474 15.8125 17.7731 15.8125 17.509 15.8125C17.2448 15.8125 16.9705 15.8125 16.7064 15.8628C16.5947 15.8829 16.4829 15.913 16.3712 15.9532C15.66 16.1944 15.0708 16.7371 14.5933 17.2799C13.7094 18.305 12.9678 19.1794 12.0738 20.2046C10.7429 21.5212 9.10729 22.9785 9.41207 25.0187C9.70669 26.0439 10.4483 27.059 11.7792 27.3505C12.5208 27.5012 14.8879 26.9082 17.4074 26.9082H17.5903C20.1098 26.9082 22.4769 27.4912 23.2185 27.3505C24.5493 27.059 25.291 26.0338 25.5856 25.0187C25.9005 22.9684 24.2649 21.5111 22.934 20.1945Z" fill="#FFB100"/>
</svg>
