<?xml version="1.0" encoding="utf-8"?>
<!-- Generator: Adobe Illustrator 27.7.0, SVG Export Plug-In . SVG Version: 6.00 Build 0)  -->
<svg version="1.1" id="레이어_1" xmlns="http://www.w3.org/2000/svg" xmlns:xlink="http://www.w3.org/1999/xlink" x="0px"
	 y="0px" viewBox="0 0 1290.4 1071.31" style="enable-background:new 0 0 1290.4 1071.31;" xml:space="preserve">
<style type="text/css">
	.st0{fill:#F2B51B;}
	.st1{fill:#FFD261;}
	.st2{fill:#FFFFFF;}
</style>
<g>
	<path class="st0" d="M912.69,731.86c53.22,36.59,110.34,25.69,156.47-17.59c45.55-42.73,60.19-100.62,31.23-155.95
		c63.17-14.88,105.79-68.57,121.05-127.97c20.3-79.03,7.69-148.8-30.4-212.6c-24.54-41.1-60.29-80.3-105.19-100.34
		c-44.89-20.05-102.43-17.34-138.06,16.53c-8.89-51.41-56.56-88.71-108.62-85.16c-89.84,6.12-102.87,41.59-121.08,89.05
		C683.93,59.35,580.52,9.49,495.06,14.01c-84.49,4.46-168.83,22.38-228.12,82.75c-51.1,52.03-67.48,110.8-58.37,172.18
		c-43.29-23.86-104.81-17.23-145.41,23.12C27.7,327.3,7.93,390.48,41.39,435.03c-54.6,54.27-49.97,155.94-16.26,225.15
		c33.7,69.21,81.25,109.71,139.7,141.8c59.52,32.68,178.59,39.06,268.04,10.53c38.47,86.22,51.65,183.54,37.51,276.88
		c49.35-88.91,101.92-181.5,99.36-283.15c47.13,20.77,97.61,21.36,162.52,21.01C802.42,826.87,883.75,791.9,912.69,731.86z"/>
	<path class="st1" d="M946.68,744.69c50.6,40.12,108.33,33.13,157.3-6.9c48.35-39.53,66.89-96.29,41.77-153.47
		c64.04-10.55,110.21-61.22,129.48-119.45c25.63-77.47,17.8-147.94-15.87-214.17c-21.69-42.67-54.69-84.21-98.12-107.27
		c-43.42-23.05-101.01-24.27-138.87,7.1c-5.37-51.9-50.4-92.36-102.57-92.36c-90.05,0-105.46,34.5-126.86,80.61
		C764.19,58.18,664.41,1.4,578.84,0.09c-84.6-1.29-169.96,10.85-233.22,67.04c-54.52,48.43-74.86,105.95-69.95,167.81
		c-41.57-26.75-103.4-24.32-146.64,13.18c-37.77,32.75-61.8,94.44-31.44,141.16c-58.16,50.43-60.46,152.18-31.54,223.53
		c28.92,71.35,73.6,114.99,129.73,150.98c57.16,36.65,175.52,51.12,266.7,28.73c32.51,88.63,39.05,186.63,18.59,278.79
		c55.28-85.35,114.03-174.15,118.39-275.74c45.6,23.93,95.93,27.95,160.71,32.01C830.2,831.97,913.72,802.62,946.68,744.69z"/>
	<path class="st2" d="M1215.08,521.34c0.61-0.8,1.23-1.6,1.84-2.4c0.44-0.43,0.82-0.92,1.14-1.47c1.68-2.32,3.29-4.7,4.74-7.17
		c3.69-6.3,7.01-12.82,10.1-19.44c8.16-17.15,16.36-34.4,22.03-52.57c4.18-13.19,5.7-27.05,7.1-40.77
		c1.22-13.69,2.51-27.37,3.04-41.11c0.16-4.06,0.26-8.12,0.31-12.18c-0.1-2.36,0.44-4.95-0.69-7.12c-1.77-5.18-9.24-6.49-12.92-2.57
		c-2.58,2.52-2.44,6.05-2.38,9.4c-0.02,4.23-0.09,8.47-0.23,12.7c-0.41,13.42-1.59,26.79-2.65,40.17
		c-1.1,12.81-1.57,17.41-3.41,27.14c-2.13,10.33-5.76,20.24-9.52,30.08c-6.43,14.92-13.05,29.77-20.6,44.16
		c-1.82,3.36-3.67,6.72-5.83,9.87c-0.62,0.79-1.21,1.65-1.67,2.57c-0.24,0-1,1.08-2.78,3.46
		C1198.21,522.38,1209.94,529.36,1215.08,521.34z"/>
	<path class="st2" d="M1209.32,255.4c0.53,0.88,1.04,1.76,1.54,2.65c1.34,2.42,2.59,4.89,3.79,7.39
		c5.56,11.72,6.82,15.01,10.65,24.88c1.38,3.82,2.68,7.7,3.5,11.69c0.79,2.8,0.57,6.16,2.58,8.44c5.21,6.99,16.3,1.42,14.04-7
		c-1.32-7.98-3.77-15.67-6.87-23.12c-3.15-8.13-6.74-16.1-10.5-23.96c-1.19-2.4-2.39-4.79-3.72-7.11c-0.91-1.51-1.67-3.25-3.22-4.2
		c-4.12-3.67-11.32-1.1-12.59,4.17C1208.08,251.33,1208.15,253.52,1209.32,255.4z"/>
	<path class="st2" d="M331.95,209.26c1.78,5.2,9.27,6.52,12.97,2.57c2.31-2.29,2.42-5.29,2.55-8.33c0.27-3.82,0.64-7.64,1.12-11.44
		c1.41-10.12,3.79-20.09,6.69-29.88c3.79-12.03,4.95-16.86,9.45-25.14c5.87-10.1,8.09-13.27,13.46-20.08
		c7.83-9.54,16.05-18.81,25.77-26.48c0.67-0.55,1.34-1.08,2.02-1.61c6.49-4.9,13.24-9.49,20.45-13.25c1.07-0.55,2.19-1.02,3.2-1.67
		c-0.09,0.07-0.18,0.14-0.26,0.2c2.71-1.59,6.3-2.21,8.2-4.87c5.18-6.46-2.63-15.4-9.86-11.24c-15.42,6.7-32.47,18.14-46.55,31.97
		c-11.69,12.15-22.56,25.3-30.71,40.12c-4.13,7.55-6.81,15.77-9.38,23.95c-3.87,12.2-6.91,24.68-8.45,37.4
		c-0.45,3.51-0.82,7.03-1.09,10.56C331.45,204.44,330.75,207.05,331.95,209.26z"/>
	<path class="st2" d="M140.58,666.71c2.6,4.21,5.18,8.43,7.99,12.5c16.85,24.04,38.92,44.75,65.04,58.35
		c15.79,8.14,32.72,13.88,49.89,18.35c7.91,2.13,15.89,4.31,24.12,4.7c10.58-0.35,10.64-15.64,0-16.05
		c-4.61-0.15-9.32-1.35-18.13-3.65c-10.86-2.85-21.63-6.03-32.1-10.09c-16.48-6.38-33.53-16.36-47.6-29.14
		c-11.9-10.64-20.52-20.89-26.99-30.04c-2.62-3.73-5.01-7.63-7.42-11.5c-1.78-2.65-3.17-5.82-5.71-7.81
		c-4.9-4.19-12.81-0.17-12.72,6.22C136.87,661.7,139.13,664.11,140.58,666.71z"/>
	<path class="st2" d="M100.21,576.97c1.52,11.11,5.07,21.83,8.11,32.59c1.18,3.85,2.39,7.69,3.5,11.56c0.9,2.5,1.02,5.47,2.81,7.53
		c5.21,6.99,16.3,1.42,14.04-7c-2.51-9.01-5.43-17.9-7.93-26.91c-2.28-7.89-4.05-15.95-6.92-23.66c-2.33-7.92-13.9-6.38-14.05,1.9
		C99.84,574.13,100.05,575.81,100.21,576.97z"/>
</g>
</svg>
