<?xml version="1.0" encoding="utf-8"?>
<!-- Generator: Adobe Illustrator 27.7.0, SVG Export Plug-In . SVG Version: 6.00 Build 0)  -->
<svg version="1.1" id="Layer_1" xmlns="http://www.w3.org/2000/svg" xmlns:xlink="http://www.w3.org/1999/xlink" x="0px" y="0px"
	 viewBox="0 0 177 253" style="enable-background:new 0 0 177 253;" xml:space="preserve">
<style type="text/css">
	.st0{fill:#F8A467;}
	.st1{fill:#FFFFFF;}
	.st2{fill:#F06367;}
	.st3{fill:#534044;}
</style>
<g>
	<g>
		<g>
			<path class="st0" d="M167.1,179.53c-3.68-2.74-9.49-2.63-12.49,0.84c-3.81-9.33-6.49-13.55-11.78-21.51
				c-5.95-8.95-12.03-17.81-18.05-26.71l-0.92-0.93l0.91,0.22c9.96-10.25,8.66-26.95,12.82-39.77c2.13-6.57,5.53-12.63,8.2-18.99
				c2.68-6.39,4.44-13.11,5.91-19.86c1.92-8.83,9.46-26.01-0.38-32.59c-6.94-4.65-17.06,1.44-22.63,5.73
				c-10.47,8.07-19.5,18.07-27.58,28.48c-4.75-4.86-12.28-6.62-18.7-4.41c0.49-15.58,0.3-33.3-8.9-46.95
				c-11.29-5.76-19.7,5.42-23.63,15c-5.02,14.86-5.62,29.89-7.98,44.86c-0.18,4.42-4.77,8.67-7.6,12.98
				c-4.84,10.44-4.45,22.85-0.98,33.93l0.2,0.05l-0.07,0.06c0.41,2.71,1.95,5.14,2.4,7.85c0.29,1.7,0.12,3.5-0.61,5.06
				c-0.56,1.19-1.45,2.52-0.86,3.7c0.18,0.37,0.5,0.71,0.46,1.11c-0.09,0.87-1.55,0.8-1.97,1.58c-0.28,0.53,0.06,1.15,0.12,1.75
				c0.16,1.52-1.5,2.71-1.78,4.15c-0.8,2.02-1.12,3.87-1.57,5.67l-0.66,2.19c-5.8,12.17-10.75,25.26-10.39,38.56
				c1.03,18.64,7.4,36.61,11.08,55.36c0.74,3.57-2.93,6.97-1.27,9.69c5.06,6.4,16.59,5.97,22.96,1.8
				c10.08-8.46,7.99-22.71,3.96-33.6l-0.15-0.49c4.89,2.02,10.05,3.4,15.3,4.05l-0.08,0.01c-0.63,4.96,1.4,10.07,4.88,13.65
				c3.49,3.58,8.3,5.71,13.24,6.47l1.34,0.05c-0.12,2.29,0.29,4.49,1.7,6.3c1.97,2.53,5.3,3.47,8.4,4.27
				c6.14,1.58,13.18,3.03,18.42-0.56c3.17-2.17,4.97-5.79,6.18-9.47l2.07-0.43c12.18,6.39,28.78,2.66,37-8.38
				c5.68-7.62,6.87-18.07,3.91-27.04c2.32-3.47,4.13-7.35,4.49-11.5C172.41,187.19,170.78,182.27,167.1,179.53z"/>
			<path class="st1" d="M100.9,101.41c-18.02-0.65-14.28-20.56-14.28-20.56c2.2-9.88-1.81-9.56-3.38-9.82
				c-0.69-0.11-1.19-0.19-2.41,0.12c-4.49,1.14-4.38,5.85-4.3,8.1c0.05,1.33-0.95,2.49-1.19,2.93c-5.69,10.46-13.7,6.92-18.41,6.67
				c-0.44-0.02-0.87-0.09-1.3,0.03c-29.27,8.07-6.38,34.65-6.38,34.65l0,0c3.03,3.25,3.29,8.2,0.63,11.76
				c-22.73,30.49-14.39,58.98-12.92,63.31c0.12,0.37,0.33,0.7,0.6,0.99c36.39,38.36,74.3,6.94,78.63,3.11
				c0.27-0.24,0.49-0.52,0.64-0.84c21.24-43.27-0.86-63.93-4.05-66.62c-0.24-0.2-0.5-0.35-0.79-0.45l-7.24-2.62
				c-1.53-0.56-1.33-2.78,0.28-3.05C105.03,129.11,134.59,102.63,100.9,101.41z"/>
			<path class="st2" d="M141.28,66.05c3.52-9.4,6.01-19.19,7.4-29.13c0.22-1.58,0.32-3.44-0.87-4.51c-1.32-1.19-3.41-0.67-5,0.12
				c-3.57,1.76-6.56,4.48-9.5,7.16c-6.4,5.83-12.8,11.67-19.2,17.5c-1.6,1.46-3.29,3.07-3.69,5.19c-0.6,3.13,1.75,5.97,3.93,8.29
				c2.01,2.13,4.04,4.29,6.5,5.89c2.45,1.6,5.41,2.62,8.31,2.22c3.03-0.41,5.7-2.32,7.65-4.67C138.75,71.76,140.17,69,141.28,66.05z
				"/>
			<path class="st2" d="M69.06,48.04c-0.16-12.42-0.32-24.83-0.48-37.25c-0.02-1.36-0.14-2.93-1.24-3.73
				c-1.65-1.2-3.89,0.29-5.25,1.8c-9.02,10.02-12.11,23.88-14.88,37.08c-0.36,1.73-0.72,3.57-0.12,5.23
				c1.05,2.9,4.48,4.07,7.52,4.59c3.11,0.54,6.39,0.78,9.33-0.35C66.89,54.29,69.1,51.51,69.06,48.04z"/>
			<path class="st2" d="M82.63,112.59c-1.43,2.39-3.29,4.59-5.7,6c-2.41,1.41-5.41,1.95-8.04,1.02c-2.76-0.97-4.82-3.46-5.73-6.25
				c-0.91-2.78-0.78-5.82-0.12-8.67l10.34-2.36l3.13,5.85L82.63,112.59z"/>
			<path class="st2" d="M115.72,109.56c-0.25,6.37-5.62,11.32-11.99,11.07c-6.37-0.25-11.32-5.62-11.07-11.99
				c0.25-6.37,5.62-11.32,11.99-11.07C111.02,97.83,115.97,103.2,115.72,109.56z"/>
			<path class="st2" d="M60.21,90.62c-0.25,6.37-5.62,11.32-11.99,11.07c-6.37-0.25-11.32-5.62-11.07-11.99
				c0.25-6.37,5.62-11.32,11.99-11.07C55.51,78.89,60.46,84.26,60.21,90.62z"/>
			<path class="st1" d="M58.03,224.68c0.56,8.71,3.4,15.3-6.68,23.76c-6.37,4.18-17.9,4.6-22.96-1.8
				c-1.66-2.72,2.14-8.72,1.39-12.29l-2.15-6.7L58.03,224.68z"/>
			<path class="st1" d="M126.93,226.54c0.39,6.81-0.05,4.85-2,11.39c-1.21,4.08-3.05,8.25-6.56,10.66
				c-5.23,3.59-12.27,2.14-18.42,0.56c-3.1-0.8-6.43-1.74-8.4-4.27c-2.88-3.7-1.62-9.04-0.03-13.46c1.59-4.41,2.99-0.6,0.8-4.75
				L126.93,226.54z"/>
		</g>
		<g>
			<path class="st3" d="M124.78,132.94c-0.38,0-0.75-0.14-1.04-0.42c-0.59-0.58-0.61-1.53-0.03-2.12
				c6.34-6.52,7.93-16.09,9.47-25.34c0.78-4.67,1.58-9.5,2.99-13.84c1.38-4.25,3.28-8.31,5.13-12.23c1.05-2.24,2.14-4.57,3.11-6.87
				c2.88-6.88,4.63-14.09,5.83-19.6c0.36-1.67,0.92-3.62,1.51-5.68c2.48-8.68,5.87-20.57-1.26-25.34
				c-6.54-4.37-16.78,2.51-20.88,5.68c-9.08,7-18.01,16.23-27.31,28.21c-0.27,0.34-0.67,0.55-1.1,0.58
				c-0.43,0.02-0.85-0.14-1.16-0.45c-4.35-4.45-11.24-6.07-17.14-4.04c-0.47,0.16-0.98,0.08-1.38-0.21
				c-0.4-0.29-0.62-0.76-0.61-1.25c0.48-15.25,0.25-32.59-8.42-45.74c-2.96-1.42-5.87-1.62-8.65-0.59c-4.74,1.76-9.44,7.36-12.56,15
				c-3.5,10.38-4.85,21.19-6.14,31.64c-0.52,4.19-1.06,8.53-1.73,12.8c-0.18,3.6-2.73,6.89-5.2,10.06c-0.9,1.15-1.82,2.35-2.58,3.5
				c-4.27,9.27-4.58,20.9-0.87,32.75c0.25,0.79-0.19,1.63-0.98,1.88c-0.79,0.25-1.63-0.19-1.88-0.98
				c-3.95-12.61-3.57-25.04,1.06-35.01c0.03-0.07,0.07-0.13,0.11-0.19c0.84-1.28,1.83-2.56,2.78-3.79c2.2-2.83,4.47-5.76,4.57-8.43
				c0-0.06,0.01-0.12,0.02-0.17c0.67-4.25,1.21-8.59,1.73-12.79c1.32-10.6,2.68-21.56,6.31-32.31c1.68-4.12,6.38-13.81,14.33-16.76
				c3.71-1.37,7.54-1.07,11.4,0.9c0.23,0.12,0.42,0.29,0.56,0.5c8.98,13.33,9.61,30.46,9.21,45.8c5.92-1.3,12.36,0.28,16.97,4.19
				c9.1-11.56,17.89-20.55,26.84-27.45c5.73-4.42,16.52-11.05,24.38-5.79c8.94,5.98,5.21,19.09,2.48,28.66
				c-0.58,2.02-1.12,3.92-1.46,5.5c-1.23,5.64-3.02,13.02-6,20.12c-0.99,2.37-2.1,4.72-3.16,6.99c-1.81,3.84-3.67,7.81-4.99,11.88
				c-1.34,4.14-2.09,8.64-2.89,13.41c-1.62,9.71-3.29,19.74-10.28,26.94C125.56,132.79,125.17,132.94,124.78,132.94z"/>
			<path class="st3" d="M40.6,253.09c-5.57,0-10.71-2.13-13.39-5.52c-0.04-0.05-0.07-0.1-0.1-0.15c-1.27-2.07-0.44-4.24,0.29-6.15
				c0.54-1.43,1.06-2.77,0.8-4.02c-1.26-6.42-2.86-12.84-4.41-19.04c-2.96-11.88-6.02-24.16-6.71-36.54
				c-0.39-14.39,5.41-28.52,10.51-39.23c0.39-1.05,0.64-2.14,0.9-3.29c0.36-1.58,0.73-3.21,1.51-5.02c0.33-0.76,1.21-1.11,1.97-0.79
				c0.76,0.33,1.11,1.21,0.79,1.97c-0.67,1.56-1.01,3.05-1.34,4.5c-0.28,1.22-0.56,2.48-1.04,3.75c-0.01,0.04-0.03,0.08-0.05,0.12
				c-4.96,10.42-10.61,24.14-10.25,37.87c0.67,12.05,3.56,23.66,6.62,35.94c1.56,6.24,3.17,12.7,4.44,19.17
				c0.44,2.09-0.29,4-0.93,5.68c-0.62,1.63-0.98,2.68-0.57,3.45c4.41,5.45,14.93,5.25,20.82,1.44c5.31-4.5,10.19-13.67,3.45-31.87
				c-0.29-0.78,0.11-1.64,0.89-1.93c0.77-0.29,1.64,0.11,1.93,0.89c5.75,15.54,4.19,28.06-4.4,35.27c-0.04,0.04-0.09,0.07-0.14,0.1
				C48.56,252.06,44.48,253.09,40.6,253.09z M51.34,248.44L51.34,248.44L51.34,248.44z"/>
			<path class="st3" d="M77.42,220.34c-0.8,0-1.59-0.02-2.39-0.05c-14.39-0.6-28.61-6.65-39.03-16.6c-0.6-0.57-0.62-1.52-0.05-2.12
				c0.57-0.6,1.52-0.62,2.12-0.05c9.89,9.45,23.41,15.2,37.08,15.77c13.66,0.58,27.62-4.04,38.26-12.63
				c0.64-0.52,1.59-0.42,2.11,0.22c0.52,0.64,0.42,1.59-0.22,2.11C104.72,215.54,91.03,220.34,77.42,220.34z"/>
			<path class="st3" d="M155.16,186.2c-0.7,0-1.32-0.49-1.47-1.2c-1.96-9.48-7.28-18.04-12.11-25.31
				c-4.07-6.12-8.27-12.29-12.33-18.27c-1.91-2.81-3.82-5.62-5.72-8.43c-0.46-0.69-0.28-1.62,0.4-2.08c0.68-0.46,1.62-0.29,2.08,0.4
				c1.9,2.81,3.81,5.62,5.72,8.42c4.07,5.98,8.27,12.17,12.34,18.3c4.99,7.51,10.49,16.36,12.55,26.37c0.17,0.81-0.35,1.6-1.17,1.77
				C155.37,186.19,155.26,186.2,155.16,186.2z"/>
			<path class="st3" d="M110.3,252.32c-3.57,0-7.28-0.83-10.72-1.72c-2.89-0.74-6.84-1.76-9.21-4.8c-3.44-4.42-1.8-10.61-0.26-14.88
				c1.48-4.11,3.15-8.76,1.24-12.38c-0.39-0.73-0.11-1.64,0.63-2.03c0.73-0.39,1.64-0.11,2.03,0.63c2.53,4.79,0.54,10.34-1.07,14.8
				c-1.3,3.61-2.73,8.78-0.2,12.03c1.61,2.06,4.39,2.92,7.59,3.74c5.87,1.51,12.52,2.86,17.2-0.34c3.42-2.35,5.04-6.75,5.97-9.85
				c1.91-6.41,2.68-13.04,2.29-19.72c-0.05-0.83,0.58-1.54,1.41-1.58c0.82-0.06,1.54,0.58,1.58,1.41c0.41,7.02-0.4,14-2.41,20.75
				c-1.05,3.54-2.94,8.58-7.15,11.47C116.53,251.67,113.47,252.32,110.3,252.32z"/>
			<path class="st3" d="M139.7,243.32c-4.89,0-9.77-1.12-14.11-3.47c-0.73-0.39-1-1.3-0.6-2.03c0.39-0.73,1.31-1,2.03-0.6
				c11.62,6.3,27.5,2.8,35.4-7.8c7.9-10.6,6.7-26.82-2.67-36.15c-0.59-0.58-0.59-1.53,0-2.12c0.58-0.59,1.53-0.59,2.12,0
				c10.38,10.34,11.71,28.31,2.96,40.06C159.02,238.99,149.33,243.32,139.7,243.32z"/>
			<path class="st3" d="M166.8,205.33c-0.2,0-0.4-0.06-0.58-0.19c-0.45-0.32-0.55-0.95-0.23-1.4c3.06-4.27,4.7-8.22,5.03-12.07
				c0.39-4.56-1.38-9.01-4.52-11.34c-3.42-2.54-8.62-2.22-11.14,0.69c-0.36,0.42-1,0.46-1.41,0.1c-0.42-0.36-0.46-0.99-0.1-1.41
				c3.22-3.72,9.56-4.17,13.84-0.99c3.73,2.78,5.77,7.8,5.31,13.12c-0.36,4.22-2.13,8.49-5.4,13.06
				C167.42,205.18,167.11,205.33,166.8,205.33z"/>
			<path class="st3" d="M134.87,225.89c-2.49,0-4.98-0.38-7.33-1.16c-0.79-0.26-1.21-1.11-0.95-1.9c0.26-0.79,1.11-1.21,1.9-0.95
				c5.97,1.97,12.91,1.02,18.13-2.49c0.69-0.46,1.62-0.28,2.08,0.41c0.46,0.69,0.28,1.62-0.41,2.08
				C144.37,224.51,139.61,225.89,134.87,225.89z"/>
			<path class="st3" d="M127.9,80.37c-2.58,0-5.33-0.88-7.89-2.55c-2.62-1.71-4.73-3.95-6.77-6.12c-2.66-2.82-5.02-5.93-4.31-9.6
				c0.52-2.7,2.62-4.62,4.15-6.02l19.2-17.5c2.98-2.72,6.07-5.53,9.85-7.4c2.69-1.33,5.12-1.29,6.67,0.11
				c1.92,1.73,1.52,4.6,1.35,5.83c-1.41,10.04-3.92,19.95-7.48,29.45c-1.28,3.43-2.83,6.21-4.73,8.5c-2.43,2.93-5.49,4.78-8.61,5.2
				C128.87,80.34,128.39,80.37,127.9,80.37z M145.81,33.21c-0.72,0-1.6,0.29-2.34,0.66c-3.4,1.68-6.33,4.35-9.16,6.93l-19.2,17.5
				c-1.59,1.45-2.92,2.77-3.23,4.36c-0.45,2.34,1.44,4.74,3.55,6.98c1.92,2.04,3.91,4.15,6.23,5.66c2.44,1.59,5.03,2.3,7.29,1.99
				c2.37-0.32,4.75-1.79,6.7-4.15c1.68-2.03,3.06-4.52,4.23-7.63c0,0,0,0,0,0c3.48-9.29,5.94-18.98,7.32-28.81
				c0.16-1.17,0.27-2.6-0.38-3.19C146.56,33.3,146.21,33.21,145.81,33.21z"/>
			<path class="st3" d="M59.17,57.71c-1.72,0-3.38-0.22-4.81-0.47c-4.72-0.81-7.64-2.68-8.68-5.56c-0.76-2.11-0.31-4.3,0.06-6.05
				c2.54-12.11,5.7-27.18,15.23-37.78c2.41-2.68,5.25-3.46,7.25-2.01c1.81,1.32,1.84,3.75,1.85,4.92l0.48,37.25l0,0
				c0.05,3.92-2.34,7.37-6.08,8.8C62.73,57.48,60.91,57.71,59.17,57.71z M65.97,8.12c-0.78,0-1.92,0.8-2.76,1.74
				c-9,10-11.93,24.02-14.53,36.39c-0.37,1.76-0.62,3.2-0.18,4.41c0.65,1.79,2.79,3.01,6.36,3.62c2.51,0.43,5.75,0.79,8.54-0.27
				c2.56-0.97,4.19-3.31,4.15-5.96l-0.48-37.25c-0.01-1.04-0.1-2.16-0.62-2.54C66.32,8.17,66.15,8.12,65.97,8.12z"/>
			<g>
				<path class="st3" d="M76.44,95.52c-0.76-0.59-1.57-1.21-2.53-1.35c-0.96-0.15-2.09,0.36-2.27,1.31
					c-0.12,0.62,0.17,1.24,0.53,1.76c1.27,1.87,3.42,3.11,5.68,3.25c0.72,0.05,1.52-0.05,1.99-0.59c0.5-0.57,0.45-1.48,0.06-2.13
					c-0.39-0.65-1.04-1.1-1.69-1.49C77.55,95.9,76.86,95.56,76.44,95.52z"/>
				<path class="st3" d="M78.15,102c-0.13,0-0.26,0-0.4-0.01c-2.74-0.18-5.29-1.64-6.82-3.91c-0.69-1.02-0.94-1.97-0.75-2.89
					c0.37-1.87,2.35-2.76,3.97-2.51c1.21,0.19,2.19,0.86,2.95,1.44c0.5,0.14,1.09,0.42,1.88,0.88c0.78,0.46,1.65,1.06,2.22,2.01
					c0.76,1.27,0.67,2.87-0.22,3.88C80.51,101.41,79.66,102,78.15,102z M73.1,95.8c0.01,0,0.03,0.19,0.31,0.6
					c1.01,1.49,2.74,2.48,4.53,2.6c0.5,0.03,0.73-0.05,0.77-0.09c0-0.02-0.01-0.21-0.11-0.37c-0.22-0.37-0.71-0.69-1.16-0.96
					c-0.87-0.51-1.16-0.57-1.17-0.58c-0.29-0.03-0.52-0.13-0.75-0.3c-0.58-0.45-1.24-0.96-1.83-1.05
					C73.44,95.61,73.17,95.72,73.1,95.8z"/>
			</g>
			<path class="st3" d="M86.34,113.8c-0.75,0-1.56-0.08-2.46-0.24c-2.47-0.45-5.95-1.57-8.48-4.36c-1.45-1.6-2.35-3.56-2.62-5.53
				c-3.51,2.2-8.14,2.69-11.99,1.01c-1.78-0.78-3.18-1.9-4.03-3.26c-0.8-1.28-1.1-2.76-0.88-4.12c-0.19-0.41-0.24-0.89-0.1-1.35
				c0.01-0.04,0.03-0.09,0.04-0.13c0.06-0.35,0.24-0.69,0.52-0.95c0.2-0.19,0.46-0.32,0.73-0.38c0.95-0.2,1.96,0.34,2.33,1.24
				c0.09,0.23,0.13,0.48,0.1,0.72c0,0.1-0.01,0.2-0.02,0.3c-0.06,0.41-0.29,0.77-0.62,1c-0.11,0.65,0.05,1.42,0.46,2.06
				c0.66,1.06,1.82,1.73,2.68,2.1c3.89,1.69,8.8,0.51,11.43-2.76c0.46-0.57,1.26-0.73,1.9-0.37c0.64,0.36,0.93,1.12,0.68,1.81
				c-0.73,2.06-0.08,4.7,1.62,6.57c1.97,2.17,4.78,3.06,6.8,3.42c1.34,0.24,2.37,0.26,3.25,0.05c0.73-0.17,1.35-0.52,1.78-0.98
				c-0.15-0.33-0.2-0.69-0.14-1.06c0.11-0.63,0.6-1.12,1.23-1.23c0.49-0.08,0.98,0.04,1.39,0.33c0.43,0.31,0.73,0.79,0.81,1.32
				c0.12,0.78-0.22,1.41-0.33,1.62c-0.78,1.43-2.26,2.5-4.05,2.92C87.72,113.72,87.06,113.8,86.34,113.8z M90.87,107.84
				C90.87,107.84,90.87,107.84,90.87,107.84C90.87,107.84,90.87,107.84,90.87,107.84z"/>
			<path class="st3" d="M91.26,110.57c-0.27,0-0.53-0.08-0.76-0.23c-0.14-0.1-0.25-0.22-0.32-0.36c-0.06-0.05-0.11-0.11-0.16-0.17
				c-0.26-0.33-0.35-0.78-0.24-1.2c0.11-0.42,0.42-0.77,0.81-0.92c0.4-0.15,0.85-0.1,1.22,0.13c0.19,0.12,0.34,0.28,0.45,0.46
				c0.21,0.14,0.36,0.36,0.41,0.62c0.11,0.55-0.13,1.11-0.62,1.43C91.82,110.48,91.54,110.57,91.26,110.57z M91.26,109.06
				L91.26,109.06l0.14-0.03L91.26,109.06z M91.13,108.98l0.12,0.08l0.14-0.03l0.24-0.35c-0.21-0.14-0.49-0.16-0.68-0.03
				c0,0-0.01,0.01-0.02,0.01L91.13,108.98z"/>
			<path class="st3" d="M71.66,121.57c-1.13,0-2.24-0.18-3.27-0.54c-3.05-1.07-5.54-3.76-6.66-7.19c-0.91-2.78-0.96-5.97-0.16-9.47
				c0.19-0.81,0.99-1.31,1.8-1.13c0.81,0.19,1.31,0.99,1.13,1.8c-0.68,2.97-0.65,5.62,0.08,7.87c0.82,2.51,2.66,4.54,4.8,5.3
				c2.05,0.72,4.59,0.39,6.79-0.9c1.93-1.13,3.67-2.97,5.17-5.48c0.43-0.71,1.35-0.94,2.06-0.52c0.71,0.43,0.94,1.35,0.52,2.06
				c-1.76,2.94-3.86,5.14-6.23,6.53C75.8,121,73.68,121.57,71.66,121.57z"/>
			<g>
				<path class="st3" d="M65.69,78.76c0.48-1.12,1.78-1.64,2.91-1.16c1.12,0.48,1.64,1.78,1.16,2.91s-1.78,1.64-2.91,1.16
					C65.73,81.18,65.21,79.88,65.69,78.76z"/>
				<path class="st3" d="M67.72,83.34c-0.5,0-0.99-0.1-1.46-0.3c-0.91-0.39-1.62-1.11-1.98-2.03c-0.37-0.92-0.36-1.93,0.04-2.84l0,0
					c0.39-0.91,1.11-1.62,2.03-1.98c0.92-0.37,1.93-0.35,2.84,0.04c0.91,0.39,1.62,1.11,1.98,2.03c0.37,0.92,0.36,1.93-0.04,2.84
					c-0.39,0.91-1.11,1.62-2.03,1.98C68.65,83.25,68.19,83.34,67.72,83.34z M67.72,78.92c-0.11,0-0.21,0.03-0.27,0.05
					c-0.1,0.04-0.29,0.14-0.39,0.38v0c-0.1,0.24-0.05,0.44-0.01,0.55c0.04,0.1,0.14,0.29,0.38,0.39c0.24,0.1,0.44,0.05,0.55,0.01
					c0.1-0.04,0.29-0.14,0.39-0.38c0.1-0.24,0.05-0.44,0.01-0.55c-0.04-0.1-0.14-0.29-0.38-0.39C67.9,78.93,67.81,78.92,67.72,78.92
					z"/>
			</g>
			<g>
				<path class="st3" d="M93.83,89.4c0.48-1.12,1.78-1.64,2.91-1.16c1.12,0.48,1.64,1.78,1.16,2.91c-0.48,1.12-1.78,1.64-2.91,1.16
					C93.87,91.82,93.35,90.52,93.83,89.4z"/>
				<path class="st3" d="M95.86,93.98c-0.49,0-0.98-0.1-1.46-0.3c-1.88-0.81-2.76-2.99-1.95-4.88c0.39-0.91,1.11-1.62,2.03-1.98
					c0.92-0.37,1.93-0.35,2.84,0.04c1.88,0.81,2.76,2.99,1.95,4.87C98.67,93.14,97.3,93.98,95.86,93.98z M95.86,89.56
					c-0.11,0-0.21,0.03-0.27,0.05c-0.1,0.04-0.29,0.14-0.39,0.38c-0.16,0.36,0.01,0.78,0.37,0.94c0.36,0.15,0.78-0.01,0.94-0.38
					c0.1-0.23,0.05-0.44,0.01-0.54c-0.04-0.1-0.14-0.29-0.38-0.39C96.04,89.57,95.95,89.56,95.86,89.56z"/>
			</g>
			<path class="st3" d="M31.16,137.25c-0.77,0-1.42-0.58-1.49-1.36c-0.13-1.38,0.58-2.46,1.15-3.33c0.34-0.52,0.7-1.07,0.67-1.39
				c-0.01-0.12-0.05-0.24-0.08-0.36c-0.13-0.52-0.34-1.39,0.13-2.26c0.38-0.7,1.01-1.05,1.5-1.27c-0.01-0.01-0.01-0.03-0.02-0.04
				c-0.82-1.66-0.01-3.28,0.58-4.46c0.09-0.18,0.18-0.36,0.27-0.54c0.57-1.21,0.74-2.7,0.49-4.18c-0.2-1.18-0.64-2.33-1.11-3.55
				c-0.52-1.36-1.06-2.77-1.3-4.32c-0.12-0.82,0.44-1.58,1.26-1.71c0.81-0.12,1.58,0.44,1.71,1.26c0.18,1.22,0.64,2.42,1.13,3.69
				c0.5,1.31,1.02,2.66,1.27,4.13c0.35,2.08,0.09,4.19-0.73,5.95c-0.09,0.2-0.2,0.41-0.3,0.62c-0.33,0.65-0.73,1.46-0.57,1.78
				c0.03,0.06,0.07,0.12,0.11,0.18c0.22,0.36,0.58,0.95,0.5,1.75c-0.14,1.34-1.31,1.85-1.87,2.09c-0.04,0.02-0.1,0.04-0.15,0.07
				c0.01,0.03,0.02,0.06,0.02,0.09c0.06,0.25,0.12,0.51,0.15,0.76c0.15,1.4-0.57,2.48-1.14,3.36c-0.34,0.52-0.7,1.06-0.67,1.4
				c0.08,0.83-0.53,1.56-1.35,1.63C31.25,137.25,31.21,137.25,31.16,137.25z M33.37,127.85h0.01H33.37z"/>
			<path class="st3" d="M88.51,240.03c-0.08,0-0.15-0.01-0.23-0.02c-5.59-0.86-10.59-3.31-14.09-6.91
				c-3.99-4.09-5.97-9.66-5.3-14.89c0.1-0.82,0.86-1.4,1.68-1.3c0.82,0.11,1.4,0.86,1.3,1.68c-0.55,4.33,1.12,8.97,4.47,12.41
				c3.05,3.13,7.45,5.27,12.4,6.03c0.82,0.13,1.38,0.89,1.25,1.71C89.88,239.5,89.24,240.03,88.51,240.03z"/>
		</g>
	</g>
	<g>
		<g>
			<path class="st3" d="M7.52,63.48c-0.01,0-0.02,0-0.03,0c-0.83-0.01-1.49-0.7-1.47-1.53c0.17-10.06,2.52-20.19,6.78-29.3
				c0.35-0.75,1.24-1.07,1.99-0.72c0.75,0.35,1.07,1.24,0.72,1.99c-4.08,8.73-6.33,18.44-6.49,28.08C9,62.83,8.33,63.48,7.52,63.48z
				"/>
			<path class="st3" d="M1.7,58.8c-0.76,0-1.41-0.58-1.49-1.35c-0.73-7.32,0.46-14.74,3.47-21.45c0.34-0.76,1.23-1.09,1.98-0.76
				c0.76,0.34,1.09,1.23,0.76,1.98C3.63,43.46,2.51,50.35,3.2,57.15c0.08,0.82-0.52,1.56-1.34,1.64C1.8,58.79,1.75,58.8,1.7,58.8z"
				/>
		</g>
		<g>
			<path class="st3" d="M164.42,122.08c-0.33,0-0.66-0.11-0.93-0.33c-0.65-0.52-0.75-1.46-0.24-2.11c2.4-3.02,3.96-6.79,4.38-10.62
				c0.09-0.82,0.85-1.42,1.66-1.33c0.82,0.09,1.42,0.83,1.33,1.66c-0.49,4.39-2.27,8.7-5.02,12.16
				C165.3,121.89,164.86,122.08,164.42,122.08z"/>
			<path class="st3" d="M162.26,134.65c-0.42,0-0.84-0.18-1.14-0.53c-0.54-0.63-0.46-1.58,0.17-2.11
				c7.4-6.32,12.21-15.49,13.19-25.16c0.08-0.82,0.82-1.42,1.64-1.34c0.82,0.08,1.42,0.82,1.34,1.64
				c-1.07,10.44-6.25,20.33-14.23,27.14C162.95,134.53,162.6,134.65,162.26,134.65z"/>
		</g>
	</g>
</g>
</svg>
